<svg xmlns="http://www.w3.org/2000/svg" xmlns:xlink="http://www.w3.org/1999/xlink" viewBox="0 0 347.24381 101.66893"><defs><style>.cls-1,.cls-9{opacity:0.25;}.cls-15,.cls-2,.cls-9{fill:#146e72;}.cls-15,.cls-3{opacity:0.5;}.cls-4{fill:#fff;}.cls-5{fill:url(#linear-gradient);}.cls-6{fill:url(#linear-gradient-2);}.cls-7{fill:url(#linear-gradient-3);}.cls-8{fill:url(#linear-gradient-4);}.cls-10{fill:url(#linear-gradient-5);}.cls-11{fill:url(#linear-gradient-6);}.cls-12{fill:url(#linear-gradient-7);}.cls-13{fill:url(#linear-gradient-8);}.cls-14{fill:url(#linear-gradient-9);}.cls-16{fill:#fffac3;}.cls-17{fill:#fde400;}</style><linearGradient id="linear-gradient" x1="255.23796" y1="39.2993" x2="255.23796" y2="72.35374" gradientUnits="userSpaceOnUse"><stop offset="0" stop-color="#fffffe"/><stop offset="0.99948" stop-color="#fffac3"/></linearGradient><linearGradient id="linear-gradient-2" x1="330.89469" y1="38.37943" x2="330.89469" y2="79.88907" xlink:href="#linear-gradient"/><linearGradient id="linear-gradient-3" x1="302.29118" y1="38.38233" x2="302.29118" y2="79.87456" xlink:href="#linear-gradient"/><linearGradient id="linear-gradient-4" x1="279.70475" y1="38.36475" x2="279.70475" y2="79.89257" xlink:href="#linear-gradient"/><linearGradient id="linear-gradient-5" x1="146.00797" y1="37.99751" x2="146.00797" y2="79.48974" xlink:href="#linear-gradient"/><linearGradient id="linear-gradient-6" x1="171.94279" y1="37.99775" x2="171.94279" y2="79.48878" xlink:href="#linear-gradient"/><linearGradient id="linear-gradient-7" x1="194.02995" y1="37.85789" x2="194.02995" y2="79.52971" xlink:href="#linear-gradient"/><linearGradient id="linear-gradient-8" x1="217.22233" y1="37.99405" x2="217.22233" y2="79.50369" xlink:href="#linear-gradient"/><linearGradient id="linear-gradient-9" x1="97.48161" y1="38.21277" x2="97.48161" y2="79.27583" xlink:href="#linear-gradient"/></defs><g id="Layer_2" data-name="Layer 2"><g id="the"><g id="Layer_9" data-name="Layer 9" class="cls-1"><path class="cls-2" d="M13.83073,68.18748a2.99067,2.99067,0,0,1-2.94336-3.0039c-.39258-5.32129,10.77246-23.98633,18.2041-33.49121a63.362,63.362,0,0,1,5.46875-6.09668c1.856-1.793,3.03662-2.4917,4.21045-2.4917a5.6763,5.6763,0,0,1,5.38281,4.335l.14453.67285-2.00927.938-.42286-.54346c-.05371-.06933-.07666-.06933-.11425-.06933-.334.03466-1.87647.8872-4.833,4.36914C29.133,42.05809,19.1652,57.50584,16.779,63.10936a12.44825,12.44825,0,0,0,1.09619-.626l2.25977-1.43457-.28028,2.665c-.18847,1.78809-4.21777,4.40821-5.87695,4.46875l-.13232.00488ZM9.75944,43.05809c-2.48731-.03711-6.10791-.83936-8.168-2.979a5.44127,5.44127,0,0,1-1.58984-4.023C.152,30.646,5.43327,25.69481,14.87321,22.11082c8.47559-3.21826,19.49707-5.06347,30.23779-5.06347,1.063,0,2.06738,0,3.13379.04736,9.86084.32813,19.917,2.792,23.93652,4.98438a1.59151,1.59151,0,0,1,.99122,1.792,1.50528,1.50528,0,0,1-1.53174,1.125,2.25385,2.25385,0,0,1-.75782-.1377,77.46278,77.46278,0,0,0-20.70361-3.28173c-.89551-.04834-1.814-.04834-2.70215-.04834-24.11718,0-40.7124,10.15625-41.34668,15.46728-.13769,1.102,1.33838,2.34473,4.04932,3.41357.18115.07129.30518.124.36084.15235l1.57715.78906-1.23535,1.269a1.52262,1.52262,0,0,1-1.1167.43848Z"/><path class="cls-2" d="M32.05094,59.585a3.32441,3.32441,0,0,1-1.66552-.50684,6.38485,6.38485,0,0,1-2.26075-2.50488c-.54687-1.4502.63038-4.42383,1.3794-6.0708,2.44433-5.58057,8.59521-14.58985,13.53515-21.15674a42.09854,42.09854,0,0,1,5.9292-6.55469,4.91649,4.91649,0,0,1,2.62891-1.15381c2.64014,0,5.12012,2.22559,5.12012,3.56738l.00293,1.19043-1.3003.167h-.05517a1.55848,1.55848,0,0,1-.70654-.17725c-.14942.02686-.91553.25879-2.65967,2.23A138.86176,138.86176,0,0,0,40.5363,43.89842c4.00439-3.25537,8.16015-5.98388,9.73535-5.98388,1.53564,0,2.76465,1.729,3.21631,2.8916a2.0435,2.0435,0,0,1-.30616,2.43261c-.80468.62354-4.32519,5.36475-6.49658,8.90381,2.60986-2.01513,5.76025-4.99218,7.7085-6.83349l1.08447-1.02149.041-.03027a1.67293,1.67293,0,0,1,1.01855-.36279,1.55253,1.55253,0,0,1,1.437.96338,1.467,1.467,0,0,1-.30664,1.60742c-4.13623,4.42578-9.356,9.79345-12.84521,11.84033a8.43344,8.43344,0,0,1-1.92041.8418,2.73605,2.73605,0,0,1-.69873.10058,2.519,2.519,0,0,1-.71436-.10644,5.16691,5.16691,0,0,1-2.96875-4.082c0-1.71973,1.4668-4.64356,3.19043-7.3501-1.26563.98877-2.52686,2.06982-3.7041,3.18164-.39649.35693-1.95166,1.98-2.31592,2.36279a14.12194,14.12194,0,0,0-2.67627,3.67578l-.00244.00489,4.51318.58984-4.45263,1.85449A2.67341,2.67341,0,0,1,32.05094,59.585Z"/><path class="cls-2" d="M53.11247,59.24022c-2.17432,0-4.65332-2.27734-4.65332-4.27539a9.89371,9.89371,0,0,1,.73925-3.56445,24.89152,24.89152,0,0,1,6.91309-8.73487c4.16309-3.46045,8.623-5.03515,11.00684-5.03515,1.39453,0,4.18066,1.60254,4.18066,3.707,0,3.77246-9.22363,10.54052-15.02393,11.14306a7.51611,7.51611,0,0,0-1.1372,2.08887h.00927c2.20069,0,8.80665-4.21582,16.065-10.25244l.32422-.27148.51318-.0459a1.64616,1.64616,0,0,1,1.542.97363,1.409,1.409,0,0,1-.30713,1.54l-.44482.41748C68.90055,50.6162,59.68376,59.24022,53.11247,59.24022Z"/></g><g class="cls-3"><path class="cls-2" d="M13.83093,67.32293a2.1306,2.1306,0,0,1-2.08156-2.20078c-.34187-4.633,9.86378-22.46188,18.02292-32.89777a62.4398,62.4398,0,0,1,5.38741-6.00686c1.655-1.59828,2.701-2.24987,3.6109-2.24987A4.85051,4.85051,0,0,1,43.3089,27.62l-.76144.3553a.9712.9712,0,0,0-.79593-.402c-.73632,0-2.566,1.22778-5.49144,4.67388-8.35841,9.93274-20.17461,28.29577-20.839,32.22515a7.746,7.746,0,0,0,2.91548-1.25876l.7521-.47685-.0935.88592c-.1274,1.21084-3.68979,3.64654-5.04906,3.6968ZM9.75955,42.19452c-2.3089-.03506-5.67026-.76671-7.54554-2.71446A4.606,4.606,0,0,1,.86526,36.076c.30212-10.86658,23.12165-18.16492,44.24588-18.16492,1.04779,0,2.04767,0,3.09488.04675,9.7399.32433,19.63,2.73549,23.56169,4.87959.59081.29452.60718.651.56335.83625a.6416.6416,0,0,1-.69017.45874,1.37793,1.37793,0,0,1-.4634-.08649,77.98443,77.98443,0,0,0-20.97-3.33332c-.90053-.04792-1.83905-.04792-2.73023-.04792-24.9794,0-41.52149,10.50719-42.20464,16.22829C5.13592,37.9858,5.822,39.61973,9.863,41.21276c.14259.0561.24077.09584.2846.118l.52711.26414-.41141.42193a.66842.66842,0,0,1-.49731.17765Z"/><path class="cls-2" d="M32.05079,58.72025a2.48155,2.48155,0,0,1-1.25817-.40556,5.56638,5.56638,0,0,1-1.87645-2.08858c-.23785-.63113.00584-2.35564,1.37446-5.36638,2.41817-5.52007,8.52788-14.46579,13.439-20.9945a41.203,41.203,0,0,1,5.793-6.41184,4.005,4.005,0,0,1,2.07455-.95254c2.34162,0,4.25664,2.04125,4.25664,2.70394l.00058.43069-.48971.06252a.77316.77316,0,0,1-.388-.12272.68354.68354,0,0,0-.291-.05843c-.502,0-1.48784.43828-3.3339,2.52569A135.29524,135.29524,0,0,0,36.8883,48.2417c5.1373-4.88192,11.725-9.46348,13.38351-9.46348,1.02384,0,2.04417,1.39726,2.41116,2.341.33252.85611.13733,1.27862-.08532,1.48257-1.15824.89294-7.10082,9.12746-8.27309,12.13,2.78575-1.34992,7.83948-6.12665,10.67081-8.80195l1.03845-.97884a.82914.82914,0,0,1,.50373-.19285.69217.69217,0,0,1,.63932.43069.60615.60615,0,0,1-.11863.66444c-4.11171,4.39923-9.2794,9.71652-12.67232,11.70751a7.66737,7.66737,0,0,1-1.71224.75326,1.83894,1.83894,0,0,1-.46984.06955,1.70305,1.70305,0,0,1-.47277-.07071,4.33846,4.33846,0,0,1-2.34687-3.25326c0-2.34278,3.36136-7.739,5.94024-10.92034a49.58334,49.58334,0,0,0-7.91078,6.12374c-.46341.41666-2.33051,2.37668-2.34921,2.396a14.748,14.748,0,0,0-2.8477,3.93815c-.26063.57971-.21388.81755-.163.90871.09117.16305.40089.22616.578.24954l1.59127.20862-1.482.61652A1.79559,1.79559,0,0,1,32.05079,58.72025Z"/><path class="cls-2" d="M53.11249,58.37605c-1.7,0-3.78971-1.88054-3.78971-3.411a9.13521,9.13521,0,0,1,.68781-3.2702,24.00074,24.00074,0,0,1,6.65728-8.36834c3.81718-3.1732,8.14628-4.83226,10.4505-4.83226.935,0,3.317,1.26051,3.317,2.843,0,3.12177-9.07545,10.00754-14.60662,10.31259a7.51842,7.51842,0,0,0-1.67309,3.36428.24146.24146,0,0,0,.05552.20687c.05844.0637.26706.21213.93618.21213,2.9897,0,10.81983-5.63052,16.6169-10.45225l.11921-.09934.23551-.02163a.76334.76334,0,0,1,.67437.44355.54.54,0,0,1-.11863.59782l-.426.39913C68.38706,49.91362,59.34376,58.37605,53.11249,58.37605ZM67.6373,41.121c-4.15963,1.74146-8.44022,5.86661-10.41251,8.48814C60.82692,48.39831,66.10272,43.37088,67.6373,41.121Z"/></g><path class="cls-4" d="M13.40006,66.88377a1.935,1.935,0,0,1-1.90136-2.0332c-.33887-4.59766,9.84521-22.36084,17.98584-32.77295a62.19273,62.19273,0,0,1,5.37011-5.98828c1.59668-1.5415,2.63916-2.19922,3.48536-2.19922a4.66031,4.66031,0,0,1,4.36132,3.50977l.22852,1.06689-.67041-.86133a1.15682,1.15682,0,0,0-.93848-.47119c-1.00683,0-3.11084,1.771-5.62939,4.73731-7.87842,9.36279-20.65283,28.85107-20.90723,32.55029a7.4669,7.4669,0,0,0,3.21778-1.31445l.43652-.27637-.0542.51367c-.10938,1.03809-3.48145,3.4834-4.876,3.53613ZM9.33122,41.75536c-2.45313-.03711-5.69825-.87354-7.41748-2.65918A4.43346,4.43346,0,0,1,.6154,35.82176c.13623-4.90918,5.11865-9.50146,14.02978-12.93213,8.3457-3.21338,19.293-5.05615,30.03516-5.05615,1.04931,0,2.04053,0,3.08691.04736,9.71582.32276,19.5708,2.72315,23.48291,4.85743.46045.22949.5127.47265.47412.63574-.03613.15478-.19043.31982-.51416.31982a1.19038,1.19038,0,0,1-.40136-.07617,78.25139,78.25139,0,0,0-21.02637-3.34375c-.898-.04834-1.832-.04834-2.73584-.04834-25.0791,0-41.69434,10.61035-42.38428,16.38818-.21,1.68018,1.373,3.19678,4.70459,4.50928.13428.05274.22754.09033.269.11084l.30713.15332-.24023.24512a.49726.49726,0,0,1-.36768.12305Z"/><path class="cls-2" d="M44.68043,18.08354c1.04138,0,2.03482,0,3.07559.04675,9.98416.33194,19.73108,2.84012,23.3747,4.827.51492.25723.40066.48624.07953.48624a.941.941,0,0,1-.3162-.06079,78.98391,78.98391,0,0,0-21.10321-3.359c-.89935-.04792-1.84546-.04792-2.74426-.04792-24.41547,0-41.87561,10.26758-42.63239,16.60813C4.0355,39.61217,9.14591,41.26833,9.524,41.45766a.27169.27169,0,0,1-.18875.04791c-3.17029-.04791-8.5647-1.51471-8.47-5.67786.284-10.22082,22.09723-17.74417,43.81519-17.74417m-6.34055,6.05655a4.39873,4.39873,0,0,1,4.117,3.31229,1.40486,1.40486,0,0,0-1.136-.568c-1.0881,0-3.16968,1.704-5.81985,4.82581C27.45753,41.26833,14.16108,61.5674,14.53977,64.69035a7.31159,7.31159,0,0,0,3.59629-1.37213c-.09467.89878-3.35962,3.26435-4.63706,3.31226-.03286.00192-.06592.00287-.09887.00287a1.69475,1.69475,0,0,1-1.652-1.80042c-.33133-4.49505,9.79483-22.19247,17.93292-32.6015a60.96927,60.96927,0,0,1,5.34711-5.96185c1.37213-1.32538,2.46023-2.12949,3.31167-2.12949m6.34055-6.55655c-21.15649,0-44.012,7.32538-44.315,18.23029a4.67555,4.67555,0,0,0,1.36822,3.456c1.89017,1.96308,5.27222,2.70059,7.59406,2.73569a.74351.74351,0,0,0,.55417-.19867l.478-.48984-.612-.30643c-.04458-.0223-.14511-.06338-.29025-.1206-3.99994-1.57639-4.68063-3.178-4.5473-4.244C5.591,30.94337,22.10514,20.47578,47.04658,20.47578c.90048,0,1.8316,0,2.71765.04722a78.16561,78.16561,0,0,1,20.91693,3.31216,1.49017,1.49017,0,0,0,.52909.10837.72208.72208,0,0,0,.75762-.51209c.04847-.20541.03318-.59826-.6137-.92145-3.923-2.13958-13.82654-4.55508-23.58155-4.87942-1.04614-.047-2.04-.047-3.09219-.047Zm-6.34055,6.05655c-.92984,0-1.99.65762-3.65905,2.26987a62.45838,62.45838,0,0,0-5.39081,6.01c-8.16925,10.44882-18.38309,28.30163-18.0405,32.9498a2.19625,2.19625,0,0,0,2.15061,2.26364c.04263,0,.08538-.00125.12789-.00373,1.40568-.05261,4.97162-2.49023,5.10529-3.759l.10822-1.02759-.873.55277a7.89009,7.89009,0,0,1-2.79166,1.23364c.83771-4.05908,12.70566-22.47082,20.80661-32.09735,2.90876-3.42633,4.71619-4.64774,5.43729-4.64774a.90545.90545,0,0,1,.74158.37525l1.34088,1.72177-.45752-2.13382a4.92242,4.92242,0,0,0-4.60587-3.70746Z"/><path class="cls-4" d="M31.62126,58.28123a2.25649,2.25649,0,0,1-1.16651-.3789A5.43146,5.43146,0,0,1,28.651,55.89452c-.21094-.56153.02637-2.25489,1.37354-5.21827,2.41308-5.5083,8.51416-14.43994,13.41894-20.96093a41.09714,41.09714,0,0,1,5.76416-6.38184,3.89541,3.89541,0,0,1,1.959-.91016c2.3413,0,4.07568,1.9961,4.07617,2.52344v.25l-.30908.0625a.60006.60006,0,0,1-.29688-.09863.85766.85766,0,0,0-.38183-.083c-.78467,0-1.95167.87061-3.46924,2.58692A132.88444,132.88444,0,0,0,35.70866,48.96336C40.84684,43.88329,48.1569,38.70067,49.841,38.70067c.89844,0,1.8794,1.29248,2.24268,2.2251.23389.60254.2207,1.04638-.03858,1.28418-1.20507.92822-7.65527,9.91211-8.45214,12.59375,2.73-1.09473,8.12939-6.19727,11.09619-9.001l1.03759-.978a.62642.62642,0,0,1,.38038-.14355.51157.51157,0,0,1,.47168.31836.42009.42009,0,0,1-.07813.46728c-4.11035,4.396-9.2666,9.70215-12.63672,11.67969a7.48952,7.48952,0,0,1-1.66894.73535,1.63666,1.63666,0,0,1-.42188.06348,1.53326,1.53326,0,0,1-.42285-.06446,4.18569,4.18569,0,0,1-2.21631-3.0791c0-2.51758,3.96-8.63281,6.56055-11.59424A47.58357,47.58357,0,0,0,36.85905,49.873c-.46533.419-2.33789,2.38281-2.35645,2.40332a14.92555,14.92555,0,0,0-2.88379,3.99317c-.22265.49511-.27343.85156-.15332,1.0664a.90036.90036,0,0,0,.71192.34082l.9248.1211-.86181.35742A1.59531,1.59531,0,0,1,31.62126,58.28123Z"/><path class="cls-2" d="M51.16648,22.67329c2.42334,0,4.174,2.33576,3.76725,2.33576a.38932.38932,0,0,1-.17154-.06485,1.11779,1.11779,0,0,0-.50727-.11633c-.91824,0-2.1553.97348-3.65646,2.67123-4.63705,5.25244-12.06574,15.236-15.89868,22.854,5.39444-5.72458,13.53253-11.40243,15.14132-11.40243,1.08872,0,2.60285,2.5549,2.03483,3.075-1.23014.94669-8.46946,10.93027-8.61145,13.15442,2.93359-.80527,9.65222-7.3819,12.63317-10.17291a.361.361,0,0,1,.20923-.07633c.21063,0,.32627.25009.21677.35916-3.407,3.64423-9.03745,9.55817-12.5864,11.6409a7.226,7.226,0,0,1-1.60824.70945,1.40342,1.40342,0,0,1-.35605.05447,1.27525,1.27525,0,0,1-.354-.05447,3.98984,3.98984,0,0,1-2.03482-2.83893c0-2.69751,5.06311-10.26761,7.52334-12.49176A43.5151,43.5151,0,0,0,36.68727,49.6916c-.47336.42542-2.3656,2.41233-2.3656,2.41233a15.20237,15.20237,0,0,0-2.9336,4.06964c-.426.94668-.33133,1.60821.75678,1.75079a1.35122,1.35122,0,0,1-.52451.10681,2.04481,2.04481,0,0,1-1.037-.34405,5.22816,5.22816,0,0,1-1.70346-1.89224c-.142-.37867-.04733-1.89222,1.37213-5.01517,2.50815-5.72577,8.94278-14.99991,13.39112-20.91385a40.97916,40.97916,0,0,1,5.72519-6.34055,3.6453,3.6453,0,0,1,1.79812-.852m0-.5a4.03764,4.03764,0,0,0-2.09826.95215,41.28374,41.28374,0,0,0-5.82895,6.44571C38.3303,36.0974,32.217,45.048,29.79408,50.57909c-1.37451,3.02389-1.61579,4.7688-1.38233,5.39135a5.63209,5.63209,0,0,0,1.93714,2.159,2.52307,2.52307,0,0,0,1.27145.40173,1.85725,1.85725,0,0,0,.71655-.14517l1.71961-.71542-1.84668-.242c-.27875-.03653-.47058-.11471-.52625-.21456-.028-.05015-.09906-.25855.16046-.8353a14.68184,14.68184,0,0,1,2.84247-3.93292c.016-.01682,1.88138-1.97467,2.335-2.38233a50.26254,50.26254,0,0,1,7.57306-5.91821c-2.54876,3.22314-5.71038,8.37579-5.71038,10.65616A4.42716,4.42716,0,0,0,41.254,58.11235a1.81463,1.81463,0,0,0,.519.08249,1.85809,1.85809,0,0,0,.4722-.06815,7.65967,7.65967,0,0,0,1.75689-.77163c3.38889-1.98859,8.56092-7.31028,12.68683-11.72357a.66892.66892,0,0,0,.12091-.727.75988.75988,0,0,0-.70291-.47364.86087.86087,0,0,0-.5003.1698l-.02671.01911-.02395.02243c-.30893.28924-.658.61911-1.03873.979-2.77673,2.62418-7.69433,7.27182-10.49506,8.71136,1.29777-3.10324,7.04758-11.05551,8.15873-11.91061.27118-.24582.48263-.69342.1358-1.58578-.37393-.962-1.41928-2.38547-2.47556-2.38547-1.6336,0-7.99877,4.39554-13.09573,9.16693A136.04377,136.04377,0,0,1,50.97328,27.83c1.82855-2.068,2.79388-2.50213,3.28164-2.50213a.61917.61917,0,0,1,.28354.06347.7832.7832,0,0,0,.39527.11771h.21905l.19281-.17719.13242-.14358.01452-.24158c0-.7597-1.96493-2.77341-4.32605-2.77341Z"/><path class="cls-4" d="M52.6818,57.93748c-1.58545,0-3.60888-1.81152-3.60888-3.23046a8.96319,8.96319,0,0,1,.67724-3.208,23.8146,23.8146,0,0,1,6.60352-8.29248c3.7832-3.145,8.062-4.79,10.334-4.79.85889,0,3.13623,1.20947,3.13623,2.6626,0,3.08154-9.05713,9.89892-14.51416,10.13623a7.76447,7.76447,0,0,0-1.76416,3.52.43387.43387,0,0,0,.10156.34961c.11377.123.39112.2705,1.06934.2705,3.03418,0,10.63281-5.42041,16.73242-10.49365l.06934-.05762.16992-.02148a.58076.58076,0,0,1,.50732.332.36086.36086,0,0,1-.0791.40039l-.42041.39307C67.84977,49.5078,58.842,57.93748,52.6818,57.93748ZM67.63053,40.5C63.0568,42.21,58.22428,46.977,56.33805,49.6704,60.20378,48.71629,66.47087,42.604,67.63053,40.5Z"/><path class="cls-2" d="M66.68766,38.66664c.71,0,2.88626,1.08814,2.88626,2.41232,0,2.93363-9.08481,9.7475-14.384,9.89008a8.03666,8.03666,0,0,0-1.89282,3.73773c-.04733.568.37869.89878,1.41946.89878,3.45429,0,12.11307-6.57663,16.89215-10.55161a.14112.14112,0,0,1,.07938-.0217c.156,0,.37143.18674.252.30573-3.549,3.31225-12.96508,12.34915-19.2583,12.34915-1.46679,0-3.359-1.70291-3.359-2.98035a8.794,8.794,0,0,1,.66211-3.12295,23.59242,23.59242,0,0,1,6.52988-8.186c3.927-3.26437,8.13867-4.73117,10.17291-4.73117m1.37213,1.41889c-5.25183,1.70407-10.6936,7.42865-12.25506,9.93682,4.117-.47335,11.97165-8.13809,12.25506-9.93682m-1.37213-1.91889c-2.31674,0-6.66476,1.6648-10.49252,4.84668A24.07909,24.07909,0,0,0,49.524,51.38985a9.24249,9.24249,0,0,0-.70127,3.31692c0,1.56128,2.12787,3.48035,3.859,3.48035,6.2583,0,15.31562-8.47534,19.18326-12.09448l.4162-.38913a.61337.61337,0,0,0,.145-.68482.836.836,0,0,0-.73816-.48645.63994.63994,0,0,0-.35669.10568l-.022.01468-.02036.01694c-5.78808,4.81418-13.60135,10.436-16.57242,10.436-.6596,0-.84433-.145-.88522-.18949-.0137-.01489-.04581-.04977-.036-.16775a7.41515,7.41515,0,0,1,1.63684-3.28937c2.48828-.1481,5.91333-1.62253,9.22684-3.981,2.6177-1.86316,5.41485-4.52258,5.41485-6.399,0-1.73623-2.54208-2.91232-3.38626-2.91232ZM56.98753,49.21046c1.98767-2.57345,6.04748-6.44976,10.033-8.193-1.63239,2.26471-6.547,6.90613-10.033,8.19305Z"/></g><g id="list"><g class="cls-3"><path class="cls-2" d="M273.58659,100.21154v-2.669h.98586c1.60435,0,1.77133,0,1.77133-3.09783V88.86086c0-3.0631-.167-3.0631-1.77133-3.0631h-.98586v-2.669h9.96274v2.669h-.98585c-1.603,0-1.77,0-1.77,3.0631v5.02545c0,3.06176.167,3.06176,1.77,3.06176h1.2223c2.71177,0,2.79325-.31526,3.09382-1.4908l.35934-1.44h2.54746l-.35934,6.19432Z"/><path class="cls-2" d="M294.24987,100.21154v-2.669h.98585c1.60436,0,1.77134,0,1.77134-3.09783V88.86086c0-3.0631-.167-3.0631-1.77134-3.0631h-.98585v-2.669h9.96274v2.669h-.98585c-1.60436,0-1.77134,0-1.77134,3.0631v5.58383c0,3.09783.167,3.09783,1.77134,3.09783h.98585v2.669Z"/><path class="cls-2" d="M317.43255,100.80466a7.75824,7.75824,0,0,1-3.57339-.93509.95751.95751,0,0,0-.028.11889l-.1416.8162h-2.44193V92.831h2.58086l.08282.89368c.22442,2.38182,1.6097,3.74705,3.80048,3.74705.39942,0,1.70187-.09752,1.70187-1.35187,0-.4582-.23912-1.18757-2.31636-2.22419L314.71277,92.668a5.74119,5.74119,0,0,1-3.43045-5.13366,5.11162,5.11162,0,0,1,5.34739-4.964,6.6555,6.6555,0,0,1,2.88543.6412l.08282-.67593h2.55547V90.4051h-1.69118a5.33,5.33,0,0,1,2.91214,4.63271A5.72765,5.72765,0,0,1,317.43255,100.80466Zm-.62785-14.97217c-.15629,0-1.52687.02806-1.52687,1.03929,0,.57308.34866.99521,2.50738,2.12934l1.74195.90971-.03874-.39541C319.37888,88.408,318.898,85.83249,316.8047,85.83249Z"/><path class="cls-2" d="M332.29558,100.21154v-2.669h.98586c1.60034,0,1.80606,0,1.80606-3.09783v-7.983h-1.03929c-2.57284,0-2.6236.1977-2.95489,1.4908l-.358,1.44h-2.502l.3059-6.26378H345.972l.35667,6.26378h-2.54479l-.36068-1.44538c-.29789-1.1702-.378-1.48546-3.09248-1.48546h-.82956v7.983c0,3.09783.20572,3.09783,1.80606,3.09783h.98586v2.669Z"/></g><g class="cls-1"><path class="cls-2" d="M272.72233,101.07616V96.6787h1.85059a4.16641,4.16641,0,0,0,.82617-.042,16.63384,16.63384,0,0,0,.08008-2.19238v-5.583a9.46469,9.46469,0,0,0-.15039-2.21875,6.48878,6.48878,0,0,1-.75586.01953h-1.85059V82.26463h11.69141v4.39746h-1.85059a4.18869,4.18869,0,0,0-.82812.042,16.71687,16.71687,0,0,0-.07715,2.15722V93.8867a9.46015,9.46015,0,0,0,.15039,2.21778,6.15093,6.15093,0,0,1,.75488-.02051h1.22266c2.041,0,2.041,0,2.25683-.84082l.52149-2.08984h4.13867l-.46,7.92285Z"/><path class="cls-2" d="M293.38542,101.07616V96.6787H295.236a4.17757,4.17757,0,0,0,.82715-.042,16.63384,16.63384,0,0,0,.08008-2.19238v-5.583a9.46469,9.46469,0,0,0-.15039-2.21875,6.5093,6.5093,0,0,1-.75684.01953h-1.85058V82.26463h11.6914v4.39746h-1.84961a4.20591,4.20591,0,0,0-.83008.042,16.719,16.719,0,0,0-.07714,2.15722v5.583a9.62144,9.62144,0,0,0,.15234,2.25293,6.82915,6.82915,0,0,1,.75488-.01855h1.84961v4.39746Z"/><path class="cls-2" d="M317.43229,101.66893a8.26554,8.26554,0,0,1-2.91894-.55957l-.09766.55957h-4.03223V91.96678H312.277a6.12324,6.12324,0,0,1-1.85938-4.43262,5.96522,5.96522,0,0,1,6.21192-5.82812,7.65707,7.65707,0,0,1,2.16211.30664l.042-.3418h4.18359v9.59864h-.16992a5.80528,5.80528,0,0,1,1.3916,3.76855A6.57325,6.57325,0,0,1,317.43229,101.66893Zm-2.6582-7.99805c.13183,1.34473.752,2.93653,2.9375,2.93653.83789,0,.83789-.36719.83789-.48731,0-.24609-.48145-.77441-1.83789-1.45117Zm2.03027-6.97461a1.19981,1.19981,0,0,0-.66894.166c.04687.14453.32129.46484,2.05078,1.374l.20605.10742C318.151,87.51952,317.68815,86.69627,316.80436,86.69627Z"/><path class="cls-2" d="M331.43131,101.07616V96.6787h1.85059a4.01547,4.01547,0,0,0,.83887-.04493,13.42234,13.42234,0,0,0,.10254-2.18945V87.32616h-.17481a7.12584,7.12584,0,0,0-1.90234.15332,3.35293,3.35293,0,0,0-.21582.68652l-.51953,2.09082h-4.085l.38964-7.99219h19.07325l.45507,7.99219h-4.13476l-.52344-2.10059c-.21094-.82617-.21191-.83007-2.2207-.83007v7.11816a9.15573,9.15573,0,0,0,.16308,2.24121c.04688-.00683.45313-.00683.7793-.00683h1.84961v4.39746Z"/></g><path class="cls-4" d="M274.32292,98.98338V97.78612h.25c2.06445,0,2.50683-.33008,2.50683-3.833v-5.584c0-3.49415-.41113-3.79883-2.50683-3.79883h-.25V83.373h8.49121V84.5703h-.25c-2.09571,0-2.50586.30468-2.50586,3.79883v5.02539c0,3.49316.41015,3.79785,2.50586,3.79785h1.22168c3.125,0,3.418-.52539,3.80566-2.0459l.22168-.88574h1.19336l-.27246,4.72265Z"/><path class="cls-2" d="M282.56394,83.62264v.69729c-2.33776,0-2.75586.55838-2.75586,4.049v5.02545c0,3.48923.4181,4.04761,2.75586,4.04761h1.22229c3.21,0,3.62946-.59311,4.04761-2.23352l.175-.69733h.7334l-.24451,4.22263H274.57286v-.69733c2.33776,0,2.7572-.59445,2.7572-4.08368V88.36888c0-3.49057-.41944-4.049-2.7572-4.049v-.69729h7.99108m.5-.5h-8.99108v1.69729h.5c1.89953,0,2.2572.10877,2.2572,3.549v5.58383c0,3.463-.39429,3.58368-2.2572,3.58368h-.5v1.69733h14.89672l.02729-.4711.2445-4.22263.03064-.5289h-1.6532l-.095.3783-.175.69733c-.33429,1.31158-.4729,1.85522-3.56263,1.85522h-1.22229c-1.89837,0-2.25586-.10873-2.25586-3.54761V88.36888c0-3.44018.35749-3.549,2.25586-3.549h.5V83.12264Z"/><path class="cls-4" d="M294.986,98.98338V97.78612h.25c2.06446,0,2.50781-.33008,2.50781-3.833v-5.584c0-3.49415-.41113-3.79883-2.50781-3.79883h-.25V83.373h8.49121V84.5703h-.25c-2.0957,0-2.50683.30468-2.50683,3.79883v5.584c0,3.50293.44238,3.833,2.50683,3.833h.25v1.19726Z"/><path class="cls-2" d="M303.22721,83.62264v.69729c-2.33777,0-2.7572.55838-2.7572,4.049v5.58383c0,3.48923.41943,4.08368,2.7572,4.08368v.69733h-7.991v-.69733c2.3377,0,2.75714-.59445,2.75714-4.08368V88.36888c0-3.49057-.41944-4.049-2.75714-4.049v-.69729h7.991m.5-.5h-8.991v1.69729h.5c1.89947,0,2.25714.10877,2.25714,3.549v5.58383c0,3.463-.39429,3.58368-2.25714,3.58368h-.5v1.69733h8.991V97.53639h-.5c-1.86285,0-2.2572-.12069-2.2572-3.58368V88.36888c0-3.44018.35767-3.549,2.2572-3.549h.5V83.12264Z"/><path class="cls-4" d="M317.43327,99.57713a7.30872,7.30872,0,0,1-3.85742-1.21,2.38245,2.38245,0,0,0-.46778,1.00293l-.03613.207h-1.08789V93.07518h1.1748l.02149.22656c.25976,2.76367,1.9541,4.41407,4.53222,4.41407,1.48047,0,2.4375-.81934,2.4375-2.0879,0-1.05175-.83984-1.94043-2.72265-2.88183l-2.377-1.22363a5.03266,5.03266,0,0,1-3.03223-4.48047,4.38572,4.38572,0,0,1,4.6123-4.22754,5.91847,5.91847,0,0,1,3.26563.96,1.54527,1.54527,0,0,0,.32519-.77637l.02735-.21875h1.16894v6.39844h-1.1748l-.02246-.22559c-.12989-1.30664-.72266-4.34765-3.415-4.34765-1.126,0-2.2627.54883-2.2627,1.77539,0,1.082.85547,1.70508,2.90235,2.77832l2.33789,1.22265a4.71423,4.71423,0,0,1,2.85644,4.165A5.00863,5.00863,0,0,1,317.43327,99.57713Z"/><path class="cls-2" d="M321.168,83.0295v5.89776h-.69867c-.20837-2.0946-1.15149-4.5726-3.66418-4.5726-1.36127,0-2.51276.7334-2.51276,2.02515,0,1.221.907,1.88354,3.03638,3.0003l2.33776,1.22232a4.45246,4.45246,0,0,1,2.72242,3.94339,4.76268,4.76268,0,0,1-4.956,4.781,7.26175,7.26175,0,0,1-3.90869-1.29044,2.775,2.775,0,0,0-.66254,1.29044h-.62786v-6.002h.69732c.27918,2.96557,2.16407,4.64071,4.781,4.64071a2.3933,2.3933,0,0,0,2.68768-2.33771c0-1.22232-.97784-2.16409-2.86139-3.10586l-2.37378-1.22229a4.80643,4.80643,0,0,1-2.89612-4.25733,4.11854,4.11854,0,0,1,4.36158-3.97818,5.6544,5.6544,0,0,1,3.31555,1.04734,1.94556,1.94556,0,0,0,.52362-1.08206h.69867m.5-.5h-1.64032l-.05451.43829a1.25981,1.25981,0,0,1-.14935.4668,6.16866,6.16866,0,0,0-3.19366-.87037,4.63172,4.63172,0,0,0-4.86158,4.47818,5.27,5.27,0,0,0,3.16517,4.70081l2.37585,1.22333c1.793.89657,2.59027,1.71652,2.59027,2.66134,0,1.35642-1.17847,1.83771-2.18768,1.83771-2.43518,0-4.03638-1.56546-4.2832-4.18756l-.04267-.45315h-1.65246v7.002h1.54766l.07264-.41348a1.91614,1.91614,0,0,1,.29217-.70939,7.45045,7.45045,0,0,0,3.78662,1.12287,5.25276,5.25276,0,0,0,5.456-5.281,4.95811,4.95811,0,0,0-2.99585-4.3891L317.56047,88.937c-2.1988-1.1532-2.76807-1.679-2.76807-2.55722,0-1.05356,1.01092-1.52515,2.01276-1.52515,2.488,0,3.04333,2.88269,3.16662,4.1221l.04486.4505H321.668V82.5295Z"/><path class="cls-4" d="M333.0319,98.98338V97.78612h.25c2.09277,0,2.542-.33008,2.542-3.833V85.23338H334.0485c-3.14355,0-3.28613.55762-3.666,2.0459l-.22071.88574h-1.15722l.23437-4.792h16.04l.27246,4.792h-1.19336l-.21972-.88671c-.38965-1.51954-.68262-2.04493-3.80762-2.04493H338.7653v8.71973c0,3.50293.44922,3.833,2.542,3.833h.25v1.19726Z"/><path class="cls-2" d="M345.04264,83.62264l.24451,4.292h-.7334l-.1737-.6973c-.41944-1.64041-.83887-2.23355-4.04889-2.23355h-1.81543v8.96887c0,3.48923.45416,4.08368,2.79193,4.08368v.69733H333.2819v-.69733c2.33771,0,2.79187-.59445,2.79187-4.08368V84.98384h-2.02515c-3.21,0-3.48919.59314-3.90869,2.23355l-.17364.6973h-.69861l.20972-4.292h15.56524m.47235-.5H329.0012l-.02319.47561-.20972,4.292-.02563.52442H330.357l.09443-.37918.17364-.69727c.36414-1.4238.47424-1.8544,3.42352-1.8544h1.52515v8.46887c0,3.45227-.43768,3.58368-2.29187,3.58368h-.5v1.69733h9.02576V97.53639h-.5c-1.85425,0-2.29193-.13141-2.29193-3.58368V85.48384h1.31543c3.08953,0,3.22857.54373,3.56445,1.85742l.173.69431.09442.37912h1.65345l-.03009-.52844-.24451-4.29206-.02686-.47155Z"/></g><g id="rica"><g id="Layer_6" data-name="Layer 6" class="cls-1"><path class="cls-2" d="M268.20085,81.26073a12.56838,12.56838,0,0,1-3.71973-.51465,13.01651,13.01651,0,0,1-2.89844-1.27344,11.81083,11.81083,0,0,1-2.22754-1.7207,21.04168,21.04168,0,0,1-1.54-1.71c-.13964-.19629-.28222-.39551-.50488-.69825-.24707-.332-.543-.75488-.88476-1.25878-.32129-.47364-.67872-.99024-1.06739-1.55176l-1.19922-1.709c-.74023-1.00879-1.51562-2.08593-2.30859-3.20605q-1.16748-1.64649-1.59668-2.22949a6.25911,6.25911,0,0,0-.72363-.82715,2.50576,2.50576,0,0,0-.63282-.4375c.001.001-.05859-.01074-.17089-.02637V75.42479a1.35224,1.35224,0,0,0,.38769.72559.86592.86592,0,0,0,.707.2666h2.80762V81.21H237.362V76.417h2.80664a.8667.8667,0,0,0,.708-.26758,1.3695,1.3695,0,0,0,.3955-.88184l-.00781-27.66894a1.46,1.46,0,0,0-.40625-.76953.83451.83451,0,0,0-.68945-.27491H237.362V41.74364l15.6875.17285a12.00512,12.00512,0,0,1,8.65625,3.10254,11.28557,11.28557,0,0,1,3.24414,8.48388,11.94315,11.94315,0,0,1-.68848,3.98829,12.922,12.922,0,0,1-1.86328,3.49511,11.42048,11.42048,0,0,1-2.8623,2.68848q-.40724.26659-.83789.49121c.32129.38477.61914.74805.89453,1.09473.85449,1.2539,1.626,2.34375,2.39746,3.38379.64844.88867,1.32519,1.78125,2.03027,2.6914.68164.875,1.25293,1.56055,1.69629,2.03711a14.51525,14.51525,0,0,0,2.69238,2.38086,5.37232,5.37232,0,0,0,2.97559.71484h1.72949v4.792ZM249.87272,59.26854c.26074,0,.55078-.01465.87207-.043a11.62315,11.62315,0,0,0,1.86817-.16309,6.04594,6.04594,0,0,0,1.66015-.542,4.75135,4.75135,0,0,0,1.41113-1.08008A5.10248,5.10248,0,0,0,256.69889,55.54a8.09207,8.09207,0,0,0,.17285-1.88379v-.46289a6.75293,6.75293,0,0,0-1.24121-4.05566,3.70209,3.70209,0,0,0-2.88183-1.40527q-.84815-.04908-1.67383-.07471c-.543-.01611-1.06445-.02588-1.56152-.02588-.28125,0-.54395.00391-.78711.01025V59.26854Z"/><path class="cls-2" d="M272.72233,74.167V69.17284h2.83691a.70338.70338,0,0,0,.47559-.13379c.01953-.01563.03418-.02832.0459-.03907V49.978c-.01074-.00928-.02637-.02295-.04688-.03857a.7023.7023,0,0,0-.47461-.13428h-2.83691V44.769h13.96484v5.03613h-2.83691a.62407.62407,0,0,0-.43262.13525q-.02783.02271-.04687.03956V69.02733a.69688.69688,0,0,0,.47949.14551h2.83691V74.167Z"/><path class="cls-2" d="M303.196,74.76268a19.06232,19.06232,0,0,1-6.48437-1.05176,14.531,14.531,0,0,1-5.09571-3.07031,13.458,13.458,0,0,1-3.28027-4.8877,18.32548,18.32548,0,0,1-.001-12.58789,13.41553,13.41553,0,0,1,3.28125-4.91211,14.33079,14.33079,0,0,1,5.1084-3.05419A19.45384,19.45384,0,0,1,303.196,44.1743a22.12668,22.12668,0,0,1,5.80274.791,20.38655,20.38655,0,0,1,5.19433,2.168l.77149.4663,1.52344,9.51758h-4.85352l-.37207-1.46386a6.66,6.66,0,0,0-2.75684-4.29053,10.01539,10.01539,0,0,0-5.35254-1.34473,9.15461,9.15461,0,0,0-3.52539.63721,7.10868,7.10868,0,0,0-2.543,1.76855,8.16694,8.16694,0,0,0-1.65722,2.90821,12.855,12.855,0,0,0-.61914,4.13574,11.85765,11.85765,0,0,0,.62988,3.98047,8.31642,8.31642,0,0,0,1.7002,2.88281,7.805,7.805,0,0,0,2.60742,1.83691,9.03319,9.03319,0,0,0,3.4834.707h.09375a12.70976,12.70976,0,0,0,3.59375-.49218,7.84478,7.84478,0,0,0,2.72754-1.41016,7.13927,7.13927,0,0,0,1.86816-2.37988,9.59711,9.59711,0,0,0,.88379-3.64063l.12109-1.81347h4.97754l-.66406,8.75586-.27442.41894a13.48919,13.48919,0,0,1-5.64062,4.77442A17.91615,17.91615,0,0,1,303.196,74.76268Z"/><path class="cls-2" d="M334.03092,74.167V69.17284h1.69727L334.33366,65.791h-7.39942l-1.42578,3.38184h1.6543V74.167H314.6862V69.17284h2.624a1.06909,1.06909,0,0,0,.49316-.21,2.2484,2.2484,0,0,0,.70215-.92579l8.56739-18.28027c.27441-.57764.51757-1.11719.73437-1.63086.16895-.41211.32617-.852.46289-1.30029a4.36893,4.36893,0,0,0,.19824-.86817l.14844-1.7832h3.97949L343.402,68.10643a2.01035,2.01035,0,0,0,.62793.87109.94955.94955,0,0,0,.44922.19532h2.624V74.167Zm-2.10351-14.22071-1.251-3.043-1.28906,3.043Z"/></g><g class="cls-3"><path class="cls-2" d="M268.20041,80.39622A11.72035,11.72035,0,0,1,264.737,79.921a12.16865,12.16865,0,0,1-2.70837-1.18887,10.87838,10.87838,0,0,1-2.06274-1.59141,20.20507,20.20507,0,0,1-1.47573-1.63831c-.10865-.15555-.25559-.35955-.48383-.67064q-.36581-.49244-.86605-1.23264-.4854-.71286-1.07241-1.5578-.58857-.84183-1.20293-1.71413c-.74725-1.01847-1.5195-2.09166-2.30974-3.20783q-1.1748-1.65786-1.607-2.24486a7.19416,7.19416,0,0,0-.82385-.94031,3.3921,3.3921,0,0,0-.85745-.59092,4.371,4.371,0,0,0-1.4046-.18134V75.425a2.20012,2.20012,0,0,0,.62922,1.32487,1.73058,1.73058,0,0,0,1.32956.53151h1.94315v3.064H238.22624v-3.064h1.94237a1.73059,1.73059,0,0,0,1.32956-.53151,2.232,2.232,0,0,0,.63391-1.40382l-.00391-27.74768a2.31183,2.31183,0,0,0-.63938-1.35965,1.692,1.692,0,0,0-1.32018-.54832h-1.94237V42.617l14.81357.16336a11.18678,11.18678,0,0,1,8.06648,2.86079,10.45489,10.45489,0,0,1,2.97959,7.8613,11.10491,11.10491,0,0,1-.63859,3.70182,12.10145,12.10145,0,0,1-1.73836,3.26177,10.564,10.564,0,0,1-2.64818,2.48638,8.65507,8.65507,0,0,1-1.779.89732c.1149.1235.229.25247.34314.38457q.71286.83713,1.292,1.56483c.81055,1.19434,1.59766,2.30661,2.38008,3.36026q.972,1.33425,2.04085,2.706c.70034.89966,1.28735,1.6047,1.747,2.09635a15.27887,15.27887,0,0,0,2.84828,2.513,6.19733,6.19733,0,0,0,3.45171.85823h.86449v3.06323ZM249.87262,60.13309c.28451,0,.59951-.01563.9489-.04689a11.90125,11.90125,0,0,0,1.93612-.172,6.89507,6.89507,0,0,0,1.89468-.6175,5.6152,5.6152,0,0,0,1.66879-1.27172,5.95014,5.95014,0,0,0,1.19981-2.22062,8.578,8.578,0,0,0,.21495-2.14794v-.46273a7.63772,7.63772,0,0,0-1.42961-4.59445,4.56914,4.56914,0,0,0-3.50642-1.72937q-.86175-.04983-1.69771-.07621c-.5534-.016-1.08413-.02541-1.58907-.02541q-.69877,0-1.24592.025c-.14148.00664-.2767.01211-.40489.016V60.13309Z"/><path class="cls-2" d="M273.58659,73.30306V70.03744h1.97266a1.56756,1.56756,0,0,0,1.01074-.32032.87.87,0,0,0,.375-.543V49.804a.87413.87413,0,0,0-.375-.54248,1.57035,1.57035,0,0,0-1.01074-.32032h-1.97266V45.63265h12.23633v3.30859h-1.97265a1.48326,1.48326,0,0,0-.96778.32081.89989.89989,0,0,0-.376.50488V69.24642c.00293.02344.01367.21875.332.46973a1.54719,1.54719,0,0,0,1.01172.32129h1.97265v3.26562Z"/><path class="cls-2" d="M303.196,73.89876a18.22114,18.22114,0,0,1-6.19141-1,13.68581,13.68581,0,0,1-4.7959-2.88671,12.59354,12.59354,0,0,1-3.06933-4.57715,16.11924,16.11924,0,0,1-1.05469-5.9668,16.29669,16.29669,0,0,1,1.05369-5.98633,12.55843,12.55843,0,0,1,3.07033-4.6001,13.46725,13.46725,0,0,1,4.80274-2.86816,18.592,18.592,0,0,1,6.18457-.97559,21.2678,21.2678,0,0,1,5.57617.76075,19.52992,19.52992,0,0,1,4.97363,2.07373l.42872.25927,1.2998,8.12159h-3.168l-.207-.8125a7.47371,7.47371,0,0,0-3.13867-4.8125,10.85954,10.85954,0,0,0-5.80762-1.47412,10.01388,10.01388,0,0,0-3.85742.70312,7.96,7.96,0,0,0-2.84863,1.98389,9.02428,9.02428,0,0,0-1.83789,3.21289,13.71607,13.71607,0,0,0-.665,4.41406,12.70388,12.70388,0,0,0,.68066,4.27051,9.16743,9.16743,0,0,0,1.87988,3.17969,8.65907,8.65907,0,0,0,2.89453,2.041,9.88978,9.88978,0,0,0,3.81543.78027h.1084a13.538,13.538,0,0,0,3.83887-.52832,8.6928,8.6928,0,0,0,3.02734-1.56738,7.98953,7.98953,0,0,0,2.09571-2.66406,10.44135,10.44135,0,0,0,.97363-3.96875l.06738-1.00781h3.23731l-.57715,7.60449-.15235.23242a12.62985,12.62985,0,0,1-5.28808,4.4668A17.05508,17.05508,0,0,1,303.196,73.89876Z"/><path class="cls-2" d="M334.89519,73.30306V70.03744h1.76074c.02148,0,.07324,0,.17578-.08692a.3998.3998,0,0,0,.01953-.15137,1.13444,1.13444,0,0,0-.07226-.33789l-1.86719-4.53418H326.361l-1.89063,4.48438a.92224.92224,0,0,0-.085.38769.41253.41253,0,0,0,.02442.17676c.07129.06153.10449.06153.1289.06153h1.75977v3.26562H315.55046V70.03744h1.75977a1.86672,1.86672,0,0,0,.95508-.34375,3.11007,3.11007,0,0,0,1.01269-1.26954l8.57715-18.30078c.27832-.58545.52637-1.13672.74805-1.66162.18261-.44433.34961-.91357.49316-1.38427a5.21215,5.21215,0,0,0,.2334-1.04932l.082-.99024h2.627l10.57617,23.42432a2.9009,2.9009,0,0,0,.94336,1.24024,1.76588,1.76588,0,0,0,.9209.335h1.75977v3.26562Zm-1.67871-12.49219-2.52832-6.15039-2.60547,6.15039Z"/></g><path class="cls-5" d="M268.20085,79.39256a11.17858,11.17858,0,0,1-3.28223-.44629,11.589,11.589,0,0,1-2.57129-1.1289,10.21678,10.21678,0,0,1-1.94727-1.501,19.3738,19.3738,0,0,1-1.43066-1.58691c-.08008-.11914-.23144-.32813-.4668-.65039-.24218-.3252-.52539-.73047-.85351-1.21289q-.4878-.71778-1.07617-1.56446c-.39454-.56347-.79493-1.13672-1.20606-1.71777q-1.12792-1.53808-2.31055-3.208-1.17919-1.66553-1.61328-2.25586a7.94254,7.94254,0,0,0-.8955-1.02051,4.02224,4.02224,0,0,0-1.01465-.69921,6.39819,6.39819,0,0,0-2.28516-.25684V75.03612a2.83853,2.83853,0,0,0,.80274,1.751,2.335,2.335,0,0,0,1.7705.71973h1.3291v1.835H238.84049v-1.835h1.32813a2.3357,2.3357,0,0,0,1.77148-.71973,2.82144,2.82144,0,0,0,.80371-1.77343l-.001-27.80469a2.92141,2.92141,0,0,0-.80567-1.77979,2.29883,2.29883,0,0,0-1.76855-.74267h-1.32813V42.84862l14.19336.15674a10.60756,10.60756,0,0,1,7.64649,2.68847,9.87133,9.87133,0,0,1,2.791,7.41944,10.47863,10.47863,0,0,1-.60351,3.49707,11.46886,11.46886,0,0,1-1.64942,3.09668,9.98066,9.98066,0,0,1-2.49414,2.34375,7.9955,7.9955,0,0,1-2.61816,1.11816,10.929,10.929,0,0,1,1.05176,1.07617q.70605.82617,1.27832,1.54883c.78515,1.16016,1.57812,2.2793,2.36816,3.34277q.97119,1.33447,2.04883,2.7168c.71.91309,1.30957,1.63281,1.7832,2.13867a15.86744,15.86744,0,0,0,2.958,2.60645,6.79641,6.79641,0,0,0,3.791.96h.25v1.834ZM249.87272,60.35838c.30176,0,.63379-.01562,1.00391-.0498a12.225,12.225,0,0,0,1.9834-.17676,7.54687,7.54687,0,0,0,2.0625-.67187,6.24826,6.24826,0,0,0,1.85156-1.40723,6.5712,6.5712,0,0,0,1.332-2.44922,9.12151,9.12151,0,0,0,.24414-2.33594v-.46289a8.25183,8.25183,0,0,0-1.5625-4.978,5.22188,5.22188,0,0,0-3.95117-1.95948c-.58008-.03369-1.15039-.05908-1.71485-.07666q-.84228-.0249-1.60839-.02588-.71339,0-1.27247.02588c-.38085.01758-.71.02539-.98632.02539h-.00684V60.35838Z"/><path class="cls-2" d="M239.091,43.10161l13.9397.154a10.31821,10.31821,0,0,1,7.47559,2.61847,9.58433,9.58433,0,0,1,2.71539,7.2395,10.19215,10.19215,0,0,1-.58936,3.41419A11.178,11.178,0,0,1,261.019,59.5566a9.66534,9.66534,0,0,1-2.43249,2.28472,7.65953,7.65953,0,0,1-3.04682,1.18106,9.92409,9.92409,0,0,1,1.42884,1.38584q.7011.82191,1.27252,1.54062,1.17946,1.74577,2.36212,3.33679.97311,1.33544,2.05255,2.72089,1.07868,1.387,1.79779,2.15652a16.05688,16.05688,0,0,0,3.003,2.64426,7.00022,7.00022,0,0,0,3.92853,1.00128v1.33426h-3.18439a10.83483,10.83483,0,0,1-3.20782-.43616A11.23615,11.23615,0,0,1,262.476,77.603a9.94826,9.94826,0,0,1-1.89941-1.46322,19.3146,19.3146,0,0,1-1.41162-1.56638q-.10319-.15363-.46118-.64172-.36109-.48662-.84729-1.20609-.49009-.71868-1.07862-1.56637-.591-.84655-1.20685-1.71961-1.13031-1.54061-2.31054-3.20862-1.18187-1.6684-1.6164-2.25894a8.102,8.102,0,0,0-.92389-1.05286,4.24353,4.24353,0,0,0-1.07867-.74411,7.6076,7.6076,0,0,0-2.64349-.28216V75.03612a3.08651,3.08651,0,0,0,.87231,1.92517,2.59637,2.59637,0,0,0,1.95093.79571h1.07867v1.335H239.091V77.757h1.07788a2.59836,2.59836,0,0,0,1.951-.79571,3.09383,3.09383,0,0,0,.873-1.92517v-27.827a3.20455,3.20455,0,0,0-.873-1.951,2.56059,2.56059,0,0,0-1.951-.8215H239.091v-1.335m7.907,17.50708h2.87481c.308,0,.64881-.01642,1.0271-.05081a12.14088,12.14088,0,0,0,2.001-.17978,7.74454,7.74454,0,0,0,2.13074-.6933,6.45481,6.45481,0,0,0,1.926-1.46323,6.77615,6.77615,0,0,0,1.3866-2.5411,9.30469,9.30469,0,0,0,.25641-2.41291v-.46274a8.46173,8.46173,0,0,0-1.618-5.13375,5.43665,5.43665,0,0,0-4.13172-2.05338c-.58313-.0336-1.15527-.05939-1.72119-.07736q-.84649-.02463-1.61639-.02582c-.48,0-.90827.0094-1.28345.02582-.37677.018-.70191.02579-.97553.02579H246.998V60.60869m-8.407-18.01264v2.34058h1.57788a2.062,2.062,0,0,1,1.58631.66357,2.69412,2.69412,0,0,1,.7398,1.65467l-.00207,27.78125a2.56579,2.56579,0,0,1-.73236,1.57751,2.0998,2.0998,0,0,1-1.59168.64337H238.591v2.335h12.809V77.257h-1.57867a2.09833,2.09833,0,0,1-1.59137-.64312,2.57637,2.57637,0,0,1-.73383-1.62223l.0019-12.594a5.54186,5.54186,0,0,1,1.92858.22891,3.76149,3.76149,0,0,1,.95075.65656,7.62392,7.62392,0,0,1,.86481.98626q.43413.58827,1.61035,2.25064,1.18433,1.67195,2.31543,3.2154c.40527.57419.80652,1.14639,1.2,1.71q.58612.84416,1.0755,1.56186.49365.72849.85883,1.22232.347.47283.44763.62256a19.62333,19.62333,0,0,0,1.4729,1.64087,10.49987,10.49987,0,0,0,1.99475,1.53793,11.78788,11.78788,0,0,0,2.62829,1.1536,11.38249,11.38249,0,0,0,3.35486.45825h3.68439V77.30858h-.5a6.55174,6.55174,0,0,1-3.65283-.9184,15.639,15.639,0,0,1-2.90814-2.56283c-.472-.50522-1.067-1.21918-1.77362-2.12778-.75855-.97675-1.42695-1.86276-2.04316-2.7084-.78827-1.06119-1.57867-2.17771-2.35193-3.32224-.41351-.52185-.84527-1.04462-1.30645-1.5852q-.36438-.42513-.73725-.7873a8.25715,8.25715,0,0,0,2.249-1.03695,10.20968,10.20968,0,0,0,2.55786-2.40216,11.72893,11.72893,0,0,0,1.6853-3.16321,10.7379,10.7379,0,0,0,.61786-3.58054,10.10492,10.10492,0,0,0-2.86835-7.59946,10.84474,10.84474,0,0,0-7.82263-2.75851l-13.93414-.154-.50556-.00559Zm8.907,3.4682q.33627-.00494.75567-.0245c.36688-.016.78784-.02524,1.25965-.02524q.76226,0,1.60186.02561c.56031.01779,1.12818.04339,1.707.07675a4.91589,4.91589,0,0,1,3.7696,1.866,8.01976,8.01976,0,0,1,1.50909,4.838l-.00024.44677a8.8691,8.8691,0,0,1-.23829,2.27957,6.291,6.291,0,0,1-1.27294,2.33619,5.99069,5.99069,0,0,1-1.77655,1.35189,7.28425,7.28425,0,0,1-1.994.64966,11.69458,11.69458,0,0,1-1.919.173c-.40112.03442-.7315.05081-1.0271.05081H247.498V46.06425Z"/><path class="cls-6" d="M335.72526,71.89745V70.292h.93066a1.0751,1.0751,0,0,0,.71-.28125.96292.96292,0,0,0,.31543-.78711,1.9623,1.9623,0,0,0-.11523-.60059l-2.09863-5.10156h-9.65723l-2.10449,4.99121a1.73387,1.73387,0,0,0-.15039.71094.98722.98722,0,0,0,.9834,1.06836h.92968v1.60547h-9.08789V70.292h.92969a2.65568,2.65568,0,0,0,1.39746-.47168,3.89518,3.89518,0,0,0,1.3125-1.60059l8.58594-18.31982q.42335-.88917.76172-1.69141c.19531-.47607.37109-.96973.52246-1.46435a6.13782,6.13782,0,0,0,.2666-1.22315l.01856-.229h1.32714L341.85807,68.2285a3.69771,3.69771,0,0,0,1.248,1.59375,2.55749,2.55749,0,0,0,1.37305.46973h.92968v1.60547Zm-1.27051-10.832-3.75488-9.13476-3.87012,9.13476Z"/><path class="cls-2" d="M331.34178,45.54186l10.28906,22.78906a3.92158,3.92158,0,0,0,1.33887,1.70117,2.78822,2.78822,0,0,0,1.50976.50977h.67969v1.10546h-9.18359V70.54186h.68066a1.32865,1.32865,0,0,0,.87109-.33985,1.2066,1.2066,0,0,0,.4043-.97851,2.18944,2.18944,0,0,0-.12793-.67969l-2.168-5.27246h-9.99121l-2.16894,5.14453a1.97079,1.97079,0,0,0-.16993.80762,1.23721,1.23721,0,0,0,1.2334,1.31836h.67969v1.10546h-8.58789V70.54186h.67969a2.89518,2.89518,0,0,0,1.53125-.50977,4.12,4.12,0,0,0,1.40234-1.70117l8.58887-18.3252q.4248-.89208.76562-1.70019.29591-.72217.53125-1.48828a6.38165,6.38165,0,0,0,.27637-1.27539h.93555m-4.88965,15.77343h8.376l-4.124-10.03418-4.25195,10.03418m5.21252-16.27343h-1.7185l-.03821.45849a5.9338,5.9338,0,0,1-.25641,1.1712c-.14893.487-.32251.97312-.51556,1.4444-.2229.528-.47742,1.09314-.7544,1.67481l-8.59021,18.328a3.64223,3.64223,0,0,1-1.2171,1.491,2.42366,2.42366,0,0,1-1.26373.43216h-1.17969v2.10546h9.58789V70.04186H324.539a.75087.75087,0,0,1-.51843-.21354.7214.7214,0,0,1-.215-.60482,1.47868,1.47868,0,0,1,.12683-.60456l2.04383-4.84759h9.3244l2.04059,4.96261a1.66524,1.66524,0,0,1,.09033.48954.69865.69865,0,0,1-.226.59576.83914.83914,0,0,1-.54938.2226h-1.18066v2.10546h10.18359V70.04186h-1.17969a2.31843,2.31843,0,0,1-1.23785-.42936,3.462,3.462,0,0,1-1.15717-1.49191l-10.287-22.78448-.13281-.29425ZM327.207,60.81529l3.49-8.236,3.385,8.236Z"/><path class="cls-7" d="M303.196,72.49315a17.41738,17.41738,0,0,1-5.91015-.9502A12.8683,12.8683,0,0,1,292.778,68.832a11.76242,11.76242,0,0,1-2.86718-4.27832,15.30144,15.30144,0,0,1-.9961-5.66114,15.469,15.469,0,0,1,.9961-5.68261,11.73941,11.73941,0,0,1,2.86621-4.3003,12.6485,12.6485,0,0,1,4.51074-2.68945,17.77814,17.77814,0,0,1,5.9082-.92822,20.45535,20.45535,0,0,1,5.3584.73144,18.68527,18.68527,0,0,1,4.76172,1.9834l.09961.06006,1.085,6.78076h-1.5498l-.04786-.18848a8.37278,8.37278,0,0,0-3.5039-5.312A11.67254,11.67254,0,0,0,303.153,47.748a10.83251,10.83251,0,0,0-4.17675.76709,8.78082,8.78082,0,0,0-3.14258,2.19141,9.85091,9.85091,0,0,0-2.01074,3.50439,14.54265,14.54265,0,0,0-.709,4.68164,13.4996,13.4996,0,0,0,.72949,4.54981,9.99673,9.99673,0,0,0,2.05274,3.46484,9.48073,9.48073,0,0,0,3.16992,2.23731,10.71654,10.71654,0,0,0,4.13379.84961h.12305a14.37329,14.37329,0,0,0,4.07421-.5625,9.51058,9.51058,0,0,0,3.31543-1.71973,8.80718,8.80718,0,0,0,2.31446-2.93555,11.28491,11.28491,0,0,0,1.05957-4.28515l.01562-.2334h1.56543l-.49316,6.498-.03516.05372a11.80428,11.80428,0,0,1-4.94922,4.17089A16.22708,16.22708,0,0,1,303.196,72.49315Z"/><path class="cls-2" d="M303.19627,45.54186a20.11175,20.11175,0,0,1,5.293.72265,18.36387,18.36387,0,0,1,4.69824,1.95606l1.02051,6.377h-1.0625a8.572,8.572,0,0,0-3.61426-5.46289,11.86274,11.86274,0,0,0-6.37793-1.63672,11.03247,11.03247,0,0,0-4.27246.78613,8.98622,8.98622,0,0,0-3.23145,2.25391,10.03271,10.03271,0,0,0-2.0625,3.59277,14.71588,14.71588,0,0,0-.72265,4.76172,13.695,13.695,0,0,0,.74414,4.63379,10.18029,10.18029,0,0,0,2.10449,3.55078,9.68462,9.68462,0,0,0,3.25293,2.2959,10.91413,10.91413,0,0,0,4.23047.87109h.12695a14.5402,14.5402,0,0,0,4.14551-.57324,9.711,9.711,0,0,0,3.40137-1.76465,9.01057,9.01057,0,0,0,2.38086-3.01855,11.45048,11.45048,0,0,0,1.085-4.37988h1.0625l-.46778,6.165a11.51389,11.51389,0,0,1-4.84668,4.082,15.91973,15.91973,0,0,1-6.88769,1.48828,17.0958,17.0958,0,0,1-5.8252-.93555,12.57612,12.57612,0,0,1-4.42187-2.65723,11.4714,11.4714,0,0,1-2.80567-4.18847,14.99239,14.99239,0,0,1-.97851-5.56934,15.15918,15.15918,0,0,1,.97851-5.59082,11.44155,11.44155,0,0,1,2.80567-4.21,12.33456,12.33456,0,0,1,4.42187-2.63574,17.44491,17.44491,0,0,1,5.8252-.91406m0-.5a18.01973,18.01973,0,0,0-5.99146.9425,12.88825,12.88825,0,0,0-4.59839,2.74326,11.98934,11.98934,0,0,0-2.92828,4.3912,15.72169,15.72169,0,0,0-1.01312,5.77362,15.55671,15.55671,0,0,0,1.01379,5.75382,12.02007,12.02007,0,0,0,2.92749,4.36789,13.12954,13.12954,0,0,0,4.59534,2.76373,17.6673,17.6673,0,0,0,5.99463.96515,16.48415,16.48415,0,0,0,7.10132-1.53623,12.05716,12.05716,0,0,0,5.05121-4.26l.07067-.10778.00977-.12851.46777-6.16507.04077-.53781h-2.06939l-.03137.46649a11.01084,11.01084,0,0,1-1.03327,4.18979,8.55874,8.55874,0,0,1-2.24866,2.85388,9.26013,9.26013,0,0,1-3.22857,1.67358,14.10809,14.10809,0,0,1-4.0033.55258h-.12695a10.45619,10.45619,0,0,1-4.02973-.829,9.2328,9.2328,0,0,1-3.08715-2.1781,9.73427,9.73427,0,0,1-2.00013-3.37875,13.25727,13.25727,0,0,1-.715-4.4657,14.28929,14.28929,0,0,1,.696-4.60055,9.58233,9.58233,0,0,1,1.95844-3.41681,8.5337,8.5337,0,0,1,3.05438-2.12946,10.58993,10.58993,0,0,1,4.08026-.74771,11.42674,11.42674,0,0,1,6.11426,1.56158,8.1315,8.1315,0,0,1,3.39349,5.1619l.09619.37613h2.03711l-.09265-.579-1.02051-6.377-.03662-.22895-.19842-.12a18.94868,18.94868,0,0,0-4.8255-2.01056,20.7034,20.7034,0,0,0-5.42438-.74023Z"/><path class="cls-8" d="M274.41667,71.89745V70.292h1.14257a2.36167,2.36167,0,0,0,1.52442-.499,1.6686,1.6686,0,0,0,.69336-1.14941l-.002-19.48731a1.66652,1.66652,0,0,0-.6914-1.12207,2.3991,2.3991,0,0,0-1.52442-.499h-1.14257V45.8867h10.57617v1.64844h-1.14258a2.30087,2.30087,0,0,0-1.48145.499,1.6497,1.6497,0,0,0-.69433,1.1084l.00195,19.52832a1.51771,1.51771,0,0,0,.64844,1.12207,2.36622,2.36622,0,0,0,1.52539.499h1.14258v1.60547Z"/><path class="cls-2" d="M284.74314,46.13658V47.285h-.89257a2.56688,2.56688,0,0,0-1.63672.55273,1.90182,1.90182,0,0,0-.78711,1.27539V68.67076a1.76893,1.76893,0,0,0,.74414,1.31836,2.62753,2.62753,0,0,0,1.67969.55274h.89257v1.10546H274.667V70.54186h.89258a2.62945,2.62945,0,0,0,1.67969-.55274,1.91973,1.91973,0,0,0,.78613-1.31836V49.15611a1.92174,1.92174,0,0,0-.78613-1.31836,2.63509,2.63509,0,0,0-1.67969-.55273H274.667V46.13658h10.07617m.5-.5H274.167V47.785h1.39258a2.12894,2.12894,0,0,1,1.37042.44565,1.4396,1.4396,0,0,1,.5954.95526V68.641a1.43678,1.43678,0,0,1-.5954.95529,2.12477,2.12477,0,0,1-1.37042.44562H274.167v2.10546h11.07617V70.04186h-1.39257a2.12443,2.12443,0,0,1-1.36994-.44523,1.2833,1.2833,0,0,1-.55469-.95355l.0008-19.49792a1.428,1.428,0,0,1,.59686-.91492,2.06144,2.06144,0,0,1,1.327-.44522h1.39257V45.63658Z"/></g><g id="costa"><g id="Layer_8" data-name="Layer 8"><path class="cls-9" d="M100.11344,94.54979a34.73572,34.73572,0,0,1-12.791-2.31641A29.3165,29.3165,0,0,1,77.134,85.58592a30.411,30.411,0,0,1-6.63281-10.29883,36.02444,36.02444,0,0,1-2.3584-13.29492A36.1052,36.1052,0,0,1,70.45524,48.876,30.19122,30.19122,0,0,1,77.00163,38.5742a28.75411,28.75411,0,0,1,10.24609-6.65869,36.63009,36.63009,0,0,1,13.28516-2.3125,37.49615,37.49615,0,0,1,11.85351,1.77735,40.60851,40.60851,0,0,1,9.33789,4.40918l.7417.48437,2.19092,15.75244h-5.75977l-.37109-1.46728a16.33379,16.33379,0,0,0-6.43017-9.86182,19.8543,19.8543,0,0,0-11.4795-3.34814,21.32607,21.32607,0,0,0-8.72851,1.71826,18.33322,18.33322,0,0,0-6.52637,4.85644,22.42223,22.42223,0,0,0-4.19971,7.72364,33.224,33.224,0,0,0-1.499,10.26074,31.20528,31.20528,0,0,0,1.57178,10.18457,23.58579,23.58579,0,0,0,4.29345,7.7168,19.56773,19.56773,0,0,0,6.45118,4.96289,21.65465,21.65465,0,0,0,8.31689,2.03418,25.06185,25.06185,0,0,0,7.33887-1.09082,16.69886,16.69886,0,0,0,6.12744-3.42188,19.25821,19.25821,0,0,0,4.59619-6.36914,33.001,33.001,0,0,0,2.63818-10.05469l.20557-1.71289h5.75684l-1.29151,16.39746-.23974.39551a29.88316,29.88316,0,0,1-4.21778,5.42773,25.72511,25.72511,0,0,1-5.623,4.3086,29.38991,29.38991,0,0,1-7.00391,2.833A32.95216,32.95216,0,0,1,100.11344,94.54979Z"/><path class="cls-9" d="M146.02946,76.06932a17.8529,17.8529,0,0,1-6.27246-1.10156,16.12369,16.12369,0,0,1-5.1919-3.12012,14.94608,14.94608,0,0,1,.00049-22.147,16.14862,16.14862,0,0,1,5.19141-3.11914,18.36128,18.36128,0,0,1,12.52685.00146,16.20816,16.20816,0,0,1,5.166,3.11768,14.94388,14.94388,0,0,1,0,22.147,16.16852,16.16852,0,0,1-5.16553,3.11817A17.64617,17.64617,0,0,1,146.02946,76.06932Zm0-24.74512a8.52569,8.52569,0,0,0-3.37988.67286,8.21245,8.21245,0,0,0-2.72071,1.873,8.75685,8.75685,0,0,0-1.82129,2.94434,11.88877,11.88877,0,0,0,0,7.91894,8.751,8.751,0,0,0,1.82129,2.94434,8.19777,8.19777,0,0,0,2.72071,1.875,8.51136,8.51136,0,0,0,3.37988.67187,8.36042,8.36042,0,0,0,3.35059-.66894,8.269,8.269,0,0,0,2.706-1.87695,8.75617,8.75617,0,0,0,1.82227-2.94629,11.88594,11.88594,0,0,0,0-7.918,8.7648,8.7648,0,0,0-1.82227-2.94531,8.295,8.295,0,0,0-2.70557-1.876A8.381,8.381,0,0,0,146.02946,51.3242Z"/><path class="cls-9" d="M171.90055,76.11131a18.69316,18.69316,0,0,1-2.2373-.14258,18.13058,18.13058,0,0,1-2.314-.42675,13.64037,13.64037,0,0,1-2.21826-.77246,7.44079,7.44079,0,0,1-2.01514-1.30469l-.42138-.38965-.14063-.55957a7.21819,7.21819,0,0,1-.17627-1.01855,10.04633,10.04633,0,0,1-.05273-1.07129,15.20928,15.20928,0,0,1,.19238-2.29493,13.71949,13.71949,0,0,1,.59571-2.42578l.45459-1.30566h4.70556l-.24463,2.16211q-.03882.34863-.05859.582c-.00928.10742-.01416.19434-.01416.26367a2.49728,2.49728,0,0,0,.77392,2.03711,3.60786,3.60786,0,0,0,2.46924.78027h.29785a4.43659,4.43659,0,0,0,2.59082-.76367,1.73262,1.73262,0,0,0,.65235-1.501,2.07528,2.07528,0,0,0-.16211-.83106,1.91343,1.91343,0,0,0-.541-.65137l-.501-.417-7.689-5.91406a7.41086,7.41086,0,0,1-2.31738-3.26465,10.65123,10.65123,0,0,1-.56543-2.96777,7.94015,7.94015,0,0,1,.73193-3.398,8.02042,8.02042,0,0,1,2.01758-2.687,9.67179,9.67179,0,0,1,2.86914-1.707,9.80174,9.80174,0,0,1,3.55176-.64112,25.43683,25.43683,0,0,1,2.60547.1167,17.12714,17.12714,0,0,1,1.7334.26611h3.33984l.22363,9.07373h-5.12695V52.99315a1.46743,1.46743,0,0,0-.41992-1.21192,3.0297,3.0297,0,0,0-2.01563-.457,3.93952,3.93952,0,0,0-1.22558.18164,3.01877,3.01877,0,0,0-.90967.46,1.81189,1.81189,0,0,0-.48926.541.85675.85675,0,0,0-.1084.44434,2.13666,2.13666,0,0,0,.16553.78125,1.861,1.861,0,0,0,.603.67871l8.29443,6.44336a6.916,6.916,0,0,1,2.13281,3.05175,10.56218,10.56218,0,0,1,.623,3.17969,8.20587,8.20587,0,0,1-.81152,3.63379,9.32146,9.32146,0,0,1-2.09864,2.81836,9.76716,9.76716,0,0,1-3.05566,1.88574A10.053,10.053,0,0,1,171.90055,76.11131Z"/><path class="cls-9" d="M187.49381,75.47362V70.47948h2.79493c.09765-.04492.126-.06836.13867-.10938V51.87694h-4.95508v2.76367h-5.07812V44.32127l2.627.98536a6.8118,6.8118,0,0,0,.7207.20947c.36328.0918.75391.17431,1.17676.251q.64014.11646,1.30176.19483a9.50486,9.50486,0,0,0,1.09179.07178h13.43555a9.47532,9.47532,0,0,0,1.09082-.07178q.66212-.07764,1.30371-.19483c.42285-.07666.8125-.15917,1.17188-.249a7.28609,7.28609,0,0,0,.72851-.2124l2.624-.98V54.64061h-5.03711V51.876l-4.9541.001v18.5498a.14684.14684,0,0,0,.13867.05274h2.79492v4.99414Z"/><path class="cls-9" d="M220.35905,75.47362V70.47948h1.69726l-1.39453-3.38184h-7.40039l-1.42578,3.38184h1.65527v4.99414H201.01335V70.47948h2.625a1.06267,1.06267,0,0,0,.49121-.209,2.25734,2.25734,0,0,0,.7041-.92773L213.401,51.063c.27149-.57373.5166-1.11377.73145-1.627.17089-.4126.32812-.852.46582-1.30371a4.54258,4.54258,0,0,0,.19824-.874l.15332-1.77735h3.97363l10.80567,23.93213a2.02424,2.02424,0,0,0,.626.87012.96387.96387,0,0,0,.45117.19629h2.625v4.99414Zm-2.10449-14.22071-1.25-3.042-1.28907,3.042Z"/></g><g class="cls-3"><path class="cls-2" d="M100.11345,93.68587A33.883,33.883,0,0,1,87.63933,91.43a28.458,28.458,0,0,1-9.89111-6.45117,29.54937,29.54937,0,0,1-6.44336-10.00879,35.163,35.163,0,0,1-2.29834-12.97754,35.2543,35.2543,0,0,1,2.2539-12.80371,29.34254,29.34254,0,0,1,6.3584-10.01025,27.9,27.9,0,0,1,9.9419-6.458,35.77184,35.77184,0,0,1,12.97216-2.2539A36.63738,36.63738,0,0,1,112.113,32.2a39.72537,39.72537,0,0,1,9.13916,4.313l.41211.26905,2,14.38037H119.57l-.20605-.81543a17.172,17.172,0,0,0-6.77832-10.36182,20.704,20.704,0,0,0-11.96924-3.5,22.18248,22.18248,0,0,0-9.08008,1.793,19.19387,19.19387,0,0,0-6.83154,5.084A23.2788,23.2788,0,0,0,80.34,51.38021a34.0963,34.0963,0,0,0-1.541,10.52832,32.07471,32.07471,0,0,0,1.61865,10.4668,24.45143,24.45143,0,0,0,4.4541,7.99609,20.42562,20.42562,0,0,0,6.73389,5.18066,22.52051,22.52051,0,0,0,8.64648,2.11817,26.05417,26.05417,0,0,0,7.63721-1.12891,17.55668,17.55668,0,0,0,6.44189-3.59668,20.10348,20.10348,0,0,0,4.80909-6.65136A33.8594,33.8594,0,0,0,121.85466,65.973l.11426-.95117h4.05566l-1.20215,15.26074-.1333.21973a28.99951,28.99951,0,0,1-4.09521,5.27051,24.87476,24.87476,0,0,1-5.43506,4.16406,28.5173,28.5173,0,0,1-6.79883,2.748A32.08615,32.08615,0,0,1,100.11345,93.68587Z"/><path class="cls-2" d="M146.02947,75.2054a16.97874,16.97874,0,0,1-5.96973-1.04687,15.2461,15.2461,0,0,1-4.91553-2.95215,14.08245,14.08245,0,0,1,0-20.86426,15.29362,15.29362,0,0,1,4.91553-2.95166,16.99744,16.99744,0,0,1,5.96973-1.04589,16.82339,16.82339,0,0,1,5.95019,1.04687,15.35076,15.35076,0,0,1,4.8916,2.95068,14.08,14.08,0,0,1,0,20.86426,15.306,15.306,0,0,1-4.8916,2.95117A16.79223,16.79223,0,0,1,146.02947,75.2054Zm0-24.74511a9.38761,9.38761,0,0,0-3.72022.74219,9.08474,9.08474,0,0,0-3.00439,2.07031,9.61468,9.61468,0,0,0-2.00391,3.23242,12.75155,12.75155,0,0,0,0,8.53809,9.60509,9.60509,0,0,0,2.00391,3.23242,9.06314,9.06314,0,0,0,3.00439,2.07129,9.369,9.369,0,0,0,3.72022.74218,9.2281,9.2281,0,0,0,3.69433-.74023,9.12261,9.12261,0,0,0,2.98682-2.07324,9.61449,9.61449,0,0,0,2.00439-3.2334,12.74871,12.74871,0,0,0,0-8.53711,9.63672,9.63672,0,0,0-2.00488-3.2334,9.11992,9.11992,0,0,0-6.68066-2.81152Z"/><path class="cls-2" d="M171.90056,75.2474a17.93212,17.93212,0,0,1-2.13379-.13575,17.29555,17.29555,0,0,1-2.20459-.40722,12.73635,12.73635,0,0,1-2.07568-.72168,6.58,6.58,0,0,1-1.78223-1.15039l-.23437-.2168-.07813-.31055a6.34821,6.34821,0,0,1-.15478-.89648,9.26411,9.26411,0,0,1-.04834-.98242,14.36306,14.36306,0,0,1,.18261-2.16309,12.86342,12.86342,0,0,1,.55762-2.27441l.25244-.72461h3.12451l-.13574,1.20117q-.041.36328-.061.60645c-.01172.13574-.01709.24707-.01709.33593a3.33707,3.33707,0,0,0,1.07226,2.69043,4.42526,4.42526,0,0,0,3.03467.99121h.29785a5.257,5.257,0,0,0,3.13037-.95312,2.58041,2.58041,0,0,0,.97656-2.17578,2.91775,2.91775,0,0,0-.23144-1.16992,2.70886,2.70886,0,0,0-.78272-.97657l-.501-.417-7.71485-5.93457a6.46837,6.46837,0,0,1-2.02441-2.85351,9.78366,9.78366,0,0,1-.522-2.72559,7.01608,7.01608,0,0,1,.65234-3.00293,7.151,7.151,0,0,1,1.80127-2.39941,8.80616,8.80616,0,0,1,2.61426-1.55323,8.93826,8.93826,0,0,1,3.23926-.583,24.5712,24.5712,0,0,1,2.51513.1123,15.85908,15.85908,0,0,1,1.73047.27051h2.59033l.18067,7.34619h-3.37744V52.99349A2.34815,2.34815,0,0,0,175.068,51.139a3.89783,3.89783,0,0,0-2.59375-.67871,4.81368,4.81368,0,0,0-1.49365.22363,3.88312,3.88312,0,0,0-1.16651.5957,2.68779,2.68779,0,0,0-.71582.80078,1.7222,1.7222,0,0,0-.2207.8711,2.98153,2.98153,0,0,0,.22461,1.0957,2.70753,2.70753,0,0,0,.86621,1.03809l8.30566,6.45215a6.00353,6.00353,0,0,1,1.84864,2.65918,9.70855,9.70855,0,0,1,.57422,2.91894,7.29831,7.29831,0,0,1-.72608,3.22852,8.4616,8.4616,0,0,1-1.90527,2.55761,8.90571,8.90571,0,0,1-2.78662,1.71778A9.19122,9.19122,0,0,1,171.90056,75.2474Z"/><path class="cls-2" d="M188.35808,74.6097V71.34408h1.93066a.89791.89791,0,0,0,.67383-.25,1.04163,1.04163,0,0,0,.3291-.64746V51.013h-6.0625a.605.605,0,0,0-.43652.20117.68377.68377,0,0,0-.18457.50391v2.05859H181.258V45.5682l1.45947.54736a7.71493,7.71493,0,0,0,.81641.23926c.37793.09521.78711.18164,1.22948.26221q.668.12157,1.35646.20263a10.30763,10.30763,0,0,0,1.19238.07764h13.43555a10.30777,10.30777,0,0,0,1.19238-.07764q.68847-.08057,1.35645-.20263c.44335-.08057.85156-.167,1.22753-.26123a8.02154,8.02154,0,0,0,.82032-.24073l1.458-.54443v8.20605h-3.30859V51.7181a.64518.64518,0,0,0-.18848-.48535.71962.71962,0,0,0-.53418-.2207l-5.96.001v19.54a.80005.80005,0,0,0,.292.52637.96861.96861,0,0,0,.71093.26465h1.93067V74.6097Z"/><path class="cls-2" d="M221.22331,74.6097V71.34408h1.76075c.02148,0,.07324,0,.17578-.08692a.4.4,0,0,0,.01953-.15136,1.13461,1.13461,0,0,0-.07227-.3379l-1.86719-4.53417h-8.55175l-1.88965,4.48339a.92973.92973,0,0,0-.085.38868.45033.45033,0,0,0,.02344.17675c.07226.06153.10644.06153.1289.06153h1.76074V74.6097h-10.749V71.34408h1.76073a1.86156,1.86156,0,0,0,.95314-.34278,3.11226,3.11226,0,0,0,1.01465-1.27148L214.18327,51.43c.27637-.584.52637-1.13574.7461-1.66064.18359-.44336.35058-.91162.49512-1.38525a5.32436,5.32436,0,0,0,.23339-1.05225l.085-.9873h2.62305l10.57617,23.42431a2.891,2.891,0,0,0,.94336,1.23926,1.76241,1.76241,0,0,0,.9209.33594h1.76074V74.6097Zm-1.67968-12.49219-2.52735-6.14941-2.60547,6.14941Z"/></g><g id="Layer_5" data-name="Layer 5"><path class="cls-10" d="M146.02946,73.43944a16.15664,16.15664,0,0,1-5.67871-.99414,14.4292,14.4292,0,0,1-4.65039-2.791,13.25273,13.25273,0,0,1,0-19.63183,14.46362,14.46362,0,0,1,4.65039-2.791,16.16206,16.16206,0,0,1,5.67871-.99316,15.99021,15.99021,0,0,1,5.65723.99365,14.5158,14.5158,0,0,1,4.6289,2.79053,13.25159,13.25159,0,0,1,0,19.63183,14.49386,14.49386,0,0,1-4.62842,2.791A15.98724,15.98724,0,0,1,146.02946,73.43944Zm0-24.74512a10.202,10.202,0,0,0-4.04688.80908,9.90548,9.90548,0,0,0-3.27685,2.25928,10.44229,10.44229,0,0,0-2.17969,3.50977,13.57333,13.57333,0,0,0,0,9.13183,10.423,10.423,0,0,0,2.17969,3.50977,9.90672,9.90672,0,0,0,3.27685,2.26074,10.21879,10.21879,0,0,0,4.04688.80859,10.06176,10.06176,0,0,0,4.02441-.80859,9.94964,9.94964,0,0,0,3.25635-2.26074,10.442,10.442,0,0,0,2.17969-3.50977,13.57333,13.57333,0,0,0,0-9.13183,10.46134,10.46134,0,0,0-2.17969-3.50977,9.94772,9.94772,0,0,0-7.28076-3.06836Z"/><path class="cls-2" d="M146.02928,46.48851a15.66979,15.66979,0,0,1,5.56933.97754,14.20567,14.20567,0,0,1,4.54932,2.74219,13.00161,13.00161,0,0,1,0,19.26074,14.17091,14.17091,0,0,1-4.54932,2.74219,15.64876,15.64876,0,0,1-5.56933.97851,15.82232,15.82232,0,0,1-5.59131-.97851,14.11335,14.11335,0,0,1-4.57031-2.74219,13.00275,13.00275,0,0,1,0-19.26074,14.14761,14.14761,0,0,1,4.57031-2.74219,15.84362,15.84362,0,0,1,5.59131-.97754m0,24.74512a10.19171,10.19171,0,0,0,7.46142-3.14649,10.64123,10.64123,0,0,0,2.23242-3.59277,13.82355,13.82355,0,0,0,0-9.31152,10.66052,10.66052,0,0,0-2.23242-3.59278,10.196,10.196,0,0,0-7.46142-3.14551,10.41031,10.41031,0,0,0-4.14551.82911,10.11214,10.11214,0,0,0-3.35889,2.3164,10.63785,10.63785,0,0,0-2.23242,3.59278,13.82355,13.82355,0,0,0,0,9.31152,10.61865,10.61865,0,0,0,2.23242,3.59277,10.10055,10.10055,0,0,0,3.35889,2.31739,10.41047,10.41047,0,0,0,4.14551.8291m0-25.24512a16.41483,16.41483,0,0,0-5.7663,1.00916,14.7102,14.7102,0,0,0-4.73029,2.83932,13.50164,13.50164,0,0,0,.00019,20.00336,14.67481,14.67481,0,0,0,4.7301,2.8392,16.39271,16.39271,0,0,0,5.7663,1.01013,16.21738,16.21738,0,0,0,5.74585-1.01071,14.733,14.733,0,0,0,4.70782-2.83884,13.50278,13.50278,0,0,0,0-20.00305,14.76843,14.76843,0,0,0-4.70782-2.83883,16.23787,16.23787,0,0,0-5.74585-1.00974Zm0,24.74512a9.96154,9.96154,0,0,1-3.94855-.78867,9.65014,9.65014,0,0,1-3.19458-2.20346,10.17188,10.17188,0,0,1-2.12683-3.42615,13.3259,13.3259,0,0,1-.00006-8.95337,10.19112,10.19112,0,0,1,2.12689-3.42627,9.6612,9.6612,0,0,1,3.19452-2.20245,9.96172,9.96172,0,0,1,3.94861-.7887,9.696,9.696,0,0,1,7.1004,2.99143,10.21417,10.21417,0,0,1,2.12671,3.42627,13.32574,13.32574,0,0,1-.00012,8.95309,10.19509,10.19509,0,0,1-2.12677,3.42606,9.69172,9.69172,0,0,1-7.10022,2.99222Z"/><path class="cls-11" d="M171.90055,73.48143a17.093,17.093,0,0,1-2.03418-.12988,16.48253,16.48253,0,0,1-2.09912-.3877,11.80454,11.80454,0,0,1-1.939-.67383,5.77509,5.77509,0,0,1-1.55908-1.001l-.0542-.05078-.01807-.07129a5.43915,5.43915,0,0,1-.13428-.78028,8.38848,8.38848,0,0,1-.04394-.89648,13.536,13.536,0,0,1,.17285-2.03711,12.03087,12.03087,0,0,1,.521-2.12695l.0586-.168h1.60547l-.03125.27832c-.02881.252-.04932.46191-.06348.62988-.01367.16211-.02.29785-.02.40527A4.17172,4.17172,0,0,0,167.62077,69.79a5.28411,5.28411,0,0,0,3.57812,1.19336h.29785a6.07957,6.07957,0,0,0,3.64844-1.13574,3.39024,3.39024,0,0,0,1.28809-2.82324,3.7956,3.7956,0,0,0-.29785-1.49609,3.51121,3.51121,0,0,0-1.01563-1.28809l-.52539-.4375-7.71435-5.93457a5.60827,5.60827,0,0,1-1.74317-2.457,8.97557,8.97557,0,0,1-.48047-2.49414,6.17319,6.17319,0,0,1,.57617-2.623,6.31552,6.31552,0,0,1,1.59327-2.12305,7.96421,7.96421,0,0,1,2.36962-1.40576,8.10585,8.10585,0,0,1,2.939-.52685,23.5753,23.5753,0,0,1,2.42773.10791,14.60453,14.60453,0,0,1,1.75391.28173l1.84473-.00683.13867,5.68652h-1.69629v-.25a3.1725,3.1725,0,0,0-.97949-2.47168,4.65028,4.65028,0,0,0-3.14942-.8916,5.64556,5.64556,0,0,0-1.75048.26416,4.72707,4.72707,0,0,0-1.41407.72559,3.52642,3.52642,0,0,0-.93359,1.05127,2.56561,2.56561,0,0,0-.32861,1.28027,3.85365,3.85365,0,0,0,.28125,1.39746,3.5074,3.5074,0,0,0,1.11914,1.38379l8.3164,6.46a5.16337,5.16337,0,0,1,1.57617,2.28223,8.862,8.862,0,0,1,.52637,2.668,6.45094,6.45094,0,0,1-.64355,2.83984,7.61622,7.61622,0,0,1-1.71875,2.30664,8.093,8.093,0,0,1-2.52832,1.55762A8.37379,8.37379,0,0,1,171.90055,73.48143Z"/><path class="cls-2" d="M172.13426,46.48851a23.30456,23.30456,0,0,1,2.40185.10645,14.30427,14.30427,0,0,1,1.72217.27636h1.6582l.12744,5.18653h-1.19043a3.39538,3.39538,0,0,0-1.063-2.65723,4.85428,4.85428,0,0,0-3.31641-.95606,5.86891,5.86891,0,0,0-1.82812.27637,4.94333,4.94333,0,0,0-1.48829.76465,3.757,3.757,0,0,0-.999,1.127,2.79217,2.79217,0,0,0-.36133,1.40332,4.07831,4.07831,0,0,0,.29834,1.48829,3.72537,3.72537,0,0,0,1.19531,1.4873l8.32032,6.46289a4.89053,4.89053,0,0,1,1.49365,2.169,8.57132,8.57132,0,0,1,.51221,2.59277,6.16176,6.16176,0,0,1-.61866,2.72168,7.328,7.328,0,0,1-1.66259,2.23144,7.80358,7.80358,0,0,1-2.45166,1.50977,8.09522,8.09522,0,0,1-2.98389.55273,16.73,16.73,0,0,1-2.00439-.12793,16.12777,16.12777,0,0,1-2.06739-.38183,11.54279,11.54279,0,0,1-1.89746-.65918,5.48885,5.48885,0,0,1-1.49219-.957,5.25831,5.25831,0,0,1-.12793-.74414,8.21146,8.21146,0,0,1-.04248-.8711,13.22289,13.22289,0,0,1,.16993-1.999,11.727,11.727,0,0,1,.51025-2.083h1.148q-.04322.38232-.064.6377c-.01464.16992-.021.3125-.021.42578a4.39273,4.39273,0,0,0,1.44531,3.50683,5.50018,5.50018,0,0,0,3.7417,1.25489h.29785a6.3015,6.3015,0,0,0,3.80518-1.19043,3.66011,3.66011,0,0,0,1.38183-3.01856,4.00762,4.00762,0,0,0-.31884-1.59472,3.742,3.742,0,0,0-1.08448-1.38184h.04248l-8.29052-6.37793a5.32653,5.32653,0,0,1-1.65821-2.33789,8.66938,8.66938,0,0,1-.46777-2.42383,5.88928,5.88928,0,0,1,.55273-2.50879,6.04638,6.04638,0,0,1,1.53077-2.04,7.69214,7.69214,0,0,1,2.29589-1.36132,7.8259,7.8259,0,0,1,2.84864-.50977m0-.5a8.3568,8.3568,0,0,0-3.02912.54349,8.22709,8.22709,0,0,0-2.44384,1.45059,6.57123,6.57123,0,0,0-1.65583,2.20648,6.41049,6.41049,0,0,0-.59924,2.71936,9.21921,9.21921,0,0,0,.49347,2.582,5.83807,5.83807,0,0,0,1.80639,2.55869l7.92475,6.09744.32953.28574a3.26769,3.26769,0,0,1,.94488,1.19476,3.52951,3.52951,0,0,1,.27832,1.39755,3.15756,3.15756,0,0,1-1.19446,2.62833,5.85182,5.85182,0,0,1-3.51007,1.081l-.28033-.0003a5.0412,5.0412,0,0,1-3.41382-1.13236,3.88386,3.88386,0,0,1-1.27319-3.12936c0-.10187.006-.23.01916-.38284q.02088-.25118.06263-.62449l.06286-.55615H164.5933l-.11682.33563a12.28434,12.28434,0,0,0-.53229,2.17167,13.7972,13.7972,0,0,0-.17566,2.07473,8.7437,8.7437,0,0,0,.04535.92441,5.76352,5.76352,0,0,0,.14026.81308l.03613.14343.1084.10068a6.0109,6.0109,0,0,0,1.62677,1.04639,12.10222,12.10222,0,0,0,1.97931.68789,16.70841,16.70841,0,0,0,2.1319.39386,17.3074,17.3074,0,0,0,2.06372.13147,8.62776,8.62776,0,0,0,3.16656-.58731,8.33778,8.33778,0,0,0,2.607-1.60672,7.86036,7.86036,0,0,0,1.77466-2.38211,6.68552,6.68552,0,0,0,.66858-2.93948,9.12363,9.12363,0,0,0-.5412-2.76053,5.40711,5.40711,0,0,0-1.6452-2.3858l-8.33307-6.47315a3.24953,3.24953,0,0,1-1.03632-1.27444,3.60422,3.60422,0,0,1-.264-1.30628,2.28,2.28,0,0,1,.29615-1.15643,3.276,3.276,0,0,1,.86871-.97726,4.46912,4.46912,0,0,1,1.33844-.68573,5.39985,5.39985,0,0,1,1.67346-.25187,4.418,4.418,0,0,1,2.98206.82782,2.89307,2.89307,0,0,1,.89733,2.28547v.5h2.20289l-.01264-.5123-.12744-5.1865-.012-.48773h-2.089a15.13579,15.13579,0,0,0-1.726-.27353,23.89394,23.89394,0,0,0-2.45507-.10928Z"/><path class="cls-12" d="M189.18815,72.84373V71.23827h1.10059a1.716,1.716,0,0,0,1.25-.48243,1.88,1.88,0,0,0,.584-1.207l-.001-20.30175h-6.89257a1.46757,1.46757,0,0,0-1.04883.47119,1.504,1.504,0,0,0-.40235,1.064v1.22852h-1.69043V45.82957l.3379.127a8.70008,8.70008,0,0,0,.9082.26758q.5874.14795,1.28125.27295.69433.126,1.4082.21093a11.20549,11.20549,0,0,0,1.28906.083h13.43555a11.20535,11.20535,0,0,0,1.28906-.083q.71486-.08423,1.40821-.21093.69287-.126,1.28125-.27295a8.70733,8.70733,0,0,0,.9082-.26807l.33789-.126v6.18067h-1.64844V50.78221a1.46241,1.46241,0,0,0-.41894-1.05957,1.55125,1.55125,0,0,0-1.08789-.47607l-6.83594.00049V69.61717a1.6198,1.6198,0,0,0,.55762,1.13477,1.78762,1.78762,0,0,0,1.27539.48633h1.10058v1.60546Z"/><path class="cls-2" d="M205.72215,46.19066V51.761h-1.148v-.97851a1.71725,1.71725,0,0,0-.48877-1.23243,1.80555,1.80555,0,0,0-1.2544-.55273h-7.10009V69.61742a1.88424,1.88424,0,0,0,.63769,1.31836,2.04246,2.04246,0,0,0,1.44531.55273h.85059V72.594h-9.22607V71.48851h.85009a1.97073,1.97073,0,0,0,1.42432-.55273,2.1409,2.1409,0,0,0,.65918-1.36036V48.9973H185.229a1.728,1.728,0,0,0-1.23291.55273,1.7556,1.7556,0,0,0-.46777,1.23243V51.761h-1.19043V46.19066a8.84412,8.84412,0,0,0,.93555.27637q.59472.14941,1.29638.27636.70167.12744,1.42432.21289a11.36818,11.36818,0,0,0,1.31836.085H200.748a11.3803,11.3803,0,0,0,1.31787-.085q.72216-.085,1.42431-.21289.70167-.12744,1.29688-.27636a8.93727,8.93727,0,0,0,.93506-.27637m-23.88428-.7215V52.261h2.19043V50.78246a1.2614,1.2614,0,0,1,.33581-.894,1.23765,1.23765,0,0,1,.89258-.39193l6.61536.0007V69.54753a1.63825,1.63825,0,0,1-.5058,1.02786,1.47707,1.47707,0,0,1-1.0777.41312h-1.35009V73.094h10.22607V70.98851h-1.35059a1.54726,1.54726,0,0,1-1.10461-.41867,1.3915,1.3915,0,0,1-.47913-.97961l.00074-20.09293H202.831a1.29574,1.29574,0,0,1,.89319.39844,1.22359,1.22359,0,0,1,.35.88672V52.261h2.148V45.46971l-.67523.25266a8.48919,8.48919,0,0,1-.88056.25946c-.38275.09591-.80829.18655-1.2655.26962-.45972.0835-.92853.15356-1.39337.20825a10.93683,10.93683,0,0,1-1.25946.08154H187.31248a10.92972,10.92972,0,0,1-1.26-.08154c-.464-.05453-.93274-.1246-1.39331-.20825-.46069-.08377-.886-.17441-1.26392-.26935a8.4072,8.4072,0,0,1-.88183-.25961l-.67554-.25333Z"/><path class="cls-13" d="M222.05338,72.84373V71.23827h.93067a1.07511,1.07511,0,0,0,.71-.28125.963.963,0,0,0,.31543-.78711,1.9623,1.9623,0,0,0-.11523-.60059l-2.09864-5.10156h-9.6582L210.03385,69.459a1.734,1.734,0,0,0-.15039.71094.98872.98872,0,0,0,.98242,1.06836h.93067v1.60546h-9.08887V71.23827h.93067a2.65925,2.65925,0,0,0,1.39648-.47071,3.9112,3.9112,0,0,0,1.31348-1.60254l8.58593-18.31884q.42188-.88843.76075-1.69092c.19531-.47363.37109-.9668.52343-1.46485a6.22146,6.22146,0,0,0,.26661-1.22363l.01953-.22851h1.32519l10.35547,22.93652a3.69889,3.69889,0,0,0,1.24805,1.59375,2.5627,2.5627,0,0,0,1.373.46973h.93067v1.60546Zm-1.27148-10.832L217.027,52.87694,213.1569,62.0117Z"/><path class="cls-2" d="M217.66892,46.48851,227.958,69.27757a3.91872,3.91872,0,0,0,1.33935,1.70117,2.788,2.788,0,0,0,1.50928.50977h.68066V72.594H222.3032V71.48851h.68067a1.3308,1.3308,0,0,0,.87158-.33984,1.20783,1.20783,0,0,0,.40381-.97852,2.1875,2.1875,0,0,0-.12744-.67969L221.96336,64.218h-9.9917l-2.16846,5.14453a1.971,1.971,0,0,0-.16992.80762,1.23718,1.23718,0,0,0,1.23291,1.31836h.68018V72.594H202.958V71.48851h.68017a2.89089,2.89089,0,0,0,1.53076-.50977,4.12872,4.12872,0,0,0,1.40332-1.70117l8.58838-18.32519q.42408-.89209.76514-1.7002.29736-.72216.53174-1.48828a6.417,6.417,0,0,0,.27637-1.27539h.93505M212.77976,62.262h8.37549l-4.124-10.03418L212.77976,62.262m5.212-16.27344h-1.71735l-.03881.45776a5.96189,5.96189,0,0,1-.25647,1.17194c-.15076.49292-.32434.97882-.51575,1.4436-.21784.51718-.47217,1.08231-.75433,1.67591l-8.5896,18.32766a3.65173,3.65173,0,0,1-1.21808,1.491,2.42072,2.42072,0,0,1-1.26325.43216H202.458V73.094h9.58838V70.98851h-1.18018a.75028.75028,0,0,1-.51794-.21353.72018.72018,0,0,1-.215-.60483,1.47851,1.47851,0,0,1,.12683-.60455l2.0434-4.8476h9.32483l2.04107,4.96265a1.66189,1.66189,0,0,1,.08985.4895.69956.69956,0,0,1-.22589.596.84059.84059,0,0,1-.5495.22232H221.8032V73.094h10.18408V70.98851h-1.18066a2.31782,2.31782,0,0,1-1.23737-.42935,3.45905,3.45905,0,0,1-1.15765-1.49194l-10.287-22.78446-.13281-.29425ZM213.53465,61.762l3.48956-8.236,3.385,8.236Z"/><path class="cls-14" d="M100.11344,91.91991a33.053,33.053,0,0,1-12.16992-2.19825A27.63528,27.63528,0,0,1,78.33805,83.459a28.7246,28.7246,0,0,1-6.26123-9.72949,34.34033,34.34033,0,0,1-2.24023-12.67285,34.42681,34.42681,0,0,1,2.19775-12.50342,28.51417,28.51417,0,0,1,6.17725-9.73,27.06365,27.06365,0,0,1,9.6499-6.26514,34.93874,34.93874,0,0,1,12.67139-2.19775,35.82906,35.82906,0,0,1,11.31787,1.69043A38.94843,38.94843,0,0,1,120.799,36.272l.09522.0625,1.8164,13.062H120.216l-.04736-.18848a17.97477,17.97477,0,0,0-7.11279-10.84277,21.51671,21.51671,0,0,0-12.43946-3.64649,23.00159,23.00159,0,0,0-9.418,1.86524,20.0161,20.0161,0,0,0-7.12451,5.30225,24.10852,24.10852,0,0,0-4.52343,8.30224,34.91761,34.91761,0,0,0-1.58155,10.78418A32.90769,32.90769,0,0,0,79.633,71.71a25.26461,25.26461,0,0,0,4.6084,8.26562,21.24129,21.24129,0,0,0,7.00537,5.38867,23.33153,23.33153,0,0,0,8.96338,2.19824,26.88924,26.88924,0,0,0,7.92334-1.16406,18.3844,18.3844,0,0,0,6.74463-3.76562,20.91853,20.91853,0,0,0,5.01319-6.9209,34.69028,34.69028,0,0,0,2.78759-10.57617l.02637-.21973h2.42139l-1.11621,14.169-.03077.05078a28.14159,28.14159,0,0,1-3.978,5.11914,24.01371,24.01371,0,0,1-5.2544,4.02539,27.671,27.671,0,0,1-6.60156,2.667A31.25385,31.25385,0,0,1,100.11344,91.91991Z"/><path class="cls-2" d="M100.53269,30.61058a35.41251,35.41251,0,0,1,11.23877,1.67773,38.49377,38.49377,0,0,1,8.89063,4.19336l1.76123,12.665h-2.0127a18.1359,18.1359,0,0,0-7.21338-10.9873,21.66276,21.66276,0,0,0-12.581-3.69043,23.14846,23.14846,0,0,0-9.51953,1.88672,20.17786,20.17786,0,0,0-7.21289,5.36816,24.23483,24.23483,0,0,0-4.57129,8.3877,35.00163,35.00163,0,0,0-1.59375,10.86133,33.00044,33.00044,0,0,0,1.67773,10.81933,25.39673,25.39673,0,0,0,4.65479,8.3457,21.39426,21.39426,0,0,0,7.0874,5.45215,23.47326,23.47326,0,0,0,9.05859,2.22266,27.04627,27.04627,0,0,0,8.00977-1.17481,18.54814,18.54814,0,0,0,6.83545-3.8164,21.07068,21.07068,0,0,0,5.07471-7.00293,34.76739,34.76739,0,0,0,2.80957-10.65235h1.9292L123.7656,79.00609a27.7751,27.7751,0,0,1-3.94238,5.07422,23.69746,23.69746,0,0,1-5.20019,3.9834,27.34315,27.34315,0,0,1-6.542,2.64257,30.87794,30.87794,0,0,1-7.96777.96387,32.6629,32.6629,0,0,1-12.07812-2.18066,27.2643,27.2643,0,0,1-9.51954-6.20606,28.336,28.336,0,0,1-6.20651-9.64551,33.93483,33.93483,0,0,1-2.22265-12.581A34.02579,34.02579,0,0,1,72.2671,48.64378a28.13691,28.13691,0,0,1,6.123-9.6455,26.69789,26.69789,0,0,1,9.56152-6.207,34.53882,34.53882,0,0,1,12.58105-2.18066m0-.5a35.19269,35.19269,0,0,0-12.7619,2.21454,27.321,27.321,0,0,0-9.738,6.32342A28.7634,28.7634,0,0,0,71.801,48.46291a34.68046,34.68046,0,0,0-2.21453,12.594,34.59022,34.59022,0,0,0,2.25772,12.765,28.96572,28.96572,0,0,0,6.316,9.81321A27.88339,27.88339,0,0,0,87.852,89.95473a33.30971,33.30971,0,0,0,12.26129,2.21542,31.51709,31.51709,0,0,0,8.09668-.98077,27.97294,27.97294,0,0,0,6.66126-2.69159,24.30334,24.30334,0,0,0,5.30889-4.06729,28.40063,28.40063,0,0,0,4.013-5.16507l.06165-.1016.00934-.11847,1.09033-13.83984.04248-.53928h-2.91376l-.05285.44043a34.43764,34.43764,0,0,1-2.76544,10.49888,20.67859,20.67859,0,0,1-4.95154,6.83959A18.13368,18.13368,0,0,1,108.06,86.16a26.67483,26.67483,0,0,1-7.8628,1.15271A23.0612,23.0612,0,0,1,91.355,85.1393,20.9949,20.9949,0,0,1,84.43131,79.813a25.01719,25.01719,0,0,1-4.56213-8.18368,32.658,32.658,0,0,1-1.65045-10.65646A34.66424,34.66424,0,0,1,79.788,50.2661a23.85322,23.85322,0,0,1,4.47571-8.2172,19.77148,19.77148,0,0,1,7.0365-5.23651,22.75577,22.75577,0,0,1,9.316-1.84341A21.27015,21.27015,0,0,1,112.914,38.57146a17.73136,17.73136,0,0,1,7.01184,10.69787l.09546.37738h2.97632l-.0791-.56887-1.76123-12.665-.03137-.22553-.19074-.12439a39.17684,39.17684,0,0,0-9.00555-4.24887,36.07163,36.07163,0,0,0-11.397-1.70343Z"/></g></g><g id="Layer_4" data-name="Layer 4"><path class="cls-15" d="M215.23583,38.106c-.00523-.1635-.02186-.32392-.02325-.48835a23.20818,23.20818,0,0,1,46.4146-.40506c.00262.29937-.00208.597-.0117.89341h-.31731a22.8952,22.8952,0,0,0-45.75658,0Zm54.6021-1.0924c-2.99916-.256-5.99408-.38381-5.99408-.38381l.05758,2.0674,82.01342-1.06907S272.8367,37.25688,269.83793,37.01363Zm-.33232-3.16012s-1.49969-.13148-2.99076-.19983c-1.492-.07452-2.97368-.08622-2.97368-.08622s.07652.49235.15319.98471a4.37077,4.37077,0,0,1,.08383.6801l.01316.31223s1.44812-.36473,2.89131-.79211C268.10283,34.334,269.50561,33.85351,269.50561,33.85351Zm5.21575-5.16848s-2.99015.35056-5.94835.82782c-2.96152.4648-5.8877,1.0553-5.8877,1.0553l.49959,1.92715s2.86083-.83152,5.69456-1.79051C271.91565,29.75849,274.72136,28.685,274.72136,28.685Zm-7.02859-2.15886s-1.47483.22832-2.926.51621c-.72614.14211-1.4475.29606-1.98612.41677-.54062.125-.90111.2083-.90111.2083l.68457,1.86911s1.30163-.69488,2.58316-1.45066C266.43086,27.33621,267.69277,26.52617,267.69277,26.52617Zm3.84546-6.28544s-.69835.269-1.7458.67248c-1.043.40822-2.42828.96762-3.81936,1.55966-2.77622,1.17184-5.48833,2.45646-5.48833,2.45646l.26219.42415a1.91516,1.91516,0,0,1,.16166.3016l.06627.14087.429.89888s2.58833-1.50247,5.11976-3.12209C269.06083,21.96458,271.53823,20.24073,271.53823,20.24073Zm-7.33943-.4053s-1.38923.58435-2.74144,1.22011c-1.356.63084-2.67376,1.31218-2.67376,1.31218l.60089.79672a4.18585,4.18585,0,0,1,.37727.57172l.16012.26727s1.10864-.99564,2.18326-2.04516C263.19384,20.9069,264.1988,19.83543,264.1988,19.83543Zm-1.84964-2.58408c2.06818-2.15856,4.05145-4.414,4.05145-4.414s-2.48271,1.70361-4.8792,3.50328c-2.40519,1.79021-4.72178,3.67411-4.72178,3.67411l.67025.74c.169.18367.338.36742.46472.50521a2.17914,2.17914,0,0,1,.20407.23563s.535-.52468,1.33735-1.31179C260.26951,19.396,261.31765,18.33351,262.34916,17.25135Zm-3.173-3.053s-1.2001.88679-2.35216,1.81484c-.57749.46272-1.1452.93352-1.56658,1.29023-.423.3635-.705.6059-.705.6059a2.19273,2.19273,0,0,1,.23555.20407c.13787.12671.32154.29575.50529.46472.37.33516.73991.67025.73991.67025s.82922-1.221,1.61293-2.48594C258.43442,15.5017,259.17619,14.19831,259.17619,14.19831Zm.49543-7.35144s-1.98766,2.22013-3.9015,4.56151c-1.9173,2.32374-3.7256,4.7177-3.7256,4.7177s.857.51029.839.53738l.79673.6009s1.597-2.53182,3.09014-5.1407C258.27392,9.52233,259.67162,6.84687,259.67162,6.84687Zm-6.95323,3.93567.258-.88994s-.96023,1.16083-1.86334,2.35053c-.90888,1.18685-1.76,2.401-1.76,2.401s.44948.21446.89888.429a3.69718,3.69718,0,0,1,.60143.32654l.26519.16358s.52184-1.39654.98856-2.82518C252.34489,12.01982,252.56174,11.31346,252.71839,10.78254Zm-1.039-8.1136s-1.4087,2.66114-2.69486,5.36786c-1.29839,2.7024-2.47316,5.44707-2.47316,5.44707l1.86911.68449.5748-1.77789c.3377-1.06592.7734-2.49341,1.185-3.93067C250.97075,5.588,251.67941,2.66894,251.67941,2.66894Zm-8.12669,9.99411,1.92716.49959s.1665-1.46575.27158-2.94951c.11116-1.482.16042-2.98037.16042-2.98037s-.64916,1.34412-1.23589,2.70256C244.083,11.29291,243.55272,12.66305,243.55272,12.66305ZM241.5994,6.33958c-.61175,2.953-1.09594,5.917-1.09594,5.917l.49974.02063.49258.07644.98479.15319s.23217-2.98276.33578-5.98515c.11647-3.0007.10407-6.01771.10407-6.01771S242.196,3.40909,241.5994,6.33958Zm-3.1796-.04619s-.3093,1.47907-.55578,2.957c-.25272,1.47822-.44263,2.95366-.44263,2.95366l.99841-.05758.99841.05758s-.1899-1.47544-.44262-2.95366C238.7291,7.77246,238.4198,6.29339,238.4198,6.29339ZM233.91918.504s-.01239,3.017.104,6.01771c.10369,3.00239.33586,5.98515.33586,5.98515l.98478-.15319a4.36131,4.36131,0,0,1,.68-.0839l.3123-.01317s-.48419-2.96405-1.09594-5.917C234.64363,3.40909,233.91918.504,233.91918.504Zm-2.99145,6.72876s.04918,1.49838.16042,2.98037c.105,1.48376.27158,2.94951.27158,2.94951l1.92715-.49959s-.53038-1.37014-1.12334-2.72773C231.57688,8.57688,230.92773,7.23276,230.92773,7.23276ZM225.1602,2.66894s.70858,2.919,1.5391,5.79086c.41153,1.43726.8473,2.86475,1.185,3.93067.34478,1.06669.57472,1.77789.57472,1.77789-.00385-.00939.23324-.08668.46695-.17205l.46818-.16866.93406-.34378s-1.17477-2.74467-2.47316-5.44707C226.56882,5.33008,225.1602,2.66894,225.1602,2.66894Zm-1.297,7.22366s.10315.356.25795.88994c.15673.53092.37358,1.23728.61121,1.95549.4668,1.42864.98856,2.82518.98856,2.82518l.26526-.16358a3.70005,3.70005,0,0,1,.60136-.32654c.44948-.21454.899-.429.899-.429s-.85107-1.21411-1.76-2.401C224.82341,11.05343,223.86319,9.8926,223.86319,9.8926Zm-6.69528-3.04573s1.39778,2.67546,2.90124,5.27679c1.49315,2.60888,3.09015,5.1407,3.09015,5.1407s.39836-.30045.7968-.6009a4.20054,4.20054,0,0,1,.57164-.37727l.26735-.16011s-1.8083-2.394-3.7256-4.7177C219.15565,9.067,217.16791,6.84687,217.16791,6.84687Zm2.84766,9.16628c-1.15213-.928-2.35215-1.81484-2.35215-1.81484s.74169,1.30339,1.52995,2.56407c.78379,1.26491,1.613,2.48594,1.613,2.48594s.37-.33509.73984-.67025c.18375-.169.3675-.338.50537-.46472a2.19273,2.19273,0,0,1,.23555-.20407l-.705-.6059C221.16078,16.94667,220.59307,16.47587,220.01557,16.01315Zm-9.57665-3.17582s1.98327,2.25546,4.05153,4.414c1.03151,1.08216,2.07957,2.14462,2.87314,2.93241.80235.78711,1.33727,1.31179,1.33727,1.31179a.62575.62575,0,0,1,.098-.12116l.23317-.252.3377-.36765.67026-.74s-2.31659-1.8839-4.72178-3.67411C212.92163,14.54094,210.43892,12.83733,210.43892,12.83733Zm2.20189,6.9981s1.00488,1.07147,2.09358,2.12284c1.0747,1.04952,2.18326,2.04516,2.18326,2.04516l.1602-.26727a4.19215,4.19215,0,0,1,.37719-.57172l.60089-.79672s-1.31771-.68134-2.67369-1.31218C214.03,20.41978,212.64081,19.83543,212.64081,19.83543Zm-5.59371,1.07778c-1.04745-.40344-1.74572-.67248-1.74572-.67248s2.47732,1.72385,5.01461,3.332c2.53143,1.61962,5.11968,3.12209,5.11968,3.12209l.429-.89888a3.69612,3.69612,0,0,1,.32654-.60135l.16358-.26527s-2.71211-1.28462-5.48825-2.45646C209.47546,21.88083,208.09015,21.32143,207.0471,20.91321Zm5.02561,6.12917c-1.45112-.28789-2.92587-.51621-2.92587-.51621s1.26183.81,2.54544,1.55973c1.28154.75578,2.58317,1.45066,2.58317,1.45066l.68449-1.86911s-.36041-.08329-.90111-.2083C213.52021,27.33844,212.79892,27.18449,212.07271,27.04238ZM202.11817,28.685s2.80579,1.07346,5.6419,2.01976c2.83381.959,5.69463,1.79051,5.69463,1.79051l.2538-.96269.24579-.96446s-2.92618-.5905-5.88777-1.0553C205.1084,29.03559,202.11817,28.685,202.11817,28.685Zm5.21583,5.16848s1.40277.4805,2.82287.89888c1.44327.42738,2.89139.79211,2.89139.79211l.01308-.31223a4.37177,4.37177,0,0,1,.08391-.6801l.15319-.98471s-1.48168.0117-2.97368.08622C208.83369,33.722,207.334,33.85351,207.334,33.85351Zm-74.1237,3.77464s78.20271,1.06907,79.72788,1.06907c.02871-.4992.05758-2.0674.05758-2.0674s-2.995.12778-5.99408.38381C204.00283,37.25688,133.2103,37.62815,133.2103,37.62815Z"/><path class="cls-16" d="M215.54159,37.602a22.8952,22.8952,0,0,1,45.75658,0h.31731c.00962-.29637.01432-.594.0117-.89341a23.20818,23.20818,0,0,0-46.4146.40506c.00139.16443.018.32485.02325.48835Z"/><path class="cls-17" d="M269.83793,36.50963c-2.99916-.256-5.99408-.38381-5.99408-.38381l.05758,2.0674,82.01342-1.06907S272.8367,36.75288,269.83793,36.50963Z"/><path class="cls-16" d="M269.50561,33.34951s-1.49969-.13148-2.99076-.19983c-1.492-.07452-2.97368-.08622-2.97368-.08622s.07652.49235.15319.98471a4.37077,4.37077,0,0,1,.08383.6801l.01316.31223s1.44812-.36473,2.89131-.79211C268.10283,33.83,269.50561,33.34951,269.50561,33.34951Z"/><path class="cls-17" d="M274.72136,28.181s-2.99015.35056-5.94835.82782c-2.96152.4648-5.8877,1.0553-5.8877,1.0553l.49959,1.92715s2.86083-.83152,5.69456-1.79051C271.91565,29.25449,274.72136,28.181,274.72136,28.181Z"/><path class="cls-16" d="M267.69277,26.02217s-1.47483.22832-2.926.51621c-.72614.14211-1.4475.29606-1.98612.41677-.54062.125-.90111.2083-.90111.2083l.68457,1.86911s1.30163-.69488,2.58316-1.45066C266.43086,26.83221,267.69277,26.02217,267.69277,26.02217Z"/><path class="cls-17" d="M271.53823,19.73673s-.69835.269-1.7458.67248c-1.043.40822-2.42828.96762-3.81936,1.55966-2.77622,1.17184-5.48833,2.45646-5.48833,2.45646l.26219.42415a1.91516,1.91516,0,0,1,.16166.3016l.06627.14087.429.89888s2.58833-1.50247,5.11976-3.12209C269.06083,21.46058,271.53823,19.73673,271.53823,19.73673Z"/><path class="cls-16" d="M264.1988,19.33143s-1.38923.58435-2.74144,1.22011c-1.356.63084-2.67376,1.31218-2.67376,1.31218l.60089.79672a4.18585,4.18585,0,0,1,.37727.57172l.16012.26727s1.10864-.99564,2.18326-2.04516C263.19384,20.4029,264.1988,19.33143,264.1988,19.33143Z"/><path class="cls-17" d="M262.34916,16.74735c2.06818-2.15856,4.05145-4.414,4.05145-4.414s-2.48271,1.70361-4.8792,3.50328c-2.40519,1.79021-4.72178,3.67411-4.72178,3.67411l.67025.74c.169.18367.338.36742.46472.50521a2.17914,2.17914,0,0,1,.20407.23563s.535-.52468,1.33735-1.31179C260.26951,18.892,261.31765,17.82951,262.34916,16.74735Z"/><path class="cls-16" d="M259.17619,13.69431s-1.2001.88679-2.35216,1.81484c-.57749.46272-1.1452.93352-1.56658,1.29023-.423.3635-.705.6059-.705.6059a2.19273,2.19273,0,0,1,.23555.20407c.13787.12671.32154.29575.50529.46472.37.33516.73991.67025.73991.67025s.82922-1.221,1.61293-2.48594C258.43442,14.9977,259.17619,13.69431,259.17619,13.69431Z"/><path class="cls-17" d="M259.67162,6.34287s-1.98766,2.22013-3.9015,4.56151c-1.9173,2.32374-3.7256,4.7177-3.7256,4.7177s.857.51029.839.53738l.79673.6009s1.597-2.53182,3.09014-5.1407C258.27392,9.01833,259.67162,6.34287,259.67162,6.34287Z"/><path class="cls-16" d="M252.71839,10.27854l.258-.88994s-.96023,1.16083-1.86334,2.35053c-.90888,1.18685-1.76,2.401-1.76,2.401s.44948.21446.89888.429a3.69718,3.69718,0,0,1,.60143.32654l.26519.16358s.52184-1.39654.98856-2.82518C252.34489,11.51582,252.56174,10.80946,252.71839,10.27854Z"/><path class="cls-17" d="M251.67941,2.16494s-1.4087,2.66114-2.69486,5.36786c-1.29839,2.7024-2.47316,5.44707-2.47316,5.44707l1.86911.68449.5748-1.77789c.3377-1.06592.7734-2.49341,1.185-3.93067C250.97075,5.084,251.67941,2.16494,251.67941,2.16494Z"/><path class="cls-16" d="M243.55272,12.15905l1.92716.49959s.1665-1.46575.27158-2.94951c.11116-1.482.16042-2.98037.16042-2.98037s-.64916,1.34412-1.23589,2.70256C244.083,10.78891,243.55272,12.15905,243.55272,12.15905Z"/><path class="cls-17" d="M241.5994,5.83558c-.61175,2.953-1.09594,5.917-1.09594,5.917l.49974.02063.49258.07644.98479.15319s.23217-2.98276.33578-5.98515C242.93282,3.017,242.92042,0,242.92042,0S242.196,2.90509,241.5994,5.83558Z"/><path class="cls-16" d="M238.4198,5.78939s-.3093,1.47907-.55578,2.957c-.25272,1.47822-.44263,2.95366-.44263,2.95366l.99841-.05758.99841.05758s-.1899-1.47544-.44262-2.95366C238.7291,7.26846,238.4198,5.78939,238.4198,5.78939Z"/><path class="cls-17" d="M233.91918,0s-.01239,3.017.104,6.01771c.10369,3.00239.33586,5.98515.33586,5.98515l.98478-.15319a4.36131,4.36131,0,0,1,.68-.0839l.3123-.01317s-.48419-2.964-1.09594-5.917C234.64363,2.90509,233.91918,0,233.91918,0Z"/><path class="cls-16" d="M230.92773,6.72876s.04918,1.49838.16042,2.98037c.105,1.48376.27158,2.94951.27158,2.94951l1.92715-.49959s-.53038-1.37014-1.12334-2.72773C231.57688,8.07288,230.92773,6.72876,230.92773,6.72876Z"/><path class="cls-17" d="M225.1602,2.16494s.70858,2.919,1.5391,5.79086c.41153,1.43726.8473,2.86475,1.185,3.93067.34478,1.06669.57472,1.77789.57472,1.77789-.00385-.00939.23324-.08668.46695-.17205l.46818-.16866.93406-.34378s-1.17477-2.74467-2.47316-5.44707C226.56882,4.82608,225.1602,2.16494,225.1602,2.16494Z"/><path class="cls-16" d="M223.86319,9.3886s.10315.356.25795.88994c.15673.53092.37358,1.23728.61121,1.95549.4668,1.42864.98856,2.82518.98856,2.82518l.26526-.16358a3.70005,3.70005,0,0,1,.60136-.32654c.44948-.21454.899-.429.899-.429s-.85107-1.21411-1.76-2.401C224.82341,10.54943,223.86319,9.3886,223.86319,9.3886Z"/><path class="cls-17" d="M217.16791,6.34287s1.39778,2.67546,2.90124,5.27679c1.49315,2.60888,3.09015,5.1407,3.09015,5.1407s.39836-.30045.7968-.6009a4.20054,4.20054,0,0,1,.57164-.37727l.26735-.16011s-1.8083-2.394-3.7256-4.7177C219.15565,8.563,217.16791,6.34287,217.16791,6.34287Z"/><path class="cls-16" d="M220.01557,15.50915c-1.15213-.92805-2.35215-1.81484-2.35215-1.81484s.74169,1.30339,1.52995,2.56407c.78379,1.26491,1.613,2.48594,1.613,2.48594s.37-.33509.73984-.67025c.18375-.169.3675-.338.50537-.46472a2.19273,2.19273,0,0,1,.23555-.20407l-.705-.6059C221.16078,16.44267,220.59307,15.97187,220.01557,15.50915Z"/><path class="cls-17" d="M210.43892,12.33333s1.98327,2.25546,4.05153,4.414c1.03151,1.08216,2.07957,2.14462,2.87314,2.93241.80235.78711,1.33727,1.31179,1.33727,1.31179a.62575.62575,0,0,1,.098-.12116l.23317-.252.3377-.36765.67026-.74s-2.31659-1.8839-4.72178-3.67411C212.92163,14.03694,210.43892,12.33333,210.43892,12.33333Z"/><path class="cls-16" d="M212.64081,19.33143s1.00488,1.07147,2.09358,2.12284c1.0747,1.04952,2.18326,2.04516,2.18326,2.04516l.1602-.26727a4.19215,4.19215,0,0,1,.37719-.57172l.60089-.79672s-1.31771-.68134-2.67369-1.31218C214.03,19.91578,212.64081,19.33143,212.64081,19.33143Z"/><path class="cls-17" d="M207.0471,20.40921c-1.04745-.40344-1.74572-.67248-1.74572-.67248s2.47732,1.72385,5.01461,3.332c2.53143,1.61962,5.11968,3.12209,5.11968,3.12209l.429-.89888a3.69612,3.69612,0,0,1,.32654-.60135l.16358-.26527s-2.71211-1.28462-5.48825-2.45646C209.47546,21.37683,208.09015,20.81743,207.0471,20.40921Z"/><path class="cls-16" d="M212.07271,26.53838c-1.45112-.28789-2.92587-.51621-2.92587-.51621s1.26183.81,2.54544,1.55973c1.28154.75578,2.58317,1.45066,2.58317,1.45066l.68449-1.86911s-.36041-.08329-.90111-.2083C213.52021,26.83444,212.79892,26.68049,212.07271,26.53838Z"/><path class="cls-17" d="M202.11817,28.181s2.80579,1.07346,5.6419,2.01976c2.83381.959,5.69463,1.79051,5.69463,1.79051l.2538-.96269.24579-.96446s-2.92618-.5905-5.88777-1.0553C205.1084,28.53159,202.11817,28.181,202.11817,28.181Z"/><path class="cls-16" d="M207.334,33.34951s1.40277.4805,2.82287.89888c1.44327.42738,2.89139.79211,2.89139.79211l.01308-.31223a4.37177,4.37177,0,0,1,.08391-.6801l.15319-.98471s-1.48168.0117-2.97368.08622C208.83369,33.218,207.334,33.34951,207.334,33.34951Z"/><path class="cls-17" d="M133.2103,37.12415s78.20271,1.06907,79.72788,1.06907c.02871-.4992.05758-2.0674.05758-2.0674s-2.995.12778-5.99408.38381C204.00283,36.75288,133.2103,37.12415,133.2103,37.12415Z"/></g></g></svg>