<?xml version="1.0" encoding="UTF-8"?>
<svg width="848px" height="83px" viewBox="0 0 848 83" version="1.1" xmlns="http://www.w3.org/2000/svg" xmlns:xlink="http://www.w3.org/1999/xlink">
    <!-- Generator: Sketch 63.1 (92452) - https://sketch.com -->
    <title>Logo</title>
    <desc>Created with Sketch.</desc>
    <g id="Page-1" stroke="none" stroke-width="1" fill="none" fill-rule="evenodd">
        <g id="1.0.0---desktop---guitar-business---ads-page" transform="translate(-236.000000, -43.000000)" fill-rule="nonzero">
            <g id="HEADER">
                <g id="Logo" transform="translate(236.000000, 43.000000)">
                    <path d="M42.65,62.33 C43.7816723,62.33 44.3475,62.8491615 44.3475,63.8875 L44.3475,77.1525 C41.9441547,78.8675086 39.0304338,80.2645779 35.60625,81.34375 C32.1820662,82.4229221 28.4575201,82.9625 24.4325,82.9625 C22.227489,82.9625 20.095427,82.7320856 18.03625,82.27125 C15.977073,81.8104144 14.0579256,81.145421 12.27875,80.27625 C10.4995744,79.407079 8.87500735,78.3191732 7.405,77.0125 C5.93499265,75.7058268 4.67500525,74.2416748 3.625,72.62 C2.57499475,70.9983252 1.76125289,69.1666769 1.18375,67.125 C0.606247113,65.0833231 0.3175,62.9250114 0.3175,60.65 C0.3175,58.3749886 0.606247113,56.2166769 1.18375,54.175 C1.76125289,52.1333231 2.57499475,50.3016748 3.625,48.68 C4.67500525,47.0583252 5.93499265,45.5941732 7.405,44.2875 C8.87500735,42.9808268 10.4995744,41.892921 12.27875,41.02375 C14.0579256,40.154579 15.977073,39.4895856 18.03625,39.02875 C20.095427,38.5679144 22.227489,38.3375 24.4325,38.3375 C26.3808431,38.3375 28.2591576,38.5299981 30.0675,38.915 C31.8758424,39.3000019 33.6229082,39.8833294 35.30875,40.665 C36.9945918,41.4466706 38.5549928,42.4937434 39.99,43.80625 C41.4250072,45.1187566 42.6441617,46.6499912 43.6475,48.4 C43.904168,48.8783357 43.9654173,49.3012482 43.83125,49.66875 C43.6970827,50.0362518 43.4025023,50.3308322 42.9475,50.5525 L34.6175,54.5075 C33.7891625,54.8925019 33.0716697,54.6591709 32.465,53.8075 C30.4583233,50.9141522 27.7808501,49.4675 24.4325,49.4675 C21.504152,49.4675 19.1416757,50.5029063 17.345,52.57375 C15.5483244,54.6445937 14.65,57.3366501 14.65,60.65 C14.65,63.9633499 15.5483244,66.6554063 17.345,68.72625 C19.1416757,70.7970937 21.504152,71.8325 24.4325,71.8325 C27.232514,71.8325 29.6941561,71.4533371 31.8175,70.695 L31.8175,63.8875 C31.8175,63.3858308 31.954582,63.0008347 32.22875,62.7325 C32.502918,62.4641653 32.8908308,62.33 33.3925,62.33 L42.65,62.33 Z M91.825,39.3 C92.1866685,39.3 92.4958321,39.428332 92.7525,39.685 C93.009168,39.9416679 93.1375,40.2508315 93.1375,40.6125 L93.1375,63.8 C93.1375,66.3316793 92.775837,68.6387396 92.0525,70.72125 C91.3291631,72.8037604 90.3200065,74.5799926 89.025,76.05 C87.7299935,77.5200073 86.1695925,78.7595783 84.34375,79.76875 C82.5179075,80.7779217 80.5141776,81.5187476 78.3325,81.99125 C76.1508224,82.4637524 73.8058459,82.7 71.2975,82.7 C68.7891541,82.7 66.4441776,82.4637524 64.2625,81.99125 C62.0808224,81.5187476 60.0770925,80.7779217 58.25125,79.76875 C56.4254075,78.7595783 54.8650065,77.5200073 53.57,76.05 C52.2749935,74.5799926 51.265837,72.8037604 50.5425,70.72125 C49.8191631,68.6387396 49.4575,66.3316793 49.4575,63.8 L49.4575,40.6125 C49.4575,40.2508315 49.5858321,39.9416679 49.8425,39.685 C50.099168,39.428332 50.4083315,39.3 50.77,39.3 L61.8825,39.3 C62.2441685,39.3 62.5533321,39.428332 62.81,39.685 C63.066668,39.9416679 63.195,40.2508315 63.195,40.6125 L63.195,60.8425 C63.195,64.2841839 63.8599934,66.9324907 65.19,68.7875 C66.5200067,70.6425093 68.5558196,71.57 71.2975,71.57 C74.0391804,71.57 76.0749934,70.6425093 77.405,68.7875 C78.7350067,66.9324907 79.4,64.2841839 79.4,60.8425 L79.4,40.6125 C79.4,40.2508315 79.5283321,39.9416679 79.785,39.685 C80.041668,39.428332 80.3508315,39.3 80.7125,39.3 L91.825,39.3 Z M98.2475,40.6125 C98.2475,40.2508315 98.3758321,39.9416679 98.6325,39.685 C98.889168,39.428332 99.1983315,39.3 99.56,39.3 L110.6725,39.3 C111.034168,39.3 111.343332,39.428332 111.6,39.685 C111.856668,39.9416679 111.985,40.2508315 111.985,40.6125 L111.985,80.6875 C111.985,81.0491685 111.856668,81.358332 111.6,81.615 C111.343332,81.8716679 111.034168,82 110.6725,82 L99.56,82 C99.1983315,82 98.889168,81.8716679 98.6325,81.615 C98.3758321,81.358332 98.2475,81.0491685 98.2475,80.6875 L98.2475,40.6125 Z M155.6475,39.3 C156.009168,39.3 156.318332,39.428332 156.575,39.685 C156.831668,39.9416679 156.96,40.2508315 156.96,40.6125 L156.96,49.1175 C156.96,49.4791685 156.831668,49.788332 156.575,50.045 C156.318332,50.3016679 156.009168,50.43 155.6475,50.43 L143.3625,50.43 L143.3625,80.6875 C143.3625,81.0491685 143.234168,81.358332 142.9775,81.615 C142.720832,81.8716679 142.411668,82 142.05,82 L130.9375,82 C130.575832,82 130.266668,81.8716679 130.01,81.615 C129.753332,81.358332 129.625,81.0491685 129.625,80.6875 L129.625,50.43 L117.3575,50.43 C116.995832,50.43 116.686668,50.3016679 116.43,50.045 C116.173332,49.788332 116.045,49.4791685 116.045,49.1175 L116.045,40.6125 C116.045,40.2508315 116.173332,39.9416679 116.43,39.685 C116.686668,39.428332 116.995832,39.3 117.3575,39.3 L155.6475,39.3 Z M200.955,80.1625 C201.176668,80.7341695 201.176668,81.1833317 200.955,81.51 C200.733332,81.8366683 200.33667,82 199.765,82 L188.0925,82 C187.229162,82 186.640002,81.5858375 186.325,80.7575 L184.12,74.965 L168.6675,74.965 L166.48,80.7575 C166.153332,81.5858375 165.552504,82 164.6775,82 L153.8975,82 C153.32583,82 152.926251,81.8337517 152.69875,81.50125 C152.471249,81.1687483 152.468332,80.7225028 152.69,80.1625 L169.77,40.2975 C170.085002,39.5158294 170.691662,39.125 171.59,39.125 L182.4225,39.125 C183.320838,39.125 183.927498,39.5158294 184.2425,40.2975 L200.955,80.1625 Z M171.975,66.25 L180.795,66.25 L176.3675,54.6125 L171.975,66.25 Z M243.1125,79.13 C243.509169,79.8533369 243.529585,80.512497 243.17375,81.1075 C242.817915,81.702503 242.231671,82 241.415,82 L230.74,82 C230.483332,82 230.244168,81.9270841 230.0225,81.78125 C229.800832,81.6354159 229.625834,81.4458345 229.4975,81.2125 L223.04,68.875 L217.685,68.875 L217.685,80.6875 C217.685,81.0491685 217.556668,81.358332 217.3,81.615 C217.043332,81.8716679 216.734168,82 216.3725,82 L205.26,82 C204.898332,82 204.589168,81.8716679 204.3325,81.615 C204.075832,81.358332 203.9475,81.0491685 203.9475,80.6875 L203.9475,40.6125 C203.9475,40.2508315 204.075832,39.9416679 204.3325,39.685 C204.589168,39.428332 204.898332,39.3 205.26,39.3 L224.8075,39.3 C227.642514,39.3 230.197489,39.6791629 232.4725,40.4375 C234.747511,41.1958371 236.622909,42.2399933 238.09875,43.57 C239.574591,44.9000066 240.703329,46.4604077 241.485,48.25125 C242.266671,50.0420923 242.6575,51.9874895 242.6575,54.0875 C242.6575,56.6541795 242.080006,58.9874895 240.925,61.0875 C239.769994,63.1875105 238.095844,64.8908268 235.9025,66.1975 L243.1125,79.13 Z M217.685,49.3975 L217.685,58.7775 L222.1125,58.7775 C224.340844,58.7775 225.974161,58.3808373 227.0125,57.5875 C228.050839,56.7941627 228.57,55.6275077 228.57,54.0875 C228.57,52.5474923 228.050839,51.3808373 227.0125,50.5875 C225.974161,49.7941627 224.340844,49.3975 222.1125,49.3975 L217.685,49.3975 Z M312.9025,39.965 C313.380836,39.4049972 314.034163,39.125 314.8625,39.125 L320.305,39.125 C320.806669,39.125 321.191665,39.2591653 321.46,39.5275 C321.728335,39.7958347 321.8625,40.1808308 321.8625,40.6825 L321.8625,80.425 C321.8625,80.9266692 321.728335,81.314582 321.46,81.58875 C321.191665,81.862918 320.806669,82 320.305,82 L309.7,82 C309.198331,82 308.813335,81.862918 308.545,81.58875 C308.276665,81.314582 308.1425,80.9266692 308.1425,80.425 L308.1425,63.87 L297.555,76.61 C297.239998,76.9716685 296.866669,77.1525 296.435,77.1525 C296.003331,77.1525 295.630002,76.9716685 295.315,76.61 L284.745,63.87 L284.745,80.425 C284.745,80.9266692 284.607918,81.314582 284.33375,81.58875 C284.059582,81.862918 283.671669,82 283.17,82 L272.5825,82 C272.080831,82 271.692918,81.862918 271.41875,81.58875 C271.144582,81.314582 271.0075,80.9266692 271.0075,80.425 L271.0075,40.6825 C271.0075,40.1808308 271.144582,39.7958347 271.41875,39.5275 C271.692918,39.2591653 272.080831,39.125 272.5825,39.125 L277.5525,39.125 C278.334171,39.125 278.975831,39.4108305 279.4775,39.9825 L296.435,59.9325 L312.9025,39.965 Z M373.0325,80.1625 C373.254168,80.7341695 373.254168,81.1833317 373.0325,81.51 C372.810832,81.8366683 372.41417,82 371.8425,82 L360.17,82 C359.306662,82 358.717502,81.5858375 358.4025,80.7575 L356.1975,74.965 L340.745,74.965 L338.5575,80.7575 C338.230832,81.5858375 337.630004,82 336.755,82 L325.975,82 C325.40333,82 325.003751,81.8337517 324.77625,81.50125 C324.548749,81.1687483 324.545832,80.7225028 324.7675,80.1625 L341.8475,40.2975 C342.162502,39.5158294 342.769162,39.125 343.6675,39.125 L354.5,39.125 C355.398338,39.125 356.004998,39.5158294 356.32,40.2975 L373.0325,80.1625 Z M344.0525,66.25 L352.8725,66.25 L348.445,54.6125 L344.0525,66.25 Z M415.19,79.13 C415.586669,79.8533369 415.607085,80.512497 415.25125,81.1075 C414.895415,81.702503 414.309171,82 413.4925,82 L402.8175,82 C402.560832,82 402.321668,81.9270841 402.1,81.78125 C401.878332,81.6354159 401.703334,81.4458345 401.575,81.2125 L395.1175,68.875 L389.7625,68.875 L389.7625,80.6875 C389.7625,81.0491685 389.634168,81.358332 389.3775,81.615 C389.120832,81.8716679 388.811668,82 388.45,82 L377.3375,82 C376.975832,82 376.666668,81.8716679 376.41,81.615 C376.153332,81.358332 376.025,81.0491685 376.025,80.6875 L376.025,40.6125 C376.025,40.2508315 376.153332,39.9416679 376.41,39.685 C376.666668,39.428332 376.975832,39.3 377.3375,39.3 L396.885,39.3 C399.720014,39.3 402.274989,39.6791629 404.55,40.4375 C406.825011,41.1958371 408.700409,42.2399933 410.17625,43.57 C411.652091,44.9000066 412.780829,46.4604077 413.5625,48.25125 C414.344171,50.0420923 414.735,51.9874895 414.735,54.0875 C414.735,56.6541795 414.157506,58.9874895 413.0025,61.0875 C411.847494,63.1875105 410.173344,64.8908268 407.98,66.1975 L415.19,79.13 Z M389.7625,49.3975 L389.7625,58.7775 L394.19,58.7775 C396.418344,58.7775 398.051661,58.3808373 399.09,57.5875 C400.128339,56.7941627 400.6475,55.6275077 400.6475,54.0875 C400.6475,52.5474923 400.128339,51.3808373 399.09,50.5875 C398.051661,49.7941627 396.418344,49.3975 394.19,49.3975 L389.7625,49.3975 Z M432.095,39.3 C432.456668,39.3 432.765832,39.428332 433.0225,39.685 C433.279168,39.9416679 433.4075,40.2508315 433.4075,40.6125 L433.4075,80.6875 C433.4075,81.0491685 433.279168,81.358332 433.0225,81.615 C432.765832,81.8716679 432.456668,82 432.095,82 L420.9825,82 C420.620832,82 420.311668,81.8716679 420.055,81.615 C419.798332,81.358332 419.67,81.0491685 419.67,80.6875 L419.67,40.6125 C419.67,40.2508315 419.798332,39.9416679 420.055,39.685 C420.311668,39.428332 420.620832,39.3 420.9825,39.3 L432.095,39.3 Z M465.0125,80.11 C465.374168,80.6466693 465.455834,81.0958315 465.2575,81.4575 C465.059166,81.8191685 464.645003,82 464.015,82 L451.8525,82 C451.09865,82 450.508833,81.7216596 450.083033,81.1649711 L435.28,60.3 L450.0675,40.28 C450.499169,39.6266634 451.129163,39.3 451.9575,39.3 L463.315,39.3 C463.95667,39.3 464.376666,39.4808315 464.575,39.8425 C464.773334,40.2041685 464.680002,40.6533306 464.295,41.19 L450.2425,59.6875 L465.0125,80.11 Z M503.3375,71.395 C503.757502,71.395 504.081249,71.5087489 504.30875,71.73625 C504.536251,71.9637511 504.65,72.2816646 504.65,72.69 L504.65,80.6875 C504.65,81.1075021 504.536251,81.4312489 504.30875,81.65875 C504.081249,81.8862511 503.757502,82 503.3375,82 L469.7025,82 C469.340832,82 469.031668,81.8716679 468.775,81.615 C468.518332,81.358332 468.39,81.0491685 468.39,80.6875 L468.39,40.6125 C468.39,40.2508315 468.518332,39.9416679 468.775,39.685 C469.031668,39.428332 469.340832,39.3 469.7025,39.3 L502.6375,39.3 C503.057502,39.3 503.381249,39.4137489 503.60875,39.64125 C503.836251,39.8687511 503.95,40.1924979 503.95,40.6125 L503.95,48.61 C503.95,49.0183354 503.836251,49.3362489 503.60875,49.56375 C503.381249,49.7912511 503.057502,49.905 502.6375,49.905 L482.1275,49.905 L482.1275,55.5925 L499.8375,55.5925 C500.257502,55.5925 500.581249,55.7062489 500.80875,55.93375 C501.036251,56.1612511 501.15,56.4849979 501.15,56.905 L501.15,63.87 C501.15,64.2783354 501.036251,64.5962489 500.80875,64.82375 C500.581249,65.0512511 500.257502,65.165 499.8375,65.165 L482.1275,65.165 L482.1275,71.395 L503.3375,71.395 Z M547.6125,39.3 C547.974168,39.3 548.283332,39.428332 548.54,39.685 C548.796668,39.9416679 548.925,40.2508315 548.925,40.6125 L548.925,49.1175 C548.925,49.4791685 548.796668,49.788332 548.54,50.045 C548.283332,50.3016679 547.974168,50.43 547.6125,50.43 L535.3275,50.43 L535.3275,80.6875 C535.3275,81.0491685 535.199168,81.358332 534.9425,81.615 C534.685832,81.8716679 534.376668,82 534.015,82 L522.9025,82 C522.540832,82 522.231668,81.8716679 521.975,81.615 C521.718332,81.358332 521.59,81.0491685 521.59,80.6875 L521.59,50.43 L509.3225,50.43 C508.960832,50.43 508.651668,50.3016679 508.395,50.045 C508.138332,49.788332 508.01,49.4791685 508.01,49.1175 L508.01,40.6125 C508.01,40.2508315 508.138332,39.9416679 508.395,39.685 C508.651668,39.428332 508.960832,39.3 509.3225,39.3 L547.6125,39.3 Z M574.3,39.3 C576.563345,39.3 578.65749,39.5537475 580.5825,40.06125 C582.50751,40.5687525 584.17291,41.2774954 585.57875,42.1875 C586.98459,43.0975045 588.183328,44.1795771 589.175,45.43375 C590.166672,46.6879229 590.907498,48.0645758 591.3975,49.56375 C591.887502,51.0629242 592.1325,52.6524916 592.1325,54.3325 C592.1325,56.4325105 591.738754,58.3924909 590.95125,60.2125 C590.163746,62.0325091 589.035007,63.6220765 587.565,64.98125 C586.094993,66.3404235 584.222511,67.4108294 581.9475,68.1925 C579.672489,68.9741706 577.123347,69.365 574.3,69.365 L566.7225,69.365 L566.7225,80.6875 C566.7225,81.0491685 566.594168,81.358332 566.3375,81.615 C566.080832,81.8716679 565.771668,82 565.41,82 L554.2975,82 C553.935832,82 553.626668,81.8716679 553.37,81.615 C553.113332,81.358332 552.985,81.0491685 552.985,80.6875 L552.985,40.6125 C552.985,40.2508315 553.113332,39.9416679 553.37,39.685 C553.626668,39.428332 553.935832,39.3 554.2975,39.3 L574.3,39.3 Z M571.85,59.285 C572.946672,59.285 573.909163,59.1450014 574.7375,58.865 C575.565837,58.5849986 576.213331,58.2058357 576.68,57.7275 C577.146669,57.2491643 577.490832,56.7270862 577.7125,56.16125 C577.934168,55.5954138 578.045,54.9858366 578.045,54.3325 C578.045,53.6908301 577.934168,53.0870862 577.7125,52.52125 C577.490832,51.9554138 577.146669,51.4333357 576.68,50.955 C576.213331,50.4766643 575.565837,50.0975014 574.7375,49.8175 C573.909163,49.5374986 572.946672,49.3975 571.85,49.3975 L566.7225,49.3975 L566.7225,59.285 L571.85,59.285 Z M628.5325,70.87 C628.952502,70.87 629.276249,70.9837489 629.50375,71.21125 C629.731251,71.4387511 629.845,71.7624979 629.845,72.1825 L629.845,80.6875 C629.845,81.1075021 629.731251,81.4312489 629.50375,81.65875 C629.276249,81.8862511 628.952502,82 628.5325,82 L596.8925,82 C596.530832,82 596.221668,81.8716679 595.965,81.615 C595.708332,81.358332 595.58,81.0491685 595.58,80.6875 L595.58,40.6125 C595.58,40.2508315 595.708332,39.9416679 595.965,39.685 C596.221668,39.428332 596.530832,39.3 596.8925,39.3 L608.005,39.3 C608.366668,39.3 608.675832,39.428332 608.9325,39.685 C609.189168,39.9416679 609.3175,40.2508315 609.3175,40.6125 L609.3175,70.87 L628.5325,70.87 Z M679.335,80.1625 C679.556668,80.7341695 679.556668,81.1833317 679.335,81.51 C679.113332,81.8366683 678.71667,82 678.145,82 L666.4725,82 C665.609162,82 665.020002,81.5858375 664.705,80.7575 L662.5,74.965 L647.0475,74.965 L644.86,80.7575 C644.533332,81.5858375 643.932504,82 643.0575,82 L632.2775,82 C631.70583,82 631.306251,81.8337517 631.07875,81.50125 C630.851249,81.1687483 630.848332,80.7225028 631.07,80.1625 L648.15,40.2975 C648.465002,39.5158294 649.071662,39.125 649.97,39.125 L660.8025,39.125 C661.700838,39.125 662.307498,39.5158294 662.6225,40.2975 L679.335,80.1625 Z M650.355,66.25 L659.175,66.25 L654.7475,54.6125 L650.355,66.25 Z M723.4525,70.135 C724.409171,70.601669 724.636669,71.3133285 724.135,72.27 C723.189995,74.0783424 722.000007,75.6766597 720.565,77.065 C719.129993,78.4533403 717.560842,79.5704124 715.8575,80.41625 C714.154158,81.2620876 712.372093,81.8979145 710.51125,82.32375 C708.650407,82.7495855 706.74001,82.9625 704.78,82.9625 C702.574989,82.9625 700.442927,82.7320856 698.38375,82.27125 C696.324573,81.8104144 694.405426,81.145421 692.62625,80.27625 C690.847074,79.407079 689.222507,78.3191732 687.7525,77.0125 C686.282493,75.7058268 685.022505,74.2416748 683.9725,72.62 C682.922495,70.9983252 682.108753,69.1666769 681.53125,67.125 C680.953747,65.0833231 680.665,62.9250114 680.665,60.65 C680.665,58.3749886 680.953747,56.2166769 681.53125,54.175 C682.108753,52.1333231 682.922495,50.3016748 683.9725,48.68 C685.022505,47.0583252 686.282493,45.5941732 687.7525,44.2875 C689.222507,42.9808268 690.847074,41.892921 692.62625,41.02375 C694.405426,40.154579 696.324573,39.4895856 698.38375,39.02875 C700.442927,38.5679144 702.574989,38.3375 704.78,38.3375 C706.74001,38.3375 708.650407,38.5504145 710.51125,38.97625 C712.372093,39.4020855 714.154158,40.0379124 715.8575,40.88375 C717.560842,41.7295876 719.129993,42.8466597 720.565,44.235 C722.000007,45.6233403 723.189995,47.2216576 724.135,49.03 C724.636669,49.9866714 724.409171,50.698331 723.4525,51.165 L715.105,55.1375 C714.241662,55.5458354 713.530003,55.3066711 712.97,54.42 C712.048329,52.8449921 710.878757,51.6258376 709.46125,50.7625 C708.043743,49.8991623 706.483342,49.4675 704.78,49.4675 C701.851652,49.4675 699.489176,50.5029063 697.6925,52.57375 C695.895824,54.6445937 694.9975,57.3366501 694.9975,60.65 C694.9975,63.9633499 695.895824,66.6554063 697.6925,68.72625 C699.489176,70.7970937 701.851652,71.8325 704.78,71.8325 C706.483342,71.8325 708.043743,71.4008376 709.46125,70.5375 C710.878757,69.6741623 712.048329,68.4550079 712.97,66.88 C713.530003,65.9933289 714.241662,65.7541646 715.105,66.1625 L723.4525,70.135 Z M763.6325,71.395 C764.052502,71.395 764.376249,71.5087489 764.60375,71.73625 C764.831251,71.9637511 764.945,72.2816646 764.945,72.69 L764.945,80.6875 C764.945,81.1075021 764.831251,81.4312489 764.60375,81.65875 C764.376249,81.8862511 764.052502,82 763.6325,82 L729.9975,82 C729.635832,82 729.326668,81.8716679 729.07,81.615 C728.813332,81.358332 728.685,81.0491685 728.685,80.6875 L728.685,40.6125 C728.685,40.2508315 728.813332,39.9416679 729.07,39.685 C729.326668,39.428332 729.635832,39.3 729.9975,39.3 L762.9325,39.3 C763.352502,39.3 763.676249,39.4137489 763.90375,39.64125 C764.131251,39.8687511 764.245,40.1924979 764.245,40.6125 L764.245,48.61 C764.245,49.0183354 764.131251,49.3362489 763.90375,49.56375 C763.676249,49.7912511 763.352502,49.905 762.9325,49.905 L742.4225,49.905 L742.4225,55.5925 L760.1325,55.5925 C760.552502,55.5925 760.876249,55.7062489 761.10375,55.93375 C761.331251,56.1612511 761.445,56.4849979 761.445,56.905 L761.445,63.87 C761.445,64.2783354 761.331251,64.5962489 761.10375,64.82375 C760.876249,65.0512511 760.552502,65.165 760.1325,65.165 L742.4225,65.165 L742.4225,71.395 L763.6325,71.395 Z" id="GUITARMARKETPLACE" fill="#FFFFFF"></path>
                    <path d="M794.92,57.1 C795.126668,57.1 795.303333,57.1733326 795.45,57.32 C795.596667,57.4666674 795.67,57.6433323 795.67,57.85 L795.67,71.1 C795.67,72.5466739 795.463335,73.864994 795.05,75.055 C794.636665,76.2450059 794.060004,77.2599958 793.32,78.1 C792.579996,78.9400042 791.688339,79.6483304 790.645,80.225 C789.601661,80.8016695 788.456673,81.2249986 787.21,81.495 C785.963327,81.7650013 784.623341,81.9 783.19,81.9 C781.75666,81.9 780.416673,81.7650013 779.17,81.495 C777.923327,81.2249986 776.778339,80.8016695 775.735,80.225 C774.691661,79.6483304 773.800004,78.9400042 773.06,78.1 C772.319996,77.2599958 771.743335,76.2450059 771.33,75.055 C770.916665,73.864994 770.71,72.5466739 770.71,71.1 L770.71,57.85 C770.71,57.6433323 770.783333,57.4666674 770.93,57.32 C771.076667,57.1733326 771.253332,57.1 771.46,57.1 L777.81,57.1 C778.016668,57.1 778.193333,57.1733326 778.34,57.32 C778.486667,57.4666674 778.56,57.6433323 778.56,57.85 L778.56,69.41 C778.56,71.3766765 778.939996,72.8899947 779.7,73.95 C780.460004,75.0100053 781.623326,75.54 783.19,75.54 C784.756675,75.54 785.919996,75.0100053 786.68,73.95 C787.440004,72.8899947 787.82,71.3766765 787.82,69.41 L787.82,57.85 C787.82,57.6433323 787.893333,57.4666674 788.04,57.32 C788.186667,57.1733326 788.363332,57.1 788.57,57.1 L794.92,57.1 Z M809.33,56.55 C811.156676,56.55 812.836659,56.7599979 814.37,57.18 C815.903341,57.6000021 817.113329,58.0633308 818,58.57 C818.500003,58.8633348 818.633335,59.2599975 818.4,59.76 L816.81,63.22 C816.563332,63.7600027 816.140003,63.8933347 815.54,63.62 L815.055999,63.3863997 C814.906666,63.3159998 814.769334,63.2530668 814.644,63.1976001 L814.465,63.12 C814.181665,62.9999994 813.776669,62.8433343 813.25,62.65 C812.723331,62.4566657 812.181669,62.3116671 811.625,62.215 C811.068331,62.1183328 810.510003,62.07 809.95,62.07 C808.903328,62.07 808.131669,62.2199985 807.635,62.52 C807.138331,62.8200015 806.89,63.1799979 806.89,63.6 C806.89,64.0466689 807.279996,64.4433316 808.06,64.79 L808.251823,64.8680446 C808.688444,65.0362224 809.442928,65.2769319 810.515288,65.5901774 L810.79,65.67 C812.636676,66.1966693 814.046662,66.7099975 815.02,67.21 C817.226678,68.343339 818.559998,69.9066567 819.02,71.9 C819.146667,72.4466694 819.21,73.0266636 819.21,73.64 C819.21,74.7600056 819.005002,75.781662 818.595,76.705 C818.184998,77.6283379 817.628337,78.4066635 816.925,79.04 C816.221663,79.6733365 815.388338,80.2083311 814.425,80.645 C813.461662,81.0816688 812.435005,81.399999 811.345,81.6 C810.254995,81.800001 809.110006,81.9 807.91,81.9 C806.176658,81.9 804.538341,81.6983353 802.995,81.295 C801.451659,80.8916646 800.056673,80.3600033 798.81,79.7 C798.336664,79.3999985 798.216666,78.9933359 798.45,78.48 L800.17,74.67 C800.410001,74.1499974 800.779998,74.0066655 801.28,74.24 L802.545,74.81 L802.785816,74.9120409 C802.967857,74.9871428 803.19289,75.0763941 803.460918,75.1797956 L803.67,75.26 C804.176669,75.4533343 804.598332,75.5883329 804.935,75.665 C805.271668,75.741667 805.684998,75.813333 806.175,75.88 C806.665002,75.946667 807.166664,75.98 807.68,75.98 C809.806677,75.98 810.87,75.4900049 810.87,74.51 C810.87,74.0176898 810.520654,73.5850309 809.821953,73.2120122 L809.64,73.12 C809.235554,72.9208879 808.424598,72.6317647 807.207112,72.2526226 L806.94,72.17 C805.219991,71.6433307 803.920004,71.1533356 803.04,70.7 C801.053323,69.6666615 799.813336,68.2700088 799.32,66.51 C799.139999,65.8833302 799.05,65.203337 799.05,64.47 C799.05,62.0633213 799.964991,60.1416738 801.795,58.705 C803.625009,57.2683261 806.136651,56.55 809.33,56.55 Z M836.91,57 C837.423336,57 837.769999,57.2233311 837.95,57.67 L847.5,80.45 C847.626667,80.7766683 847.626667,81.0333324 847.5,81.22 C847.373333,81.4066676 847.146668,81.5 846.82,81.5 L840.15,81.5 C839.656664,81.5 839.320001,81.2633357 839.14,80.79 L837.88,77.48 L829.05,77.48 L827.8,80.79 C827.613332,81.2633357 827.270003,81.5 826.77,81.5 L820.61,81.5 C820.283332,81.5 820.055001,81.4050009 819.925,81.215 C819.794999,81.024999 819.793333,80.7700016 819.92,80.45 L829.68,57.67 C829.860001,57.2233311 830.206664,57 830.72,57 L836.91,57 Z M833.45,65.85 L830.94,72.5 L835.98,72.5 L833.45,65.85 Z" id="USA" fill="#71D2FF"></path>
                    <g id="logo" transform="translate(94.000000, 0.000000)" fill="#FFFFFF">
                        <path d="M10.0184081,36 L4.75329181,36 L4.75329181,32.9230769 C4.75329181,32.9230769 4.37721207,30.1538462 1.74465392,29.0769231 C-0.887904229,28.0769231 0.240334979,29.0769231 0.240334979,29.0769231 L0.240334979,26.7692308 C0.240334979,26.7692308 3.6250526,16.0769231 2.4968134,3.07692308 L4.75329181,3.07692308 C4.75329181,3.07692308 5.65588318,0 10.7705676,0 C15.885252,0 6.4832586,0 11.5227271,0 C16.5621955,0 17.3895709,3.07692308 17.3895709,3.07692308 L19.5708334,3.07692308 C18.4425942,16.0769231 21.7520959,26.7692308 21.7520959,26.7692308 L21.7520959,29.0769231 C21.7520959,29.0769231 22.8803351,28.0769231 20.3229929,29.0769231 C17.7656507,30.0769231 17.3895709,32.9230769 17.3895709,32.9230769 L17.3895709,36 L12.2748865,36" id="Path"></path>
                    </g>
                </g>
            </g>
        </g>
    </g>
</svg>