<?xml version="1.0" encoding="UTF-8"?>
<svg width="366px" height="115px" viewBox="0 0 366 115" version="1.1" xmlns="http://www.w3.org/2000/svg" xmlns:xlink="http://www.w3.org/1999/xlink">
    <!-- Generator: Sketch 63.1 (92452) - https://sketch.com -->
    <title>Group Copy</title>
    <desc>Created with Sketch.</desc>
    <defs>
        <filter x="-3.4%" y="-11.2%" width="106.7%" height="122.4%" filterUnits="objectBoundingBox" id="filter-1">
            <feOffset dx="0" dy="2" in="SourceAlpha" result="shadowOffsetOuter1"></feOffset>
            <feGaussianBlur stdDeviation="2" in="shadowOffsetOuter1" result="shadowBlurOuter1"></feGaussianBlur>
            <feColorMatrix values="0 0 0 0 0   0 0 0 0 0   0 0 0 0 0  0 0 0 0.5 0" type="matrix" in="shadowBlurOuter1" result="shadowMatrixOuter1"></feColorMatrix>
            <feMerge>
                <feMergeNode in="shadowMatrixOuter1"></feMergeNode>
                <feMergeNode in="SourceGraphic"></feMergeNode>
            </feMerge>
        </filter>
    </defs>
    <g id="Page-1" stroke="none" stroke-width="1" fill="none" fill-rule="evenodd">
        <g id="1.0.0---desktop---guitar-business---ads-page" transform="translate(-49.000000, -1941.000000)" fill-rule="nonzero">
            <g id="Group-Copy" filter="url(#filter-1)" transform="translate(53.000000, 1943.000000)">
                <g id="USA" transform="translate(285.000000, 83.000000)" fill="#71D2FF">
                    <path d="M23.3225641,0.553846154 C23.5159839,0.553846154 23.6813241,0.621537785 23.8185897,0.756923077 C23.9558554,0.892308369 24.0244872,1.05538366 24.0244872,1.24615385 L24.0244872,13.4769231 C24.0244872,14.8123144 23.8310703,16.0292253 23.4442308,17.1276923 C23.0573912,18.2261593 22.5176958,19.163073 21.8251282,19.9384615 C21.1325606,20.71385 20.2980604,21.3676896 19.3216026,21.9 C18.3451447,22.4323104 17.2735528,22.8230757 16.1067949,23.0723077 C14.9400369,23.3215397 13.6859469,23.4461538 12.3444872,23.4461538 C11.0030275,23.4461538 9.74893746,23.3215397 8.58217949,23.0723077 C7.41542152,22.8230757 6.34382967,22.4323104 5.36737179,21.9 C4.39091392,21.3676896 3.55641372,20.71385 2.86384615,19.9384615 C2.17127859,19.163073 1.63158313,18.2261593 1.24474359,17.1276923 C0.857904049,16.0292253 0.664487179,14.8123144 0.664487179,13.4769231 L0.664487179,1.24615385 C0.664487179,1.05538366 0.733118972,0.892308369 0.870384615,0.756923077 C1.00765026,0.621537785 1.17299049,0.553846154 1.36641026,0.553846154 L7.30935897,0.553846154 C7.50277874,0.553846154 7.66811897,0.621537785 7.80538462,0.756923077 C7.94265026,0.892308369 8.01128205,1.05538366 8.01128205,1.24615385 L8.01128205,11.9169231 C8.01128205,13.7323168 8.36691952,15.1292259 9.07820513,16.1076923 C9.78949074,17.0861587 10.8782405,17.5753846 12.3444872,17.5753846 C13.8107338,17.5753846 14.8994836,17.0861587 15.6107692,16.1076923 C16.3220548,15.1292259 16.6776923,13.7323168 16.6776923,11.9169231 L16.6776923,1.24615385 C16.6776923,1.05538366 16.7463241,0.892308369 16.8835897,0.756923077 C17.0208554,0.621537785 17.1861956,0.553846154 17.3796154,0.553846154 L23.3225641,0.553846154 Z M36.8088462,0.0461538462 C38.5184274,0.0461538462 40.0907193,0.239998062 41.5257692,0.627692308 C42.9608191,1.01538655 44.0932437,1.44307458 44.9230769,1.91076923 C45.391028,2.18153982 45.5158131,2.54769 45.2974359,3.00923077 L43.809359,6.20307692 C43.5785031,6.70154095 43.1823105,6.82461665 42.6207692,6.57230769 L42.1677944,6.35667666 C42.028034,6.29169216 41.8995045,6.23360008 41.7822054,6.18240012 L41.6146795,6.11076923 C41.3495072,5.99999945 40.9704726,5.85538551 40.4775641,5.67692308 C39.9846557,5.49846065 39.4777163,5.36461583 38.9567308,5.27538462 C38.4357453,5.1861534 37.9132077,5.14153846 37.3891026,5.14153846 C36.409525,5.14153846 35.6873314,5.27999862 35.2225,5.55692308 C34.7576686,5.83384754 34.5252564,6.16615191 34.5252564,6.55384615 C34.5252564,6.96615591 34.8902528,7.33230609 35.6202564,7.65230769 L35.7997826,7.72434888 C36.2084159,7.87958993 36.9145353,8.10178326 37.9181539,8.39093302 L38.1752564,8.46461538 C39.9035557,8.95077166 41.2231578,9.42461308 42.1341026,9.88615385 C44.1993266,10.9323129 45.4471773,12.3753754 45.8776923,14.2153846 C45.9962399,14.7200025 46.0555128,15.2553818 46.0555128,15.8215385 C46.0555128,16.8553898 45.8636558,17.7984573 45.4799359,18.6507692 C45.096216,19.5030812 44.5752383,20.2215355 43.9169872,20.8061538 C43.258736,21.3907722 42.4788293,21.8846134 41.5772436,22.2876923 C40.6756579,22.6907712 39.7148128,22.9846145 38.6946795,23.1692308 C37.6745462,23.3538471 36.6029543,23.4461538 35.4798718,23.4461538 C33.8576415,23.4461538 32.3243448,23.2600019 30.8799359,22.8876923 C29.435527,22.5153828 28.1299631,22.0246184 26.9632051,21.4153846 C26.5202115,21.1384602 26.4079049,20.7630793 26.6262821,20.2892308 L28.2360256,16.7723077 C28.4606421,16.2923053 28.8069207,16.1599989 29.2748718,16.3753846 L30.4587821,16.9015385 L30.6841615,16.99573 C30.8545327,17.0650549 31.0651405,17.1474407 31.315987,17.2428883 L31.5116667,17.3169231 C31.9858571,17.4953855 32.3804899,17.6199996 32.6955769,17.6907692 C33.010664,17.7615388 33.3974977,17.827692 33.8560897,17.8892308 C34.3146818,17.9507695 34.7841856,17.9815385 35.2646154,17.9815385 C37.2549672,17.9815385 38.2501282,17.5292353 38.2501282,16.6246154 C38.2501282,16.1323052 37.8664141,15.7046172 37.0989744,15.3415385 C36.7204539,15.1577427 35.961483,14.8908597 34.822041,14.5408824 L34.5720513,14.4646154 C32.9622996,13.9784591 31.7456451,13.5261559 30.9220513,13.1076923 C29.0627257,12.1538414 27.9022245,10.8646235 27.4405128,9.24 C27.2720504,8.66153557 27.1878205,8.03384954 27.1878205,7.35692308 C27.1878205,5.13537351 28.0441581,3.36154509 29.756859,2.03538462 C31.4695598,0.709224138 33.8201987,0.0461538462 36.8088462,0.0461538462 Z M62.6208974,0.461538462 C63.1013272,0.461538462 63.4257684,0.667690246 63.5942308,1.08 L72.5320513,22.1076923 C72.6505989,22.4092323 72.6505989,22.646153 72.5320513,22.8184615 C72.4135037,22.9907701 72.2013691,23.0769231 71.895641,23.0769231 L65.6532051,23.0769231 C65.1914934,23.0769231 64.8764111,22.8584637 64.7079487,22.4215385 L63.5287179,19.3661538 L55.2647436,19.3661538 L54.0948718,22.4215385 C53.9201701,22.8584637 53.5988485,23.0769231 53.1308974,23.0769231 L47.3657692,23.0769231 C47.0600412,23.0769231 46.8463468,22.9892316 46.7246795,22.8138462 C46.6030122,22.6384607 46.6014524,22.4030784 46.72,22.1076923 L55.854359,1.08 C56.0228214,0.667690246 56.3472626,0.461538462 56.8276923,0.461538462 L62.6208974,0.461538462 Z M59.3826923,8.63076923 L57.0335897,14.7692308 L61.7505128,14.7692308 L59.3826923,8.63076923 Z"></path>
                </g>
                <g id="MARKETPLACE" transform="translate(1.000000, 83.000000)" fill="#FFFFFF">
                    <path d="M23.0331334,0.455036208 C23.296114,0.151677219 23.6553016,0 24.1107069,0 L27.1028976,0 C27.3787065,0 27.5903706,0.0726786675 27.7378963,0.218038183 C27.8854219,0.363397698 27.9591837,0.571953875 27.9591837,0.843712969 L27.9591837,22.3726136 C27.9591837,22.6443727 27.8854219,22.8545088 27.7378963,23.0030283 C27.5903706,23.1515478 27.3787065,23.2258065 27.1028976,23.2258065 L21.2724553,23.2258065 C20.9966464,23.2258065 20.7849823,23.1515478 20.6374566,23.0030283 C20.489931,22.8545088 20.4161692,22.6443727 20.4161692,22.3726136 L20.4161692,13.4046083 L14.5953481,20.3059908 C14.4221658,20.5019101 14.2169158,20.5998683 13.9795918,20.5998683 C13.7422679,20.5998683 13.5370179,20.5019101 13.3638356,20.3059908 L7.55263564,13.4046083 L7.55263564,22.3726136 C7.55263564,22.6443727 7.4772704,22.8545088 7.32653764,23.0030283 C7.17580487,23.1515478 6.96253725,23.2258065 6.68672837,23.2258065 L0.865907271,23.2258065 C0.590098391,23.2258065 0.37683077,23.1515478 0.22609801,23.0030283 C0.0753652496,22.8545088 0,22.6443727 0,22.3726136 L0,0.843712969 C0,0.571953875 0.0753652496,0.363397698 0.22609801,0.218038183 C0.37683077,0.0726786675 0.590098391,0 0.865907271,0 L3.59832577,0 C4.02807449,0 4.380848,0.154837161 4.65665688,0.464516129 L13.9795918,11.2716261 L23.0331334,0.455036208 Z M56.6242822,22.2304147 C56.7481742,22.5400937 56.7481742,22.7834093 56.6242822,22.9603687 C56.5003902,23.1373281 56.278692,23.2258065 55.9591811,23.2258065 L49.4353216,23.2258065 C48.9527949,23.2258065 48.6235079,23.0014506 48.4474509,22.5527321 L47.2150576,19.4148782 L38.5785241,19.4148782 L37.3559118,22.5527321 C37.1733341,23.0014506 36.8375266,23.2258065 36.3484792,23.2258065 L30.3234456,23.2258065 C30.0039346,23.2258065 29.7806064,23.1357481 29.653454,22.9556287 C29.5263017,22.7755093 29.5246716,22.5337737 29.6485636,22.2304147 L39.1947207,0.635154707 C39.3707778,0.211716118 39.7098455,0 40.2119342,0 L46.2663105,0 C46.7683991,0 47.1074669,0.211716118 47.2835239,0.635154707 L56.6242822,22.2304147 Z M40.7405248,14.7096774 L45.5335277,14.7096774 L43.1275163,8.51612903 L40.7405248,14.7096774 Z M79.7120272,21.6647277 C79.9287406,22.0581722 79.9398948,22.4167091 79.7454901,22.740349 C79.5510854,23.0639889 79.2308005,23.2258065 78.7846258,23.2258065 L72.9525138,23.2258065 C72.8122875,23.2258065 72.681624,23.1861453 72.5605194,23.1068218 C72.4394148,23.0274983 72.3438074,22.9243793 72.2736942,22.7974617 L68.7457445,16.0867266 L65.8201277,16.0867266 L65.8201277,22.5118985 C65.8201277,22.7086208 65.7500155,22.8767841 65.6097892,23.0163934 C65.4695629,23.1560028 65.3006564,23.2258065 65.1030647,23.2258065 L59.0319318,23.2258065 C58.8343401,23.2258065 58.6654336,23.1560028 58.5252073,23.0163934 C58.3849809,22.8767841 58.3148688,22.7086208 58.3148688,22.5118985 L58.3148688,0.713907985 C58.3148688,0.51718569 58.3849809,0.34902238 58.5252073,0.209413009 C58.6654336,0.0698036383 58.8343401,0 59.0319318,0 L69.7113893,0 C71.260253,0 72.6561216,0.206238022 73.8990369,0.618720254 C75.1419522,1.03120249 76.1665453,1.59915027 76.9728467,2.32258065 C77.7791482,3.04601102 78.3958162,3.8947598 78.8228691,4.86885246 C79.2499221,5.84294511 79.4634454,6.90110481 79.4634454,8.0433633 C79.4634454,9.43945701 79.1479408,10.7086141 78.5169223,11.8508726 C77.8859037,12.993131 76.9712593,13.9196157 75.7729614,14.6303543 L79.7120272,21.6647277 Z M65.5043732,5.41935484 L65.5043732,10.8387097 L68.1037938,10.8387097 C69.4120727,10.8387097 70.3710062,10.6095353 70.980623,10.1511796 C71.5902399,9.6928239 71.8950437,9.01878153 71.8950437,8.12903226 C71.8950437,7.23928299 71.5902399,6.56524062 70.980623,6.10688493 C70.3710062,5.64852924 69.4120727,5.41935484 68.1037938,5.41935484 L65.5043732,5.41935484 Z M89.5050045,0 C89.7153143,0 89.8950925,0.0698036383 90.0443446,0.209413009 C90.1935967,0.34902238 90.2682216,0.51718569 90.2682216,0.713907985 L90.2682216,22.5118985 C90.2682216,22.7086208 90.1935967,22.8767841 90.0443446,23.0163934 C89.8950925,23.1560028 89.7153143,23.2258065 89.5050045,23.2258065 L83.0431004,23.2258065 C82.8327907,23.2258065 82.6530125,23.1560028 82.5037604,23.0163934 C82.3545083,22.8767841 82.2798834,22.7086208 82.2798834,22.5118985 L82.2798834,0.713907985 C82.2798834,0.51718569 82.3545083,0.34902238 82.5037604,0.209413009 C82.6530125,0.0698036383 82.8327907,0 83.0431004,0 L89.5050045,0 Z M107.647187,22.197779 C107.848869,22.4896895 107.894409,22.7340022 107.783809,22.9307245 C107.673209,23.1274468 107.442254,23.2258065 107.090937,23.2258065 L100.3086,23.2258065 C99.8882206,23.2258065 99.5593128,23.0744088 99.3218684,22.7716092 L91.0670554,11.4225278 L99.3132066,0.533051296 C99.5539238,0.177681988 99.9052357,0 100.367153,0 L106.700587,0 C107.05841,0 107.292618,0.0983596721 107.403218,0.295081967 C107.513817,0.491804262 107.461771,0.736116996 107.247078,1.0280275 L99.4107942,11.0893707 L107.647187,22.197779 Z M128.688196,17.4574299 C128.919519,17.4574299 129.097829,17.5193013 129.223129,17.643046 C129.348429,17.7667907 129.411079,17.9397133 129.411079,18.1618191 L129.411079,22.5118985 C129.411079,22.7403502 129.348429,22.9164457 129.223129,23.0401904 C129.097829,23.163935 128.919519,23.2258065 128.688196,23.2258065 L110.163116,23.2258065 C109.963921,23.2258065 109.793643,23.1560028 109.652279,23.0163934 C109.510914,22.8767841 109.440233,22.7086208 109.440233,22.5118985 L109.440233,0.713907985 C109.440233,0.51718569 109.510914,0.34902238 109.652279,0.209413009 C109.793643,0.0698036383 109.963921,0 110.163116,0 L128.302658,0 C128.533982,0 128.712291,0.0618714067 128.837592,0.185616076 C128.962892,0.309360746 129.025541,0.485456288 129.025541,0.713907985 L129.025541,5.06398731 C129.025541,5.28609313 128.962892,5.45901577 128.837592,5.58276044 C128.712291,5.70650511 128.533982,5.76837652 128.302658,5.76837652 L117.006408,5.76837652 L117.006408,8.86197779 L126.760508,8.86197779 C126.991832,8.86197779 127.170141,8.9238492 127.295441,9.04759387 C127.420742,9.17133854 127.483391,9.34743408 127.483391,9.57588577 L127.483391,13.3643575 C127.483391,13.5864633 127.420742,13.7593859 127.295441,13.8831306 C127.170141,14.0068753 126.991832,14.0687467 126.760508,14.0687467 L117.006408,14.0687467 L117.006408,17.4574299 L128.688196,17.4574299 Z M153.457412,0 C153.655128,0 153.824141,0.0698036383 153.964456,0.209413009 C154.104771,0.34902238 154.174927,0.51718569 154.174927,0.713907985 L154.174927,5.34003173 C154.174927,5.53675402 154.104771,5.70491733 153.964456,5.84452671 C153.824141,5.98413608 153.655128,6.05393971 153.457412,6.05393971 L146.741468,6.05393971 L146.741468,22.5118985 C146.741468,22.7086208 146.671311,22.8767841 146.530996,23.0163934 C146.390681,23.1560028 146.221668,23.2258065 146.023952,23.2258065 L139.948988,23.2258065 C139.751272,23.2258065 139.582259,23.1560028 139.441944,23.0163934 C139.301629,22.8767841 139.231473,22.7086208 139.231473,22.5118985 L139.231473,6.05393971 L132.525096,6.05393971 C132.327379,6.05393971 132.158366,5.98413608 132.018051,5.84452671 C131.877737,5.70491733 131.80758,5.53675402 131.80758,5.34003173 L131.80758,0.713907985 C131.80758,0.51718569 131.877737,0.34902238 132.018051,0.209413009 C132.158366,0.0698036383 132.327379,0 132.525096,0 L153.457412,0 Z M168.315036,0 C169.562037,0 170.715817,0.13802083 171.776411,0.414066631 C172.837005,0.690112433 173.754565,1.07561889 174.52912,1.57059757 C175.303675,2.06557625 175.964126,2.65414783 176.510492,3.33632998 C177.056859,4.01851214 177.46502,4.7673148 177.73499,5.58276044 C178.004959,6.39820609 178.139942,7.26281933 178.139942,8.17662612 C178.139942,9.31888461 177.923005,10.3849765 177.489126,11.3749339 C177.055247,12.3648913 176.433362,13.2295045 175.623454,13.9687996 C174.813546,14.7080947 173.781893,15.2903205 172.528464,15.7154944 C171.275035,16.1406684 169.870573,16.3532522 168.315036,16.3532522 L164.140174,16.3532522 L164.140174,22.5118985 C164.140174,22.7086208 164.069468,22.8767841 163.928056,23.0163934 C163.786643,23.1560028 163.616308,23.2258065 163.417045,23.2258065 L157.294557,23.2258065 C157.095294,23.2258065 156.924959,23.1560028 156.783546,23.0163934 C156.642134,22.8767841 156.571429,22.7086208 156.571429,22.5118985 L156.571429,0.713907985 C156.571429,0.51718569 156.642134,0.34902238 156.783546,0.209413009 C156.924959,0.0698036383 157.095294,0 157.294557,0 L168.315036,0 Z M166.655008,11.6129032 C167.273994,11.6129032 167.817245,11.5361698 168.284777,11.3827005 C168.752309,11.2292313 169.117769,11.0214115 169.381167,10.7592349 C169.644566,10.4970584 169.838819,10.2109065 169.963933,9.90077077 C170.089047,9.59063505 170.151603,9.25652477 170.151603,8.89842992 C170.151603,8.54672961 170.089047,8.21581657 169.963933,7.90568084 C169.838819,7.59554512 169.644566,7.30939326 169.381167,7.04721667 C169.117769,6.78504008 168.752309,6.57722029 168.284777,6.42375107 C167.817245,6.27028185 167.273994,6.19354839 166.655008,6.19354839 L163.760933,6.19354839 L163.760933,11.6129032 L166.655008,11.6129032 Z M198.175249,17.1718667 C198.410249,17.1718667 198.591392,17.2337381 198.718684,17.3574828 C198.845976,17.4812275 198.909621,17.657323 198.909621,17.8857747 L198.909621,22.5118985 C198.909621,22.7403502 198.845976,22.9164457 198.718684,23.0401904 C198.591392,23.163935 198.410249,23.2258065 198.175249,23.2258065 L180.471982,23.2258065 C180.26962,23.2258065 180.096636,23.1560028 179.953025,23.0163934 C179.809414,22.8767841 179.737609,22.7086208 179.737609,22.5118985 L179.737609,0.713907985 C179.737609,0.51718569 179.809414,0.34902238 179.953025,0.209413009 C180.096636,0.0698036383 180.26962,0 180.471982,0 L186.689667,0 C186.892028,0 187.065012,0.0698036383 187.208623,0.209413009 C187.352234,0.34902238 187.424039,0.51718569 187.424039,0.713907985 L187.424039,17.1718667 L198.175249,17.1718667 Z M226.775886,22.2304147 C226.899778,22.5400937 226.899778,22.7834093 226.775886,22.9603687 C226.651994,23.1373281 226.430296,23.2258065 226.110785,23.2258065 L219.586925,23.2258065 C219.104398,23.2258065 218.775111,23.0014506 218.599054,22.5527321 L217.366661,19.4148782 L208.730128,19.4148782 L207.507515,22.5527321 C207.324938,23.0014506 206.98913,23.2258065 206.500083,23.2258065 L200.475049,23.2258065 C200.155538,23.2258065 199.93221,23.1357481 199.805058,22.9556287 C199.677905,22.7755093 199.676275,22.5337737 199.800167,22.2304147 L209.346324,0.635154707 C209.522381,0.211716118 209.861449,0 210.363538,0 L216.417914,0 C216.920003,0 217.25907,0.211716118 217.435127,0.635154707 L226.775886,22.2304147 Z M210.093294,14.7096774 L214.886297,14.7096774 L212.480286,8.51612903 L210.093294,14.7096774 Z M251.116752,17.1011765 C251.641043,17.3521581 251.76572,17.7348994 251.490787,18.2494118 C250.97289,19.2219656 250.320733,20.0815649 249.534297,20.8282353 C248.74786,21.5749057 247.887908,22.175684 246.954415,22.6305882 C246.020921,23.0854925 245.044284,23.4274498 244.024474,23.6564706 C243.004664,23.8854913 241.957697,24 240.88354,24 C239.675113,24 238.506665,23.8760797 237.378161,23.6282353 C236.249657,23.3803909 235.197894,23.0227474 234.222841,22.5552941 C233.247787,22.0878408 232.357465,21.5027486 231.551847,20.8 C230.74623,20.0972514 230.055711,19.3098083 229.480269,18.4376471 C228.904828,17.5654858 228.458868,16.5803976 228.142375,15.4823529 C227.825882,14.3843082 227.667638,13.2235355 227.667638,12 C227.667638,10.7764645 227.825882,9.61569176 228.142375,8.51764706 C228.458868,7.41960235 228.904828,6.43451416 229.480269,5.56235294 C230.055711,4.69019172 230.74623,3.90274861 231.551847,3.2 C232.357465,2.49725139 233.247787,1.9121592 234.222841,1.44470588 C235.197894,0.977252565 236.249657,0.619609082 237.378161,0.371764706 C238.506665,0.123920329 239.675113,0 240.88354,0 C241.957697,0 243.004664,0.114508659 244.024474,0.343529412 C245.044284,0.572550165 246.020921,0.914507529 246.954415,1.36941176 C247.887908,1.824316 248.74786,2.42509431 249.534297,3.17176471 C250.320733,3.91843511 250.97289,4.77803435 251.490787,5.75058824 C251.76572,6.26510061 251.641043,6.64784188 251.116752,6.89882353 L246.542017,9.03529412 C246.068877,9.25490306 245.678861,9.12627689 245.371959,8.64941176 C244.86685,7.80234871 244.225882,7.14666899 243.449036,6.68235294 C242.67219,6.21803689 241.817033,5.98588235 240.88354,5.98588235 C239.278698,5.98588235 237.983975,6.54273953 236.999331,7.65647059 C236.014687,8.77020165 235.522372,10.2180303 235.522372,12 C235.522372,13.7819697 236.014687,15.2297984 236.999331,16.3435294 C237.983975,17.4572605 239.278698,18.0141176 240.88354,18.0141176 C241.817033,18.0141176 242.67219,17.7819631 243.449036,17.3176471 C244.225882,16.853331 244.86685,16.1976513 245.371959,15.3505882 C245.678861,14.8737231 246.068877,14.7450969 246.542017,14.9647059 L251.116752,17.1011765 Z M273.277117,17.4574299 C273.508441,17.4574299 273.68675,17.5193013 273.81205,17.643046 C273.937351,17.7667907 274,17.9397133 274,18.1618191 L274,22.5118985 C274,22.7403502 273.937351,22.9164457 273.81205,23.0401904 C273.68675,23.163935 273.508441,23.2258065 273.277117,23.2258065 L254.752037,23.2258065 C254.552842,23.2258065 254.382565,23.1560028 254.2412,23.0163934 C254.099836,22.8767841 254.029155,22.7086208 254.029155,22.5118985 L254.029155,0.713907985 C254.029155,0.51718569 254.099836,0.34902238 254.2412,0.209413009 C254.382565,0.0698036383 254.552842,0 254.752037,0 L272.89158,0 C273.122903,0 273.301213,0.0618714067 273.426513,0.185616076 C273.551813,0.309360746 273.614462,0.485456288 273.614462,0.713907985 L273.614462,5.06398731 C273.614462,5.28609313 273.551813,5.45901577 273.426513,5.58276044 C273.301213,5.70650511 273.122903,5.76837652 272.89158,5.76837652 L261.595329,5.76837652 L261.595329,8.86197779 L271.349429,8.86197779 C271.580753,8.86197779 271.759062,8.9238492 271.884363,9.04759387 C272.009663,9.17133854 272.072312,9.34743408 272.072312,9.57588577 L272.072312,13.3643575 C272.072312,13.5864633 272.009663,13.7593859 271.884363,13.8831306 C271.759062,14.0068753 271.580753,14.0687467 271.349429,14.0687467 L261.595329,14.0687467 L261.595329,17.4574299 L273.277117,17.4574299 Z"></path>
                </g>
                <g id="GUITAR" transform="translate(0.000000, 36.000000)" fill="#FFFFFF">
                    <path d="M40.4240676,22.393 C41.5047219,22.393 42.045041,22.8775507 42.045041,23.8466667 L42.045041,36.2273333 C39.7500432,37.828008 36.9676786,39.1319394 33.6978637,40.1391667 C30.4280489,41.1463939 26.8714127,41.65 23.0278484,41.65 C20.9222436,41.65 18.8862991,41.4349466 16.9199539,41.0048333 C14.9536087,40.5747201 13.1209801,39.9540596 11.4220133,39.1428333 C9.72304649,38.3316071 8.17171808,37.3162283 6.76798156,36.0966667 C5.36424503,34.877105 4.16106034,33.5105631 3.15839139,31.997 C2.15572245,30.4834369 1.37866567,28.7738984 0.827197746,26.8683333 C0.275729825,24.9627683 1.84741111e-13,22.948344 1.84741111e-13,20.825 C1.84741111e-13,18.7016561 0.275729825,16.6872318 0.827197746,14.7816667 C1.37866567,12.8761016 2.15572245,11.1665631 3.15839139,9.653 C4.16106034,8.13943688 5.36424503,6.77289499 6.76798156,5.55333333 C8.17171808,4.33377168 9.72304649,3.31839295 11.4220133,2.50716667 C13.1209801,1.69594039 14.9536087,1.07527993 16.9199539,0.645166667 C18.8862991,0.215053405 20.9222436,-3.55271368e-15 23.0278484,-3.55271368e-15 C24.8883563,-3.55271368e-15 26.6819927,0.17966487 28.4088115,0.539 C30.1356302,0.89833513 31.8039349,1.44277413 33.4137756,2.17233333 C35.0236163,2.90189254 36.5136714,3.87916054 37.8839857,5.10416667 C39.2542999,6.32917279 40.4184925,7.75832517 41.3765984,9.39166667 C41.6216952,9.83811334 41.6801834,10.2328316 41.5520645,10.5758333 C41.4239457,10.918835 41.1426456,11.1937767 40.7081557,11.4006667 L32.7536885,15.092 C31.9626941,15.4513351 31.2775473,15.2335595 30.6982275,14.4386667 C28.7820157,11.7382087 26.2252482,10.388 23.0278484,10.388 C20.2315161,10.388 17.9755448,11.3543792 16.2598668,13.2871667 C14.5441888,15.2199541 13.6863627,17.7325401 13.6863627,20.825 C13.6863627,23.9174599 14.5441888,26.4300459 16.2598668,28.3628333 C17.9755448,30.2956208 20.2315161,31.262 23.0278484,31.262 C25.7016322,31.262 28.0522986,30.9081147 30.079918,30.2003333 L30.079918,23.8466667 C30.079918,23.3784421 30.2108201,23.0191124 30.4726281,22.7686667 C30.7344361,22.518221 31.104861,22.393 31.5839139,22.393 L40.4240676,22.393 Z M87.3821619,0.898333333 C87.7275256,0.898333333 88.0227515,1.01810991 88.2678484,1.25766667 C88.5129452,1.49722342 88.6354918,1.78577609 88.6354918,2.12333333 L88.6354918,23.765 C88.6354918,26.1279007 88.2901332,28.2811569 87.5994057,30.2248333 C86.9086782,32.1685097 85.9450164,33.8263265 84.7083914,35.1983333 C83.4717664,36.5703402 81.9817112,37.7272731 80.2381814,38.6691667 C78.4946515,39.6110603 76.5812536,40.3024978 74.4979303,40.7435 C72.4146071,41.1845022 70.1753467,41.405 67.780082,41.405 C65.3848173,41.405 63.1455569,41.1845022 61.0622336,40.7435 C58.9789103,40.3024978 57.0655125,39.6110603 55.3219826,38.6691667 C53.5784527,37.7272731 52.0883976,36.5703402 50.8517725,35.1983333 C49.6151475,33.8263265 48.6514857,32.1685097 47.9607582,30.2248333 C47.2700307,28.2811569 46.9246721,26.1279007 46.9246721,23.765 L46.9246721,2.12333333 C46.9246721,1.78577609 47.0472187,1.49722342 47.2923156,1.25766667 C47.5374124,1.01810991 47.8326383,0.898333333 48.178002,0.898333333 L58.7895287,0.898333333 C59.1348924,0.898333333 59.4301183,1.01810991 59.6752152,1.25766667 C59.920312,1.49722342 60.0428586,1.78577609 60.0428586,2.12333333 L60.0428586,21.0046667 C60.0428586,24.216905 60.6778727,26.688658 61.9479201,28.42 C63.2179674,30.151342 65.1620019,31.017 67.780082,31.017 C70.398162,31.017 72.3421965,30.151342 73.6122439,28.42 C74.8822912,26.688658 75.5173053,24.216905 75.5173053,21.0046667 L75.5173053,2.12333333 C75.5173053,1.78577609 75.6398519,1.49722342 75.8849488,1.25766667 C76.1300456,1.01810991 76.4252715,0.898333333 76.7706352,0.898333333 L87.3821619,0.898333333 Z M93.515123,2.12333333 C93.515123,1.78577609 93.6376695,1.49722342 93.8827664,1.25766667 C94.1278632,1.01810991 94.4230891,0.898333333 94.7684529,0.898333333 L105.37998,0.898333333 C105.725343,0.898333333 106.020569,1.01810991 106.265666,1.25766667 C106.510763,1.49722342 106.633309,1.78577609 106.633309,2.12333333 L106.633309,39.5266667 C106.633309,39.8642239 106.510763,40.1527766 106.265666,40.3923333 C106.020569,40.6318901 105.725343,40.7516667 105.37998,40.7516667 L94.7684529,40.7516667 C94.4230891,40.7516667 94.1278632,40.6318901 93.8827664,40.3923333 C93.6376695,40.1527766 93.515123,39.8642239 93.515123,39.5266667 L93.515123,2.12333333 Z M148.327418,0.898333333 C148.672782,0.898333333 148.968008,1.01810991 149.213105,1.25766667 C149.458201,1.49722342 149.580748,1.78577609 149.580748,2.12333333 L149.580748,10.0613333 C149.580748,10.3988906 149.458201,10.6874432 149.213105,10.927 C148.968008,11.1665568 148.672782,11.2863333 148.327418,11.2863333 L136.59625,11.2863333 L136.59625,39.5266667 C136.59625,39.8642239 136.473703,40.1527766 136.228607,40.3923333 C135.98351,40.6318901 135.688284,40.7516667 135.34292,40.7516667 L124.731393,40.7516667 C124.38603,40.7516667 124.090804,40.6318901 123.845707,40.3923333 C123.60061,40.1527766 123.478064,39.8642239 123.478064,39.5266667 L123.478064,11.2863333 L111.763607,11.2863333 C111.418243,11.2863333 111.123017,11.1665568 110.87792,10.927 C110.632823,10.6874432 110.510277,10.3988906 110.510277,10.0613333 L110.510277,2.12333333 C110.510277,1.78577609 110.632823,1.49722342 110.87792,1.25766667 C111.123017,1.01810991 111.418243,0.898333333 111.763607,0.898333333 L148.327418,0.898333333 Z M173.895348,0.735 C174.753187,0.735 175.332498,1.09977413 175.633299,1.82933333 L191.592367,39.0366667 C191.804041,39.5702249 191.804041,39.9894429 191.592367,40.2943333 C191.380692,40.5992237 191.001912,40.7516667 190.456014,40.7516667 L179.309734,40.7516667 C178.485317,40.7516667 177.922717,40.365115 177.621916,39.592 L175.516322,34.1856667 L160.760451,34.1856667 L158.671568,39.592 C158.359626,40.365115 157.785885,40.7516667 156.950328,40.7516667 L146.656311,40.7516667 C146.110414,40.7516667 145.728848,40.5965016 145.511603,40.2861667 C145.294359,39.9758318 145.291573,39.5593359 145.503248,39.0366667 L161.813248,1.82933333 C162.114049,1.09977413 162.69336,0.735 163.551199,0.735 L173.895348,0.735 Z M214.369549,0.898333333 C217.076755,0.898333333 219.516547,1.25221868 221.688996,1.96 C223.861445,2.66778132 225.652297,3.64232713 227.061603,4.88366667 C228.47091,6.12500621 229.548763,7.58138053 230.295195,9.25283333 C231.041626,10.9242861 231.414836,12.7399902 231.414836,14.7 C231.414836,17.0955675 230.863376,19.2733235 229.760441,21.2333333 C228.657505,23.1933431 227.058829,24.783105 224.964365,26.0026667 L231.849324,38.073 C232.22811,38.7481145 232.247606,39.3633306 231.907812,39.9186667 C231.568019,40.4740028 231.008204,40.7516667 230.22835,40.7516667 L220.0346,40.7516667 C219.789504,40.7516667 219.561121,40.6836118 219.349447,40.5475 C219.137772,40.4113882 218.970663,40.2344455 218.848115,40.0166667 L212.681732,28.5016667 L207.568145,28.5016667 L207.568145,39.5266667 C207.568145,39.8642239 207.445599,40.1527766 207.200502,40.3923333 C206.955405,40.6318901 206.660179,40.7516667 206.314816,40.7516667 L195.703289,40.7516667 C195.357925,40.7516667 195.062699,40.6318901 194.817602,40.3923333 C194.572506,40.1527766 194.449959,39.8642239 194.449959,39.5266667 L194.449959,2.12333333 C194.449959,1.78577609 194.572506,1.49722342 194.817602,1.25766667 C195.062699,1.01810991 195.357925,0.898333333 195.703289,0.898333333 L214.369549,0.898333333 Z M168.11332,15.19 L163.918842,26.0516667 L172.341219,26.0516667 L168.11332,15.19 Z M211.796045,10.3226667 L207.568145,10.3226667 L207.568145,19.0773333 L211.796045,19.0773333 C213.923931,19.0773333 215.483615,18.7071148 216.475143,17.9666667 C217.466672,17.2262185 217.962428,16.1373405 217.962428,14.7 C217.962428,13.2626595 217.466672,12.1737815 216.475143,11.4333333 C215.483615,10.6928852 213.923931,10.3226667 211.796045,10.3226667 L211.796045,10.3226667 Z"></path>
                </g>
                <g id="logo" transform="translate(91.000000, 0.000000)" fill="#FFFFFF">
                    <path d="M8.65226155,34 L4.10511565,34 L4.10511565,31.0940171 C4.10511565,31.0940171 3.78031952,28.4786325 1.50674657,27.4615385 C-0.766826379,26.517094 0.207562027,27.4615385 0.207562027,27.4615385 L0.207562027,25.2820513 C0.207562027,25.2820513 3.13072725,15.1837607 2.15633884,2.90598291 L4.10511565,2.90598291 C4.10511565,2.90598291 4.88462638,0 9.30185382,0 C13.7190813,0 5.59917788,0 9.9514461,0 C14.3037143,0 15.0182658,2.90598291 15.0182658,2.90598291 L16.9020834,2.90598291 C15.927695,15.1837607 18.785901,25.2820513 18.785901,25.2820513 L18.785901,27.4615385 C18.785901,27.4615385 19.7602894,26.517094 17.5516757,27.4615385 C15.3430619,28.4059829 15.0182658,31.0940171 15.0182658,31.0940171 L15.0182658,34 L10.6010384,34" id="Path"></path>
                </g>
            </g>
        </g>
    </g>
</svg>