<?xml version="1.0" encoding="UTF-8"?>
<svg width="497px" height="102px" viewBox="0 0 497 102" version="1.1" xmlns="http://www.w3.org/2000/svg" xmlns:xlink="http://www.w3.org/1999/xlink">
    <title>Asset 2</title>
    <g id="04-25-2020" stroke="none" stroke-width="1" fill="none" fill-rule="evenodd">
        <g id="1.0.0-b---desktop---TP---Home---(-1336px-)-blue" transform="translate(-39.000000, -31.000000)" fill-rule="nonzero">
            <g id="Asset-2" transform="translate(39.000000, 31.000000)">
                <path d="M495.617046,68.5289958 C495.617046,68.5289958 481.787507,46.4314003 479.983654,43.8826025 C478.179802,41.3338048 477.734851,38.3161245 477.277875,34.2644979 C476.820899,30.2128713 471.565674,21.039604 470.363106,19.8373409 C469.160537,18.6350778 467.957968,15.0282885 467.957968,15.0282885 C467.957968,15.0282885 475.17338,3.30622348 474.427788,3.14992928 C473.969374,3.06511789 473.496058,3.11955635 473.068885,3.30622348 L464.951547,8.25954738 C464.951547,8.25954738 465.925628,2.70509194 466.526912,0 C464.578751,1.05799151 457.892469,12.4674682 457.892469,12.4674682 C457.892469,12.4674682 457.291185,11.1209335 452.998015,10.9646393 C450.529414,10.8551709 448.061177,11.1890718 445.71045,11.950495 C445.71045,11.950495 451.723292,12.6237624 452.480911,14.9561528 C451.795447,15.3288543 451.194162,15.2567185 449.318155,14.7277228 C441.429305,11.2652051 436.691185,13.5254597 436.691185,13.5254597 C436.691185,13.5254597 442.174898,14.0544554 441.958435,15.1725601 C435.945593,14.7998586 433.540455,17.8055163 433.540455,17.8055163 C433.540455,17.8055163 439.926095,16.3026874 440.972329,17.8055163 C441.357151,18.334512 439.168476,20.1379066 435.717104,19.3804809 C430.90683,18.334512 426.69784,21.5685997 426.69784,21.5685997 C426.69784,21.5685997 431.207472,20.5106082 432.638529,21.7850071 C428.946643,22.6145686 427.22697,21.6407355 424.437011,25.0190948 C423.01798,26.7503536 418.72481,31.4872702 415.718389,32.6053748 C419.783071,33.5070721 423.162288,30.2008487 423.162288,30.2008487 C423.162288,30.2008487 420.829305,33.5070721 419.181786,34.1082037 C417.534267,34.7093352 413.998716,36.0678925 412.339171,37.5707214 C410.679626,39.0735502 406.62697,45.529703 402.718622,46.8882603 C398.810274,48.2468175 394,46.7319661 394,46.7319661 C394,46.7319661 398.509632,49.7376238 407.528897,48.6916549 L407.613076,48.884017 C412.603736,47.7899576 428.261179,45.9144272 428.261179,45.4816124 C428.261179,45.0487977 429.463748,44.3635078 429.608056,43.5579915 L429.295388,43.5579915 L427.876357,42.8967468 L427.22697,39.4222065 L428.164974,38.7128713 C428.309282,31.102546 432.277758,23.2157001 443.726211,22.830976 C457.820315,22.3620934 459.912785,29.539604 461.76474,31.6195191 L463.460362,31.7637907 L465.011675,33.446959 C465.011675,33.446959 469.82195,34.4328147 469.100409,34.9497878 C468.378867,35.466761 463.364156,36.7892504 463.364156,36.7892504 L464.446468,38.9052334 L462.534384,39.1577086 C462.554604,39.7773113 462.514328,40.3974086 462.414127,41.0091938 C462.301896,41.3419499 462.144059,41.6575428 461.945126,41.946959 C461.295598,42.8173686 461.128327,43.9563266 461.500175,44.976662 C461.800817,45.8182461 462.137536,46.6478076 462.486281,47.4653465 C462.615686,47.7195691 462.768683,47.9610818 462.943257,48.1867044 C463.171745,48.5353607 463.424285,48.884017 463.640747,49.2567185 C463.952528,49.7753322 463.894239,50.4357768 463.496439,50.8917963 C463.276038,51.1828416 462.92243,51.3414717 462.558435,51.3125884 L461.620432,51.3125884 C461.508496,51.3009202 461.395649,51.3009202 461.283713,51.3125884 C461.134749,51.3554598 461.02008,51.4746845 460.983071,51.6251768 C460.898891,51.9016973 460.766608,53.9455446 460.658377,54.2701556 C460.591466,54.4436498 460.456908,54.5825129 460.285581,54.6548798 L460.141273,54.7149929 C459.888733,54.811174 460.417863,55.135785 459.756451,55.7248939 C459.156251,56.3701463 458.686632,57.1254285 458.373497,57.9490806 C458.403561,58.4335276 458.403561,58.9193719 458.373497,59.403819 C458.336066,59.7779027 458.175312,60.1289337 457.916521,60.4016973 C456.987186,61.3748294 455.636311,61.8250066 454.308815,61.6039604 C453.671454,61.4957567 450.171979,60.7022631 449.678926,60.606082 C449.444295,60.5639838 449.204041,60.5639838 448.96941,60.606082 C444.76042,61.1951909 443.076824,63.0106082 441.573614,63.5516266 C439.866144,64.2360077 438.196231,65.0105542 436.570928,65.8719943 C435.957618,66.3889675 437.941856,68.4929279 437.508932,69.1661952 C437.076007,69.8394625 435.632925,70.9455446 435.103795,71.5707214 C434.899358,71.7991513 430.077058,77.6541726 430.113135,77.966761 C430.149212,78.2793494 427.383304,92.4540311 426.769994,95.2553041 L429.547928,102 C428.802335,89.3762376 435.717104,79.6138614 437.665266,74.0473833 C439.057271,70.5627292 441.656777,67.6950367 444.988908,65.9681754 L454.753765,65.523338 C458.822205,66.8328777 462.749965,68.5445433 466.478809,70.6329562 C470.24768,72.9733239 473.730607,75.7452392 476.856976,78.8925035 L478.203853,80.8521924 C478.203853,80.8521924 481.065966,82.655587 481.510917,83.5572843 C482.05949,84.2776928 482.784212,84.844903 483.615412,85.2043847 C483.615412,85.2043847 488.726328,85.0601132 489.183304,84.6032532 C489.64028,84.1463932 489.327612,83.8578501 489.327612,83.8578501 C489.327612,83.8578501 492.935318,84.0021216 493.692936,83.4009901 C494.387912,82.5552603 494.758825,81.48969 494.739171,80.3953324 C494.739171,79.6499293 495.496789,79.6499293 495.94174,79.0487977 C496.38669,78.4476662 497,71.678925 497,70.6329562 C497,69.5869873 495.617046,68.5289958 495.617046,68.5289958 Z" id="Path" fill="#DDC45B"></path>
                <g id="Group-18" transform="translate(0.000000, 58.000000)" fill="#FFFFFF">
                    <path d="M21.3099042,4.77124858 L20.32356,4.77124858 L20.1530808,4.10327378 C19.7025285,2.3379118 19.3372159,1.56258391 16.1955272,1.56258391 L12.7859425,1.56258391 L12.7859425,15.220283 C12.7859425,18.560157 13.2243177,19.1207787 16.0615792,19.1207787 L16.0615792,20.0869565 L5.28485623,20.0869565 L5.28485623,19.0849943 C8.10994067,19.0849943 8.52396166,18.560157 8.52396166,15.220283 L8.52396166,1.55065579 L5.114377,1.55065579 C2.00921953,1.55065579 1.6317298,2.38562429 1.21770881,4.09134566 L1.0228754,4.77124858 L0,4.77124858 L0.304427202,0 L21.005477,0 L21.3099042,4.77124858 Z" id="Path"></path>
                    <path d="M29.6193597,15.220283 C29.6193597,18.560157 30.0494338,19.1207787 32.8210222,19.1207787 L32.8210222,20.0869565 L22.2364217,20.0869565 L22.2364217,19.0849943 C25.0080101,19.0849943 25.4141912,18.5243726 25.4141912,15.1844986 L25.4141912,4.92631416 C25.4141912,1.58644015 25.0080101,1.02581844 22.2364217,1.02581844 L22.2364217,0 L32.7971292,0 L32.7971292,0.978105959 C30.0255408,0.978105959 29.5954667,1.53872767 29.5954667,4.87860167 L29.5954667,8.70752866 L39.8575116,8.70752866 L39.8575116,4.92631416 C39.8575116,1.58644015 39.4632771,1.02581844 36.6439027,1.02581844 L36.6439027,0 L47.2523962,0 L47.2523962,0.978105959 C44.4808078,0.978105959 44.0387872,1.53872767 44.0387872,4.87860167 L44.0387872,15.1725705 C44.0387872,18.5124445 44.4808078,19.0730662 47.2523962,19.0730662 L47.2523962,20.039244 L36.6439027,20.039244 L36.6439027,19.0849943 C39.4632771,19.0849943 39.8575116,18.5243726 39.8575116,15.1844986 L39.8575116,10.1746876 L29.6193597,10.1746876 L29.6193597,15.220283 Z" id="Path"></path>
                    <path d="M62.9151902,20.9969906 C57.1104108,20.7004444 52.6177942,15.8714912 52.8179367,10.1438134 C53.0180792,4.41613567 57.8371193,-0.0964991828 63.6488342,0.00156850192 C69.460549,0.0996361866 74.1201576,4.77221507 74.1214058,10.5032911 C73.9515358,16.4458852 68.9430277,21.1359413 62.9151902,20.9969906 Z M62.9151902,1.60491761 C58.1210873,1.60491761 56.2394019,6.5090677 56.2394019,10.5032911 C56.2394019,14.4975146 58.1810136,19.4371164 62.9151902,19.4371164 C67.6493668,19.4371164 69.5909785,14.5329663 69.5909785,10.5269256 C69.5909785,6.52088493 67.6733373,1.60491761 62.9151902,1.60491761 Z" id="Shape"></path>
                    <path d="M92.9475854,14.8505112 C95.8534814,18.0830321 97.1174281,18.85836 99.1373802,19.1207787 L99.1373802,20.0869565 L91.9553282,20.0869565 L86.0490355,11.3078591 L85.0804035,11.3078591 L85.0804035,15.220283 C85.0804035,18.560157 85.5174692,19.1207787 88.257989,19.1207787 L88.257989,20.0869565 L77.827476,20.0869565 L77.827476,19.0849943 C80.5798084,19.0849943 80.9696238,18.5243726 80.9696238,15.1844986 L80.9696238,4.92631416 C80.9696238,1.58644015 80.5798084,1.02581844 77.827476,1.02581844 L77.827476,0 L88.9076812,0 C93.0184609,0 95.5936046,2.54068987 95.5936046,5.65392957 C95.5936046,8.55246308 93.3492133,10.9261592 89.6873118,11.2601466 L92.9475854,14.8505112 Z M91.163885,5.70164205 C91.2385494,4.55584555 90.8109699,3.43477405 89.9944702,2.63555112 C89.1779705,1.83632819 88.0549931,1.43965201 86.9231668,1.55065579 L85.1040287,1.55065579 L85.1040287,9.80491583 L86.9231668,9.80491583 C88.0482326,9.92262736 89.1676575,9.53492851 89.9843376,8.74471752 C90.8010178,7.95450652 91.2323608,6.84169881 91.163885,5.70164205 L91.163885,5.70164205 Z" id="Shape"></path>
                    <path d="M112.020621,20.9969906 C106.215842,20.7004444 101.723226,15.8714912 101.923368,10.1438134 C102.123511,4.41613567 106.942551,-0.0964991828 112.754265,0.00156850192 C118.56598,0.0996361866 123.225589,4.77221507 123.226837,10.5032911 C123.056967,16.4458852 118.048459,21.1359413 112.020621,20.9969906 Z M112.020621,1.60491761 C107.226519,1.60491761 105.332848,6.5090677 105.332848,10.5032911 C105.332848,14.4975146 107.286445,19.4371164 112.020621,19.4371164 C116.754798,19.4371164 118.69641,14.5329663 118.69641,10.5269256 C118.69641,6.52088493 116.778769,1.60491761 112.020621,1.60491761 Z" id="Shape"></path>
                    <path d="M140.15684,0.997389296 L140.15684,0 L148.242812,0 L148.242812,0.950999096 C145.500201,0.950999096 145.110089,1.49608394 145.110089,4.74339793 L145.110089,12.293403 C145.110089,17.3963249 141.49268,20.0869565 137.130511,20.0869565 C132.768343,20.0869565 129.186399,17.3963249 129.186399,12.293403 L129.186399,4.78978813 C129.186399,1.54247414 128.749,0.997389296 126.00639,0.997389296 L126.00639,0 L136.503967,0 L136.503967,0.950999096 C133.71407,0.950999096 133.323958,1.49608394 133.323958,4.74339793 L133.323958,11.8874887 C133.323958,16.0742042 135.605526,18.0225926 138.45453,18.0225926 C141.303535,18.0225926 143.313206,16.0742042 143.313206,11.8874887 L143.313206,4.78978813 C143.325028,1.54247414 142.934915,0.997389296 140.15684,0.997389296 Z" id="Path"></path>
                    <path d="M163.342343,13.1797183 L163.342343,12.2214085 L173.258786,12.2214085 L173.258786,13.1797183 C170.473538,13.1797183 170.065355,13.7121127 170.065355,17.0247887 L170.065355,19.2726761 C166.10358,19.2726761 164.686945,21 161.325439,21 C155.580128,20.8099204 151.022364,16.1650426 151.022364,10.5 C151.022364,4.83495739 155.580128,0.19007962 161.325439,0 C163.726359,0.0551690695 165.994381,1.09763241 167.580242,2.87492958 C168.057702,2.3443893 168.362952,1.68506726 168.456634,0.981971831 L169.393054,0.981971831 L169.393054,8.26985915 L168.420618,8.26985915 C167.508209,3.96338028 164.819004,1.64450704 161.457498,1.64450704 C156.859438,1.64450704 155.550852,6.44788732 155.550852,10.5532394 C155.550852,14.6585915 156.859438,19.4383099 161.457498,19.4383099 C164.086676,19.4383099 166.499757,18.3735211 166.499757,15.3211268 C166.499757,13.8777465 165.659381,13.1797183 163.342343,13.1797183 Z" id="Path"></path>
                    <path d="M181.554907,15.220283 C181.554907,18.560157 181.997561,19.1207787 184.773126,19.1207787 L184.773126,20.0869565 L174.185304,20.0869565 L174.185304,19.0849943 C176.972832,19.0849943 177.367632,18.5243726 177.367632,15.1844986 L177.367632,4.92631416 C177.367632,1.58644015 176.972832,1.02581844 174.185304,1.02581844 L174.185304,0 L184.773126,0 L184.773126,0.978105959 C181.997561,0.978105959 181.554907,1.53872767 181.554907,4.87860167 L181.554907,8.70752866 L191.795784,8.70752866 L191.795784,4.92631416 C191.795784,1.58644015 191.38902,1.02581844 188.577564,1.02581844 L188.577564,0 L199.201278,0 L199.201278,0.978105959 C196.413749,0.978105959 195.983058,1.53872767 195.983058,4.87860167 L195.983058,15.1725705 C195.983058,18.5124445 196.413749,19.0730662 199.201278,19.0730662 L199.201278,20.039244 L188.577564,20.039244 L188.577564,19.0849943 C191.38902,19.0849943 191.795784,18.5243726 191.795784,15.1844986 L191.795784,10.1746876 L181.507052,10.1746876 L181.554907,15.220283 Z" id="Path"></path>
                    <path d="M221.4377,14.4807394 C221.4377,17.582051 218.767866,20.0869565 214.537582,20.0869565 L201.980831,20.0869565 L201.980831,19.0849943 C204.809147,19.0849943 205.223642,18.5243726 205.223642,15.1844986 L205.223642,4.92631416 C205.223642,1.58644015 204.809147,1.02581844 201.980831,1.02581844 L201.980831,0 L213.586682,0 C217.341517,0 219.682193,2.24248683 219.682193,5.00981101 C219.669305,6.74114363 218.698847,8.32978149 217.14646,9.16079727 C219.658994,9.75456422 221.431281,11.9517066 221.4377,14.4807394 L221.4377,14.4807394 Z M209.490499,8.7313849 L211.392299,8.7313849 C212.398116,8.82901181 213.396658,8.48705138 214.120711,7.79701396 C214.844764,7.10697654 215.220413,6.13930328 215.147133,5.15294847 C215.20344,4.17106812 214.822415,3.21344079 214.102413,2.52726369 C213.382411,1.84108659 212.393991,1.49360351 211.392299,1.57451203 L209.490499,1.57451203 L209.490499,8.7313849 Z M216.805112,14.4091707 C216.883488,13.2695455 216.450521,12.1530594 215.619227,11.3511485 C214.787934,10.5492377 213.640814,10.1414858 212.477299,10.2343282 L209.441735,10.2343282 L209.441735,14.8862956 C209.441735,18.0591759 209.880612,18.5840132 212.708929,18.5840132 L212.550446,18.5840132 C213.712037,18.6777908 214.857391,18.2694778 215.685061,17.4665392 C216.512731,16.6636007 216.939803,15.5464709 216.853876,14.4091707 L216.805112,14.4091707 Z" id="Shape"></path>
                    <path d="M239.349174,14.8770142 C242.278696,18.115304 243.459954,18.8920156 245.527157,19.1190544 L245.527157,20.0869565 L238.356917,20.0869565 L232.450624,11.2921915 L231.493805,11.2921915 L231.493805,15.2115977 C231.493805,18.5574322 231.930871,19.1190544 234.671391,19.1190544 L234.671391,20.0869565 L224.217252,20.0869565 L224.217252,19.1190544 C226.957772,19.1190544 227.3594,18.5574322 227.3594,15.2115977 L227.3594,4.93510592 C227.3594,1.5892714 226.957772,1.02764917 224.217252,1.02764917 L224.217252,0 L235.297458,0 C239.396425,0 241.983381,2.54522412 241.983381,5.66401986 C241.983381,8.56772625 239.727177,10.9456586 236.077088,11.2802421 L239.349174,14.8770142 Z M237.553661,5.7118175 C237.632011,4.56513121 237.207291,3.4417123 236.392534,2.64054078 C235.577778,1.83936925 234.455638,1.44172079 233.324756,1.55342317 L231.505618,1.55342317 L231.505618,9.82241419 L233.324756,9.82241419 C234.448864,9.94083299 235.567443,9.552183 236.382382,8.76004342 C237.19732,7.96790384 237.625813,6.85276306 237.553661,5.7118175 L237.553661,5.7118175 Z" id="Shape"></path>
                    <path d="M246.453674,19.0963342 C249.216554,19.0963342 249.621459,18.5353794 249.621459,15.1935209 L249.621459,4.92924126 C249.621459,1.58738278 249.216554,1.02642796 246.453674,1.02642796 L246.453674,0 L263.626403,0 L263.888401,4.77408355 L262.923774,4.77408355 L262.757049,4.10571185 C262.292599,2.33930094 261.959148,1.56351236 258.886635,1.56351236 L253.789597,1.56351236 L253.789597,8.72463768 L255.623578,8.72463768 C258.958089,8.72463768 259.482083,8.29497016 259.482083,5.52600171 L260.458618,5.52600171 L260.458618,13.4390452 L259.482083,13.4390452 C259.482083,10.6342711 258.958089,10.228474 255.623578,10.228474 L253.789597,10.228474 L253.789597,14.6803069 C253.789597,18.0221654 254.21832,18.5831202 256.9812,18.5831202 L259.98226,18.5831202 C263.054773,18.5831202 263.423951,17.8192668 263.852674,16.0528559 L264.019399,15.3844842 L264.984026,15.3844842 L264.722028,20.0869565 L246.453674,20.0869565 L246.453674,19.0963342 Z" id="Path"></path>
                    <path d="M267.763578,19.1304348 C270.553609,19.1304348 270.948763,18.5684783 270.948763,15.2206522 L270.948763,4.93804348 C270.948763,1.59021739 270.553609,1.02826087 267.763578,1.02826087 L267.763578,0 L278.827904,0 C286.611251,0 290,4.51956522 290,10.0434783 C290,15.5673913 286.611251,20.0869565 278.827904,20.0869565 L267.763578,20.0869565 L267.763578,19.1304348 Z M275.139796,14.8141304 C275.139796,18.0663043 275.582848,18.5923913 278.360904,18.5923913 L278.696186,18.5923913 C284.132554,18.5923913 285.234197,13.8097826 285.234197,10.0554348 C285.234197,6.30108696 284.132554,1.51847826 278.696186,1.51847826 L275.103873,1.51847826 L275.139796,14.8141304 Z" id="Shape"></path>
                </g>
                <g id="Group-13" transform="translate(300.000000, 58.000000)" fill="#FFFFFF">
                    <path d="M15.8046875,5.69487854 C15.8046875,8.79251122 13.301789,11.2944453 8.75426928,11.2944453 L5.75784154,11.2944453 L5.75784154,15.4881634 C5.75784154,18.8240755 6.15736524,19.3959462 8.88352695,19.3959462 L8.88352695,20.0869565 L0,20.0869565 L0,19.3959462 C2.72616171,19.3959462 3.12568541,18.8240755 3.12568541,15.4881634 L3.12568541,4.64644902 C3.12568541,1.3105369 2.72616171,0.77440817 0,0.77440817 L0,0 L8.6837651,0 C13.301789,0 15.8046875,2.58533189 15.8046875,5.69487854 Z M12.8787639,5.69487854 C12.9946852,4.52317705 12.5974287,3.35894908 11.792151,2.51037388 C10.9868734,1.66179868 9.85476969,1.21443713 8.6955158,1.28670896 L5.75784154,1.28670896 L5.75784154,10.0911341 L8.64851301,10.0911341 C9.81451339,10.1819067 10.9602113,9.74393384 11.7768539,8.89524435 C12.5934965,8.04655487 12.997051,6.87447911 12.8787639,5.69487854 L12.8787639,5.69487854 Z" id="Shape"></path>
                    <path d="M17.6640625,19.3951255 C20.4551301,19.3951255 20.8641658,18.8225756 20.8641658,15.4827016 L20.8641658,4.62811112 C20.8641658,1.28823712 20.4551301,0.751471651 17.6640625,0.751471651 L17.6640625,0 L32.9908732,0 L33.2916348,4.41340494 L32.5818375,4.41340494 L32.413411,3.74543014 C31.9442229,2.0039244 31.6073699,1.24052463 28.5035103,1.24052463 L23.5228983,1.24052463 L23.5228983,8.82680987 L25.2071632,8.82680987 C28.5756931,8.82680987 29.1170639,8.42125374 29.1170639,5.6181452 L29.8268613,5.6181452 L29.8268613,13.2640711 L29.1170639,13.2640711 C29.1170639,10.4609625 28.5756931,10.0554064 25.2071632,10.0554064 L23.5228983,10.0554064 L23.5228983,14.9340081 C23.5228983,18.2738821 23.9319341,18.8106475 26.7230017,18.8106475 L29.6223434,18.8106475 C32.7141726,18.8106475 33.087117,18.0353196 33.5322441,16.2699577 L33.7006706,15.6019829 L34.3984375,15.6019829 L34.1939196,20.0869565 L17.6640625,20.0869565 L17.6640625,19.3951255 Z" id="Path"></path>
                    <path d="M50.1148192,20.9969906 C44.2901797,20.7004444 39.7821924,15.8714912 39.9830196,10.1438134 C40.1838469,4.41613567 45.0193746,-0.0964991828 50.8509732,0.00156850192 C56.6825719,0.0996361866 61.3581226,4.77221507 61.359375,10.5032911 C61.1889239,16.4458852 56.16328,21.1359413 50.1148192,20.9969906 Z M42.1053281,10.5032911 C42.1053281,14.6156869 44.3301868,19.673461 50.1148192,19.673461 C55.8994517,19.673461 58.1603891,14.6156869 58.1603891,10.5032911 C58.1603891,6.39089541 55.9475567,1.30948688 50.1148192,1.30948688 C44.2820817,1.30948688 42.1053281,6.43816432 42.1053281,10.5032911 L42.1053281,10.5032911 Z" id="Shape"></path>
                    <path d="M80.8828125,5.69487854 C80.8828125,8.79251122 78.3686987,11.2944453 73.8008017,11.2944453 L70.8617672,11.2944453 L70.8617672,15.4881634 C70.8617672,18.8240755 71.2512778,19.3959462 74.0014586,19.3959462 L74.0014586,20.0869565 L65.078125,20.0869565 L65.078125,19.3959462 C67.8165025,19.3959462 68.2178165,18.8240755 68.2178165,15.4881634 L68.2178165,4.64644902 C68.2178165,1.3105369 67.8165025,0.77440817 65.078125,0.77440817 L65.078125,0 L73.8008017,0 C78.3686987,0 80.8828125,2.58533189 80.8828125,5.69487854 Z M77.943778,5.69487854 C78.0602187,4.52317705 77.6611822,3.35894908 76.852296,2.51037388 C76.0434099,1.66179868 74.9062334,1.21443713 73.7417849,1.28670896 L70.8381605,1.28670896 L70.8381605,10.0911341 L73.7417849,10.0911341 C74.9050993,10.1671079 76.0426138,9.7226211 76.8520105,8.87580513 C77.6614072,8.02898916 78.0607035,6.86561695 77.943778,5.69487854 L77.943778,5.69487854 Z" id="Shape"></path>
                    <path d="M82.7421875,19.3951255 C85.4981139,19.3951255 85.9019996,18.8225756 85.9019996,15.4827016 L85.9019996,4.62811112 C85.9019996,1.28823712 85.4981139,0.751471651 82.7421875,0.751471651 L82.7421875,0 L91.7227062,0 L91.7227062,0.703759166 C88.9549008,0.703759166 88.562894,1.24052463 88.562894,4.58039864 L88.562894,14.9340081 C88.562894,18.2738821 88.9549008,18.8106475 91.7227062,18.8106475 L95.7140478,18.8106475 C98.743191,18.8106475 99.0995608,18.0353196 99.5390835,16.2699577 L99.7053894,15.6019829 L100.40625,15.6019829 L100.16867,20.0869565 L82.7421875,20.0869565 L82.7421875,19.3951255 Z" id="Path"></path>
                    <path d="M102.265625,19.4413043 C105.046696,19.4413043 105.454267,18.8673913 105.454267,15.5195652 L105.454267,4.63913043 C105.454267,1.29130435 105.046696,0.75326087 102.265625,0.75326087 L102.265625,0 L117.573502,0 L117.873187,4.42391304 L117.165932,4.42391304 L116.998108,3.75434783 C116.530601,2.00869565 116.194954,1.24347826 113.102212,1.24347826 L108.139439,1.24347826 L108.139439,8.84782609 L109.817671,8.84782609 C113.174136,8.84782609 113.713568,8.44130435 113.713568,5.63152174 L114.408836,5.63152174 L114.408836,13.2956522 L113.737543,13.2956522 C113.737543,10.4858696 113.198111,10.0793478 109.841646,10.0793478 L108.163413,10.0793478 L108.163413,14.9695652 C108.163413,18.3173913 108.558997,18.8554348 111.352055,18.8554348 L114.241012,18.8554348 C117.321768,18.8554348 117.693376,18.0782609 118.124922,16.3086957 L118.292745,15.6391304 L119,15.6391304 L118.736278,20.0869565 L102.265625,20.0869565 L102.265625,19.4413043 Z" id="Path"></path>
                </g>
            </g>
        </g>
    </g>
</svg>